<?xml version="1.0" encoding="UTF-8"?><svg id="b" xmlns="http://www.w3.org/2000/svg" viewBox="0 0 1651.9 1297.1"><defs><style>.d{fill:none;}.d,.e{stroke:#231f20;stroke-miterlimit:10;stroke-width:5px;}.e{fill:#fff;}.f{fill:#231f20;}</style></defs><g id="c"><g><g><line class="d" x1="2.5" y1="1060.89" x2="306.69" y2="1060.89"/><line class="d" x1="154.59" y1="908.8" x2="154.59" y2="1212.98"/><path class="d" d="M154.59,1212.98s50.7-67.22,50.7-152.09-50.7-152.09-50.7-152.09"/><circle class="d" cx="154.59" cy="1060.89" r="152.09"/><path class="d" d="M154.59,1212.98s101.4-33.93,101.4-152.09-101.4-152.09-101.4-152.09"/><path class="d" d="M154.59,1212.98s-50.7-67.22-50.7-152.09c0-84.87,50.7-152.09,50.7-152.09"/><path class="d" d="M154.59,1212.98s-101.4-33.93-101.4-152.09c0-118.16,101.4-152.09,101.4-152.09"/><path class="d" d="M18.57,1129.01c16.25-6.98,59.74-21.8,136.02-21.8s119.78,14.83,136.02,21.8"/><path class="d" d="M54.5,1175.4c15.8-7.44,46.97-17.5,100.1-17.5s83.82,9.9,99.74,17.33"/><path class="d" d="M18.57,992.77c16.25,6.98,59.74,21.8,136.02,21.8s119.78-14.83,136.02-21.8"/><path class="d" d="M54.5,946.38c15.8,7.44,46.97,17.5,100.1,17.5s83.82-9.9,99.74-17.33"/></g><g><line class="d" x1="2.5" y1="1060.89" x2="306.69" y2="1060.89"/><line class="d" x1="154.59" y1="908.8" x2="154.59" y2="1212.98"/><path class="d" d="M154.59,1212.98s50.7-67.22,50.7-152.09-50.7-152.09-50.7-152.09"/><circle class="d" cx="154.59" cy="1060.89" r="152.09"/><path class="d" d="M154.59,1212.98s101.4-33.93,101.4-152.09-101.4-152.09-101.4-152.09"/><path class="d" d="M154.59,1212.98s-50.7-67.22-50.7-152.09c0-84.87,50.7-152.09,50.7-152.09"/><path class="d" d="M154.59,1212.98s-101.4-33.93-101.4-152.09c0-118.16,101.4-152.09,101.4-152.09"/><path class="d" d="M18.57,1129.01c16.25-6.98,59.74-21.8,136.02-21.8s119.78,14.83,136.02,21.8"/><path class="d" d="M54.5,1175.4c15.8-7.44,46.97-17.5,100.1-17.5s83.82,9.9,99.74,17.33"/><path class="d" d="M18.57,992.77c16.25,6.98,59.74,21.8,136.02,21.8s119.78-14.83,136.02-21.8"/><path class="d" d="M54.5,946.38c15.8,7.44,46.97,17.5,100.1,17.5s83.82-9.9,99.74-17.33"/></g><g><circle class="d" cx="1444.08" cy="1142.51" r="152.09"/><path class="d" d="M1545.69,1177.87c-14.66,42-54.67,72.21-101.61,72.21s-86.95-30.21-101.61-72.21"/><path class="d" d="M1535.72,1175.99s8.47,4.53,18.32,3.74"/><path class="d" d="M1351.64,1175.99s-8.47,4.53-18.32,3.74"/><g><ellipse class="f" cx="1482.07" cy="1099.92" rx="24.39" ry="51.41"/><ellipse class="f" cx="1406.09" cy="1099.92" rx="24.39" ry="51.41"/></g></g><g><path class="d" d="M292.26,255.88v279.29c0,21.2,17.18,38.38,38.38,38.38h245.01c21.2,0,38.38,17.18,38.38,38.38v134.92c0,21.2,17.18,38.38,38.38,38.38h260.69c21.2,0,38.38,17.18,38.38,38.38v96.83c0,21.2,17.18,38.38,38.38,38.38h332.92"/><path class="d" d="M1263.9,415.61v404.13c0,21.2-17.18,38.38-38.38,38.38h-283.48c-21.2,0-38.38,17.18-38.38,38.38v117.14c0,21.2-17.18,38.38-38.38,38.38H389.45c-21.2,0-38.38-17.18-38.38-38.38v-230.74c0-21.2-17.18-38.38-38.38-38.38H127.05"/><path class="d" d="M471.91,394.73v475.69c0,21.2,17.18,38.38,38.38,38.38h262.24c21.2,0,38.38-17.18,38.38-38.38v-137.41c0-21.2,17.18-38.38,38.38-38.38h561.96"/><circle class="f" cx="1263.9" cy="415.61" r="11.53"/><circle class="f" cx="1411.25" cy="694.63" r="11.53"/><circle class="f" cx="1322.78" cy="958.8" r="11.53"/><circle class="f" cx="127.05" cy="744.52" r="11.53"/><circle class="f" cx="471.91" cy="394.73" r="11.53"/><circle class="f" cx="292.26" cy="255.88" r="11.53"/></g><g><circle class="d" cx="887.44" cy="405.53" r="196.8"/><circle class="d" cx="887.44" cy="405.53" r="253.12"/><line class="d" x1="801.62" y1="491.35" x2="973.27" y2="319.71"/><line class="d" x1="847.07" y1="486.19" x2="959.09" y2="374.17"/><polyline class="d" points="722.1 597.18 649.54 669.74 623.24 643.43 695.79 570.88"/><path class="e" d="M486.56,609.33h71.48v286.96c0,19.72-16.01,35.74-35.74,35.74h0c-19.72,0-35.74-16.01-35.74-35.74v-286.96h0Z" transform="translate(697.93 -143.6) rotate(45)"/><g><path class="f" d="M598.71,140.64v98.33h5.38v-98.33c-.88,.11-1.78,.17-2.69,.17s-1.81-.06-2.69-.17Z"/><path class="f" d="M604.09,98.33V0h-5.38V98.33c.88-.11,1.78-.17,2.69-.17s1.81,.06,2.69,.17Z"/><path class="f" d="M622.55,122.17h98.33v-5.38h-98.33c.11,.88,.17,1.78,.17,2.69s-.06,1.81-.17,2.69Z"/><path class="f" d="M580.24,116.8h-98.33v5.38h98.33c-.11-.88-.17-1.78-.17-2.69s.06-1.81,.17-2.69Z"/><path class="f" d="M588.34,102.62l-69.53-69.53-3.8,3.8,69.53,69.53c1.1-1.42,2.38-2.7,3.8-3.8Z"/><path class="f" d="M614.46,136.35l69.53,69.53,3.8-3.8-69.53-69.53c-1.1,1.42-2.38,2.7-3.8,3.8Z"/><path class="f" d="M618.26,106.43l69.53-69.53-3.8-3.8-69.53,69.53c1.42,1.1,2.7,2.38,3.8,3.8Z"/><path class="f" d="M584.54,132.54l-69.53,69.53,3.8,3.8,69.53-69.53c-1.42-1.1-2.7-2.38-3.8-3.8Z"/></g></g><polygon class="f" points="143.99 476.4 158.02 512.87 194.49 526.9 158.02 540.94 143.99 577.4 129.94 540.95 93.49 526.9 129.96 512.87 143.99 476.4"/><polygon class="f" points="973.27 1010.39 987.3 1046.86 1023.77 1060.89 987.3 1074.92 973.27 1111.39 959.22 1074.94 922.77 1060.89 959.23 1046.86 973.27 1010.39"/><polygon class="f" points="1191.06 133.36 1205.1 169.82 1241.56 183.86 1205.1 197.89 1191.06 234.36 1177.02 197.9 1140.56 183.86 1177.03 169.82 1191.06 133.36"/><g><rect class="f" x="1500.39" y="296.61" width="6.67" height="296.34"/><rect class="f" x="1500.39" y="296.61" width="6.67" height="296.34" transform="translate(1948.51 -1058.95) rotate(90)"/><rect class="f" x="1500.39" y="296.61" width="6.67" height="296.34" transform="translate(125.92 1193.57) rotate(-45)"/><rect class="f" x="1500.39" y="296.61" width="6.67" height="296.34" transform="translate(754.94 -933.02) rotate(45)"/><circle class="f" cx="1503.73" cy="444.78" r="26.45"/></g></g></g></svg>