<svg width="453" height="453" viewBox="0 0 453 453" fill="none" xmlns="http://www.w3.org/2000/svg">
<mask id="mask0_1184_149" style="mask-type:luminance" maskUnits="userSpaceOnUse" x="0" y="0" width="453" height="453">
<path d="M313.475 0.225822L0.226562 313.474L139.527 452.774L452.775 139.526L313.475 0.225822Z" fill="white"/>
</mask>
<g mask="url(#mask0_1184_149)">
<path d="M173.508 179.223C235.554 157.319 305.73 144.31 333.739 100.317" stroke="#231F20" stroke-width="1.0135" stroke-miterlimit="10"/>
<path d="M188.349 158.06C188.349 158.06 189.467 173.468 173.489 179.218C189.467 173.468 198.471 186.227 198.471 186.227" stroke="#F6F9A0" stroke-width="1.0135" stroke-miterlimit="10"/>
<path d="M143.474 340.651C175.419 298.573 238.63 283.362 295.171 264.852" stroke="#231F20" stroke-width="1.0135" stroke-miterlimit="10"/>
<path d="M279.573 285.474C279.573 285.474 278.993 270.02 295.173 264.85C279.012 270.025 270.47 256.951 270.47 256.951" stroke="#F6F9A0" stroke-width="1.0135" stroke-miterlimit="10"/>
<path d="M131.266 229.414C205.501 183.244 330.923 182.793 355.986 107.897" stroke="#231F20" stroke-width="1.0135" stroke-miterlimit="10"/>
<path d="M94.7911 333.126C108.515 255.591 192.54 237.184 265.43 213.339" stroke="#231F20" stroke-width="1.0135" stroke-miterlimit="10"/>
<path d="M200.576 266.241C292.127 229.223 414.966 222.748 388.738 103.849" stroke="#231F20" stroke-width="1.0135" stroke-miterlimit="10"/>
<path d="M151.571 332.031C152.174 313.311 128.561 297.359 98.831 296.402C69.1005 295.444 44.5104 309.843 43.9075 328.563C43.3045 347.283 66.917 363.235 96.6477 364.193C126.378 365.15 150.968 350.751 151.571 332.031Z" fill="#18181B"/>
<path d="M97.515 397.04C47.4328 161.977 417.424 275.91 373.736 77.8366" stroke="#F6F9A0" stroke-width="0.7" stroke-miterlimit="10"/>
<path d="M124.525 384.659C138.25 307.125 222.275 288.718 295.165 264.873" stroke="#F6F9A0" stroke-width="0.7" stroke-miterlimit="10"/>
<path d="M383.123 92.4674C356.898 78.4312 328.473 80.4399 319.635 96.9533C310.797 113.467 324.893 138.231 351.119 152.268C377.346 166.304 405.771 164.295 414.608 147.782C423.446 131.269 409.35 106.504 383.123 92.4674Z" fill="#18181B"/>
<path d="M80.5872 367.728C30.5053 132.665 400.496 246.598 356.809 48.5238" stroke="#F6F9A0" stroke-width="0.7" stroke-miterlimit="10"/>
<path d="M117.098 204.911C191.333 158.741 316.756 158.289 341.818 83.3935L342.809 80.3225" stroke="#F6F9A0" stroke-width="0.7" stroke-miterlimit="10"/>
<path d="M112.536 423.064C62.4532 188 432.45 301.914 388.757 103.859L382.766 73.2738" stroke="#F6F9A0" stroke-width="0.7" stroke-miterlimit="10"/>
<path d="M330.724 155.762L260.655 188.517L281.058 232.163L351.127 199.408L330.724 155.762Z" fill="white" stroke="#231F20" stroke-width="1.2" stroke-miterlimit="10"/>
<path d="M260.67 188.548L309.305 201.266L330.726 155.78" stroke="#231F20" stroke-width="1.2" stroke-miterlimit="10"/>
<path d="M313.92 191.484L351.14 199.421" stroke="#231F20" stroke-width="1.2" stroke-miterlimit="10"/>
<path d="M281.065 232.184L298.855 198.527" stroke="#231F20" stroke-width="1.2" stroke-miterlimit="10"/>
<path d="M188.622 256.61L150.92 274.937L162.335 298.419L200.037 280.092L188.622 256.61Z" fill="white" stroke="#231F20" stroke-width="1.2" stroke-miterlimit="10"/>
<path d="M150.902 274.925L177.383 281.433L188.613 256.595" stroke="#231F20" stroke-width="1.2" stroke-miterlimit="10"/>
<path d="M179.797 276.101L200.026 280.094" stroke="#231F20" stroke-width="1.2" stroke-miterlimit="10"/>
<path d="M162.337 298.431L171.693 280.037" stroke="#231F20" stroke-width="1.2" stroke-miterlimit="10"/>
<path d="M112.654 219.635L73.4786 258.485L97.6847 282.894L136.861 244.044L112.654 219.635Z" fill="white" stroke="#231F20" stroke-width="1.2" stroke-miterlimit="10"/>
<path d="M73.4883 258.487L109.208 255.341L112.67 219.629" stroke="#231F20" stroke-width="1.2" stroke-miterlimit="10"/>
<path d="M109.947 247.648L136.874 244.035" stroke="#231F20" stroke-width="1.2" stroke-miterlimit="10"/>
<path d="M97.6913 282.895L101.536 256.015" stroke="#231F20" stroke-width="1.2" stroke-miterlimit="10"/>
<path d="M387.825 170.693L392.946 171.709L397.138 168.592L396.123 173.713L399.219 177.901L394.098 176.885L389.905 180.001L390.94 174.885L387.825 170.693Z" fill="#F6F9A0"/>
<path d="M323.556 68.148L329.965 69.4461L335.228 65.5466L333.93 71.9562L337.829 77.2187L331.42 75.9213L326.177 79.8255L327.455 73.4105L323.556 68.148Z" fill="#F6F9A0"/>
<path d="M131.215 369.095L137.601 367.659L140.829 361.956L142.265 368.342L147.949 371.565L141.563 373.001L138.34 378.685L136.923 372.304L131.215 369.095Z" fill="#F6F9A0"/>
<path d="M41.7817 292.713L47.2946 291.484L50.0568 286.579L51.2919 292.072L56.1915 294.854L50.6982 296.089L47.936 300.994L46.7062 295.481L41.7817 292.713Z" fill="#F6F9A0"/>
</g>
</svg>
