<?xml version="1.0" encoding="UTF-8"?>
<!-- Generator: Adobe Illustrator 24.2.1, SVG Export Plug-In . SVG Version: 6.00 Build 0)  -->
<svg xmlns:serif="http://www.serif.com/" xmlns="http://www.w3.org/2000/svg" xmlns:xlink="http://www.w3.org/1999/xlink" version="1.1" id="Шар_1" x="0px" y="0px" viewBox="0 0 422.8 288" xml:space="preserve">
<g>
	<g>
		<path fill="#212125" d="M192,282.8v2.1h-16.2v-1.7l9.6-9.4c1.2-1.2,2-2.2,2.5-3.1c0.4-0.9,0.6-1.7,0.6-2.6c0-1.4-0.5-2.4-1.4-3.2    c-0.9-0.8-2.3-1.1-4-1.1c-2.7,0-4.8,0.9-6.3,2.6l-1.7-1.5c0.9-1.1,2.1-1.9,3.5-2.4c1.4-0.6,3-0.9,4.7-0.9c2.4,0,4.2,0.6,5.6,1.7    c1.4,1.1,2.1,2.6,2.1,4.6c0,1.2-0.3,2.3-0.8,3.4c-0.5,1.1-1.5,2.4-3,3.8l-7.9,7.7H192z"></path>
		<path fill="#212125" d="M199.3,283.7c-1.4-0.9-2.5-2.3-3.3-4.1c-0.8-1.8-1.2-3.9-1.2-6.3c0-2.4,0.4-4.5,1.2-6.3    c0.8-1.8,1.9-3.1,3.3-4.1c1.4-0.9,3-1.4,4.8-1.4c1.8,0,3.4,0.5,4.8,1.4c1.4,0.9,2.5,2.3,3.3,4.1c0.8,1.8,1.2,3.9,1.2,6.3    c0,2.4-0.4,4.5-1.2,6.3c-0.8,1.8-1.9,3.1-3.3,4.1c-1.4,0.9-3,1.4-4.8,1.4C202.3,285.1,200.7,284.6,199.3,283.7z M207.6,281.8    c1-0.7,1.8-1.8,2.4-3.3c0.6-1.4,0.9-3.2,0.9-5.2c0-2-0.3-3.8-0.9-5.2c-0.6-1.4-1.4-2.5-2.4-3.3c-1-0.7-2.2-1.1-3.6-1.1    c-1.3,0-2.5,0.4-3.6,1.1c-1,0.8-1.8,1.8-2.4,3.3c-0.6,1.4-0.9,3.2-0.9,5.2c0,2,0.3,3.8,0.9,5.2c0.6,1.4,1.4,2.5,2.4,3.3    c1,0.7,2.2,1.1,3.6,1.1C205.4,282.9,206.6,282.5,207.6,281.8z"></path>
		<path fill="#212125" d="M223.1,261.8v23.1h-2.4v-21h-5.5v-2.1H223.1z"></path>
		<path fill="#212125" d="M245.2,275c0.8,1,1.2,2.1,1.2,3.5c0,1.3-0.4,2.5-1.1,3.5c-0.7,1-1.8,1.8-3.1,2.3c-1.4,0.5-3,0.8-4.8,0.8    c-2.8,0-5-0.6-6.5-1.8c-1.6-1.2-2.4-2.8-2.4-4.9c0-1.4,0.4-2.6,1.1-3.5c0.8-1,1.9-1.7,3.3-2.2c-1.2-0.5-2.1-1.1-2.7-2    c-0.6-0.9-0.9-1.9-0.9-3.1c0-1.9,0.7-3.4,2.2-4.5c1.5-1.1,3.4-1.7,5.9-1.7c1.6,0,3.1,0.2,4.3,0.7c1.2,0.5,2.2,1.2,2.9,2.1    c0.7,0.9,1,2,1,3.2c0,1.2-0.3,2.2-1,3.1c-0.6,0.9-1.6,1.5-2.7,2C243.3,273.3,244.4,274,245.2,275z M242.2,281.8    c1.2-0.8,1.7-2,1.7-3.4s-0.6-2.6-1.7-3.4c-1.2-0.8-2.8-1.2-4.8-1.2c-2,0-3.6,0.4-4.8,1.2c-1.2,0.8-1.7,2-1.7,3.4    c0,1.5,0.6,2.6,1.7,3.4c1.1,0.8,2.7,1.2,4.8,1.2C239.4,283.1,241,282.7,242.2,281.8z M233.2,270.8c1,0.7,2.4,1.1,4.2,1.1    c1.8,0,3.2-0.4,4.2-1.1c1-0.7,1.5-1.8,1.5-3c0-1.3-0.5-2.3-1.6-3.1c-1-0.7-2.4-1.1-4.2-1.1c-1.8,0-3.2,0.4-4.2,1.1    c-1,0.8-1.5,1.8-1.5,3C231.7,269,232.2,270,233.2,270.8z"></path>
	</g>
	<g>
		<g>
			<g>
				<path d="M138.7,270.4c-12.6-2.8-24.6-7.3-35.8-13.7c-14.5-8.2-26.9-18.8-37.5-31.6c-10.4-12.7-18.3-26.8-23.7-42.3      c-4-11.6-6.3-23.5-7.2-35.8c-1-13.4-0.1-26.7,2.8-39.7c1.8-8,4.6-15.9,7.5-23.7c4-10.8,10-20.5,16.8-29.8      c7-9.5,15.3-17.7,24.4-25.1c1.9-1.5,3.8-2.9,6.5-2.9c1.5,0,3-0.6,4.4-1.2c7.5-2.8,13-8,17.2-14.6c1.5-2.3,2.2-5.1,3.1-7.7      c0.3-1.1,0-2.2-1.6-1.6C110.3,2.4,105,4,99.7,5.8c-4.3,1.4-8.6,3.2-10.5,7.7c-1.4,3.2-2.1,6.8-2.7,10.2c-0.3,1.7-1,2.9-2.3,4      C67.5,40.9,54.7,57.3,45.6,76.5c-6.9,14.5-11,29.8-12.7,45.9c-1.8,17.1-0.4,34,3.8,50.6c3.1,12.3,8,24,14.4,35.1      C62.4,227.3,77.4,243,96.2,255c8.2,5.2,16.8,9.7,26.1,12.7c7,2.2,14.2,3.8,21.3,5.4l0.4-1.6      C142.2,271.1,140.4,270.8,138.7,270.4z"></path>
			</g>
			<g>
				<path d="M107.8,223.3c-2-1.8-4.4-3.1-6.8-4.3c-1.9-1-2.7-0.2-2.4,2c0.2,1.2,0.4,2.3,0.5,3.5c0.8,6.8,1.5,13.6,2.5,20.3      c0.6,3.9,2.5,7.4,6,9.5c3.3,1.9,6.8,3.4,10.3,4.9c2.4,1.1,3.1,0.6,3.7-2c0.1-0.5,0.2-1.1,0.2-1.7c0.1,0-0.1,0,0,0      c0.4-2.7,0.2-5.9-0.3-8.7C119.7,237.2,114.8,229.6,107.8,223.3z"></path>
			</g>
			<g>
				<path d="M93,259.1c2-2.5,2-2.8-0.7-4.4c-0.9-0.5-1.8-1.1-2.7-1.6c-6.9-3.6-13.6-4.2-20.3,0.5c-3.9,2.8-7.8,5.6-11.8,8.3      c-2.1,1.5-7.6,3-7.1,4.8c0.2,1,2.4,1.5,3.4,1.9c5,2,10.2,2.3,15.5,1.8C78.5,269.5,86.9,266.6,93,259.1z"></path>
			</g>
			<g>
				<path d="M115.6,267.3c-3.6-1.1-7.2-2-10.8-2.9c0,0.2,0-0.2,0,0c-5-0.3-9,2.4-12.4,5.9c-4.5,4.6-8.5,8.2-12.9,12.9      c-0.6,0.6-2.8,2.4-1.8,3.2c1,1,1.3,0.9,2.3,1.2c0.4,0.2,1,0.2,1.4,0.2c6,0.7,11.8-0.2,17.4-2.4c7.7-3.1,14.3-7.5,17.8-15.5      C117.3,268.5,116.9,267.7,115.6,267.3z"></path>
			</g>
			<g>
				<path d="M87.2,240.4c1.1,0.7,2.1,0.4,2.6-1c1.6-4,2.3-8.2,1.7-12.5c-1-7.6-2.6-15.9-8.2-21.2c-3-2.8-2.9-2.7-6.2-4.5      c-2.3-1.1-2.3,0.2-2.3,0.4c-0.3,7.4-0.7,14.9-0.8,22.3c-0.1,4,1.2,7.8,4.4,10.5C81.1,236.6,84.2,238.5,87.2,240.4z"></path>
			</g>
			<g>
				<path d="M41.5,203.3c1.7-0.9,1.9-1.9,0.9-3.3c-1.5-2.1-3-4.2-4.7-6.1c-3.2-3.4-7.2-5.2-14.3-4.8c-4.1,0.6-10.5,1.6-16.9,2.6      c-1.3,0.2-3.3,0.4-3.7,1c-0.5,1.2,1.3,2.6,2.2,3.6c6.9,6.4,15.3,9.3,24.6,9.6C33.7,206,37.7,205.3,41.5,203.3z"></path>
			</g>
			<g>
				<path d="M12.8,176c5.1,4,10.8,6.6,15.9,6.8c5.3,0,5.5-0.1,4.8-3.9c-0.3-1.4-0.5-2.8-0.8-4.1c-1.2-4.9-3.6-9.1-8.5-11.2      c-2.7-1.2-5.7-1.9-8.5-2.8c-4.3-1.3-8.5-2.6-12.8-3.8c-2.1-0.6-2.6-0.1-2.1,1.9c0.3,1.1,0.5,2.2,1,3.2C4,167.8,8,172.2,12.8,176      z"></path>
			</g>
			<g>
				<path d="M71.4,243.8c1.3-1,1.6-2,0.2-3.2c-2.2-1.8-4.2-3.8-6.6-5.5c-3.7-2.6-7.9-3.4-12.2-2c-7,2.3-13.8,4.9-20.6,7.4      c-1.3,0.5-1.6,1.4-0.5,2.4c0.4,0.4,1,0.8,1.5,1.2c5.9,4,12.6,5.3,19.4,5.6C59.6,249.5,66,248.1,71.4,243.8z"></path>
			</g>
			<g>
				<path d="M40.7,228.6c5.6-0.4,10.8-2,15.2-5.6c1.4-1.1,1.7-2.1,0.2-3.4c-1-0.9-1.9-1.9-2.8-2.8c-5.5-4.9-11.7-6.4-18.7-3.7      c-5.2,2-10.4,3.9-15.6,5.9c-1.2,0.5-1.3,0.8-1.9,1.8c-0.2,1.4,0.3,2,1.4,2.7c5.8,3.7,12.3,5.1,19.1,5      C38.7,228.6,39.7,228.7,40.7,228.6z"></path>
			</g>
			<g>
				<path d="M46.5,183.2c1.7-0.9,3.5-1.8,4.9-3.1c8.2-7.9,11.2-17.8,10.7-29c-0.1-2.1-0.7-7.6-2.3-6.3c-5.2,5.7-10.2,11.1-15.1,16.7      c-1.2,1.4-2,3.3-2.6,5.1c-1.9,5.7,0.3,10.8,2.5,15.9C44.8,183,46.1,183.5,46.5,183.2z"></path>
			</g>
			<g>
				<path d="M36.9,149.2c1.2,5.1,1.6,5.4,6.1,2.8c11-6.4,15.3-16.7,16.4-28.8c0-1.1,0.1-2.2,0-3.3c-0.3-2.1-1.3-2.4-2.9-1.1      c-3.2,2.7-6.4,5.3-9.7,8c-1,0.8-2.1,1.7-3.1,2.4C36.6,134.3,35.1,141.2,36.9,149.2z"></path>
			</g>
			<g>
				<path d="M64.9,211c0.3-0.4,0.7-0.9,1-1.4c3.2-5,4.5-10.6,4.6-16.5c-0.4-2.8-0.4-5.8-1.2-8.4c-1-3.3-2.5-6.5-4.1-9.5      c-0.9-1.7-1.9-1.4-2.7,0.5c-1.1,2.6-2.2,5.3-3.3,7.9c-1.2,2.7-2.3,5.4-3.5,8c-3.3,7.6-1,14,4.3,19.7      C62.1,213.7,62.9,213.6,64.9,211z"></path>
			</g>
			<g>
				<path d="M22.1,155.5c4.8,1.4,5.2,1.1,5.1-3.8c0-0.2,0-0.4,0-0.6c0.1-6.2-1.5-11.7-7.4-14.9c-6-3.2-12.2-6.1-18.4-9.1      C1.2,127,0.3,127,0.1,128c-0.2,0.9-0.1,1.8,0.1,2.7c0.7,4.7,2.8,8.8,5.5,12.5C9.9,148.9,15,153.5,22.1,155.5z"></path>
			</g>
			<g>
				<path d="M11.5,122.6c3.2,4.3,7.1,7.8,12.5,9.3c1.7,0.5,2.6-0.1,2.9-1.7c0.3-2.1,0.5-4.3,0.8-6.4c-0.1-4.9-1.8-9-5.9-11.9      c-4.3-3.1-8.6-6.1-13-9.1c-1-0.7-2.2-1.2-3.2-1.2c-1.1,0.2-0.8,1.5-0.7,3.2c0,0.3,0,0.6,0,0.8C5.3,112,7.7,117.6,11.5,122.6z"></path>
			</g>
			<g>
				<path d="M27.1,108c1.3,0.7,2.7,1,3.3-0.7c1-3,1.7-6,2.6-9.3c0.7-3.3-0.9-4.6-2.2-6.2c-4.6-5.4-9.5-10.5-14.4-15.7      c-0.9-1-1.7-0.4-1.9,0.7c-0.3,2.3-0.8,4.7-0.7,7c0.3,5.2,1.7,10.2,4.3,14.8C20.2,102.6,23,105.9,27.1,108z"></path>
			</g>
			<g>
				<path d="M48.1,96.4c6.3-1.3,10.9-5.1,14.6-10.1c2.4-3.2,4.5-6.7,4.9-10.9c0.2-2.1-0.5-2.6-2.4-1.7c-3.9,1.7-7.8,3.4-11.7,5.2      c-3.2,1.4-6.4,3.1-7.7,6.6c-0.9,2.4-1.3,5.1-2,7.6C44.1,96.6,44.7,97.1,48.1,96.4z"></path>
			</g>
			<g>
				<path d="M38.6,115.3c0,1.1,0,1.8,0,2.4c0.1,3.9,0.7,4.3,4.4,2.9c7.7-2.8,12.3-8.6,15.3-15.9c0.9-2.3,1.3-5,1.6-7.5      c0.2-1.6-0.7-2.1-2-1.4c-4,2.4-8,4.8-12,7.1C40.9,105.9,38.2,110,38.6,115.3z"></path>
			</g>
			<g>
				<path d="M35.2,83.7c1.3,0.8,2.1,0.5,2.7-0.7c0.6-1.1,1-2.3,1.5-3.5c1.8-5.1,1.6-10-3.1-14.2c-3.2-2.9-5.7-6.4-8.1-10      c-0.9-1.4-1.9-1-2.2,0.2c-0.4,1.1-0.6,2.3-0.9,3.4c-0.2,0.9-0.4,1.9-0.3,2.8c0.1,4.5,1,8.8,2.9,12.8      C29.2,78.4,31.6,81.5,35.2,83.7z"></path>
			</g>
			<g>
				<path d="M50.1,62.5c3-3.9,4.2-8.2,2.3-12.9c-2-4.9-4.2-9.7-6.3-14.6c-0.1-0.3-0.3-1.2-0.9-1c-0.5,0-1.6,1.8-2,2.7      c-4.1,8.4-4.4,16.9,0,25.3C45.8,67.1,46.7,67,50.1,62.5z"></path>
			</g>
			<g>
				<path d="M62,46c1-1.3,2-2.5,2.9-3.8c1.7-2.8,2.8-5.9,1.5-9.2c-2-5.1-4.1-10-6.2-15c-0.5-1.1-1.4-1.1-2.1-0.2      c-0.4,0.5-0.8,1.1-1.1,1.7c-1.9,3.7-2.7,7.7-2.6,11.7c-0.1,5.6,1.1,10.6,4.7,14.8C60,47.3,60.9,47.4,62,46z"></path>
			</g>
			<g>
				<path d="M74.4,29.6c6.2-4.1,8.4-7.6,7.4-14.1c-0.5-3.4-1.3-6.7-2-10c-0.3-1.6-0.5-3.3-0.8-4.9c0-0.5-1.1-0.4-1.6-0.1      c-0.9,0.7-0.9,1-1.6,1.9c-4.1,5.1-6,11.1-6,17.6c0,3.2,0.7,6.2,2.3,9C72.7,30.2,73.4,30.3,74.4,29.6z"></path>
			</g>
			<g>
				<path d="M99,36.3c0.3-0.6,0.5-1.5,0.2-1.9c-0.1-0.2-1.1-0.3-1.7-0.3c-4,0.4-7.9,0.8-11.9,1.2c-5.5,0.5-9.3,3.2-11.2,8.6      c-1.6,4.5-1.2,5.1,3.7,5.1c4.5,0,8.5-1.5,12.2-3.8C93.9,42.9,97,40.2,99,36.3z"></path>
			</g>
			<g>
				<path d="M82,55.5c0.3-0.6,0.6-1.3,0.2-2c-0.2-0.5-1.3-0.3-2-0.2c-3.2,0.6-6.4,1.5-9.6,2c-6.7,1-11.2,4.2-12.7,11.1      c-0.7,3.1-0.2,3.7,3.2,4.2c2.7,0,5.8-1.4,8.5-2.7C75.1,65.3,79.5,61.2,82,55.5z"></path>
			</g>
		</g>
		<g>
			<g>
				<path d="M283.8,270.4c12.6-2.8,24.6-7.3,35.8-13.7c14.5-8.2,26.9-18.8,37.5-31.6c10.4-12.7,18.3-26.8,23.7-42.3      c4-11.6,6.3-23.5,7.2-35.8c1-13.4,0.1-26.7-2.8-39.7c-1.8-8-4.6-15.9-7.5-23.7c-4-10.8-10-20.5-16.8-29.8      c-7-9.5-15.3-17.7-24.4-25.1c-1.9-1.5-3.8-2.9-6.5-2.9c-1.5,0-3-0.6-4.4-1.2c-7.5-2.8-13-8-17.2-14.6c-1.5-2.3-2.2-5.1-3.1-7.7      c-0.3-1.1,0-2.2,1.6-1.6c5.3,1.7,10.6,3.4,15.9,5.2c4.3,1.4,8.6,3.2,10.5,7.7c1.4,3.2,2.1,6.8,2.7,10.2c0.3,1.7,1,2.9,2.3,4      c16.7,13.2,29.5,29.6,38.5,48.8c6.9,14.5,11,29.8,12.7,45.9c1.8,17.1,0.4,34-3.8,50.6c-3.1,12.3-8,24-14.4,35.1      c-11.2,19.3-26.2,34.9-45.1,46.9c-8.2,5.2-16.8,9.7-26.1,12.7c-7,2.2-14.2,3.8-21.3,5.4l-0.4-1.6      C280.2,271.1,282,270.8,283.8,270.4z"></path>
			</g>
			<g>
				<path d="M314.7,223.3c2-1.8,4.4-3.1,6.8-4.3c1.9-1,2.7-0.2,2.4,2c-0.2,1.2-0.4,2.3-0.5,3.5c-0.8,6.8-1.5,13.6-2.5,20.3      c-0.6,3.9-2.5,7.4-6,9.5c-3.3,1.9-6.8,3.4-10.3,4.9c-2.4,1.1-3.1,0.6-3.7-2c-0.1-0.5-0.2-1.1-0.2-1.7c-0.1,0,0.1,0,0,0      c-0.4-2.7-0.2-5.9,0.3-8.7C302.7,237.2,307.7,229.6,314.7,223.3z"></path>
			</g>
			<g>
				<path d="M329.5,259.1c-2-2.5-2-2.8,0.7-4.4c0.9-0.5,1.8-1.1,2.7-1.6c6.9-3.6,13.6-4.2,20.3,0.5c3.9,2.8,7.8,5.6,11.8,8.3      c2.1,1.5,7.6,3,7.1,4.8c-0.2,1-2.4,1.5-3.4,1.9c-5,2-10.2,2.3-15.5,1.8C343.9,269.5,335.6,266.6,329.5,259.1z"></path>
			</g>
			<g>
				<path d="M306.8,267.3c3.6-1.1,7.2-2,10.8-2.9c0,0.2,0-0.2,0,0c5-0.3,9,2.4,12.4,5.9c4.5,4.6,8.5,8.2,12.9,12.9      c0.6,0.6,2.8,2.4,1.8,3.2c-1,1-1.3,0.9-2.3,1.2c-0.4,0.2-1,0.2-1.4,0.2c-6,0.7-11.8-0.2-17.4-2.4c-7.7-3.1-14.3-7.5-17.8-15.5      C305.2,268.5,305.6,267.7,306.8,267.3z"></path>
			</g>
			<g>
				<path d="M335.3,240.4c-1.1,0.7-2.1,0.4-2.6-1c-1.6-4-2.3-8.2-1.7-12.5c1-7.6,2.6-15.9,8.2-21.2c3-2.8,2.9-2.7,6.2-4.5      c2.3-1.1,2.3,0.2,2.3,0.4c0.3,7.4,0.7,14.9,0.8,22.3c0.1,4-1.2,7.8-4.4,10.5C341.3,236.6,338.3,238.5,335.3,240.4z"></path>
			</g>
			<g>
				<path d="M380.9,203.3c-1.7-0.9-1.9-1.9-0.9-3.3c1.5-2.1,3-4.2,4.7-6.1c3.2-3.4,7.2-5.2,14.3-4.8c4.1,0.6,10.5,1.6,16.9,2.6      c1.3,0.2,3.3,0.4,3.7,1c0.5,1.2-1.3,2.6-2.2,3.6c-6.9,6.4-15.3,9.3-24.6,9.6C388.7,206,384.7,205.3,380.9,203.3z"></path>
			</g>
			<g>
				<path d="M409.7,176c-5.1,4-10.8,6.6-15.9,6.8c-5.3,0-5.5-0.1-4.8-3.9c0.3-1.4,0.5-2.8,0.8-4.1c1.2-4.9,3.6-9.1,8.5-11.2      c2.7-1.2,5.7-1.9,8.5-2.8c4.3-1.3,8.5-2.6,12.8-3.8c2.1-0.6,2.6-0.1,2.1,1.9c-0.3,1.1-0.5,2.2-1,3.2      C418.4,167.8,414.4,172.2,409.7,176z"></path>
			</g>
			<g>
				<path d="M351,243.8c-1.3-1-1.6-2-0.2-3.2c2.2-1.8,4.2-3.8,6.6-5.5c3.7-2.6,7.9-3.4,12.2-2c7,2.3,13.8,4.9,20.6,7.4      c1.3,0.5,1.6,1.4,0.5,2.4c-0.4,0.4-1,0.8-1.5,1.2c-5.9,4-12.6,5.3-19.4,5.6C362.8,249.5,356.5,248.1,351,243.8z"></path>
			</g>
			<g>
				<path d="M381.7,228.6c-5.6-0.4-10.8-2-15.2-5.6c-1.4-1.1-1.7-2.1-0.2-3.4c1-0.9,1.9-1.9,2.8-2.8c5.5-4.9,11.7-6.4,18.7-3.7      c5.2,2,10.4,3.9,15.6,5.9c1.2,0.5,1.3,0.8,1.9,1.8c0.2,1.4-0.3,2-1.4,2.7c-5.8,3.7-12.3,5.1-19.1,5      C383.8,228.6,382.7,228.7,381.7,228.6z"></path>
			</g>
			<g>
				<path d="M375.9,183.2c-1.7-0.9-3.5-1.8-4.9-3.1c-8.2-7.9-11.2-17.8-10.7-29c0.1-2.1,0.7-7.6,2.3-6.3      c5.2,5.7,10.2,11.1,15.1,16.7c1.2,1.4,2,3.3,2.6,5.1c1.9,5.7-0.3,10.8-2.5,15.9C377.7,183,376.4,183.5,375.9,183.2z"></path>
			</g>
			<g>
				<path d="M385.5,149.2c-1.2,5.1-1.6,5.4-6.1,2.8c-11-6.4-15.3-16.7-16.4-28.8c0-1.1-0.1-2.2,0-3.3c0.3-2.1,1.3-2.4,2.9-1.1      c3.2,2.7,6.4,5.3,9.7,8c1,0.8,2.1,1.7,3.1,2.4C385.8,134.3,387.4,141.2,385.5,149.2z"></path>
			</g>
			<g>
				<path d="M357.5,211c-0.3-0.4-0.7-0.9-1-1.4c-3.2-5-4.5-10.6-4.6-16.5c0.4-2.8,0.4-5.8,1.2-8.4c1-3.3,2.5-6.5,4.1-9.5      c0.9-1.7,1.9-1.4,2.7,0.5c1.1,2.6,2.2,5.3,3.3,7.9c1.2,2.7,2.3,5.4,3.5,8c3.3,7.6,1,14-4.3,19.7      C360.3,213.7,359.5,213.6,357.5,211z"></path>
			</g>
			<g>
				<path d="M400.4,155.5c-4.8,1.4-5.2,1.1-5.1-3.8c0-0.2,0-0.4,0-0.6c-0.1-6.2,1.5-11.7,7.4-14.9c6-3.2,12.2-6.1,18.4-9.1      c0.3-0.1,1.1-0.1,1.4,0.8c0.2,0.9,0.1,1.8-0.1,2.7c-0.7,4.7-2.8,8.8-5.5,12.5C412.6,148.9,407.4,153.5,400.4,155.5z"></path>
			</g>
			<g>
				<path d="M411,122.6c-3.2,4.3-7.1,7.8-12.5,9.3c-1.7,0.5-2.6-0.1-2.9-1.7c-0.3-2.1-0.5-4.3-0.8-6.4c0.1-4.9,1.8-9,5.9-11.9      c4.3-3.1,8.6-6.1,13-9.1c1-0.7,2.2-1.2,3.2-1.2c1.1,0.2,0.7,1.5,0.7,3.2c0,0.3,0,0.6,0,0.8C417.1,112,414.7,117.6,411,122.6z"></path>
			</g>
			<g>
				<path d="M395.4,108c-1.3,0.7-2.7,1-3.3-0.7c-1-3-1.7-6-2.6-9.3c-0.7-3.3,0.9-4.6,2.2-6.2c4.6-5.4,9.5-10.5,14.4-15.7      c0.9-1,1.7-0.4,1.9,0.7c0.3,2.3,0.8,4.7,0.7,7c-0.3,5.2-1.7,10.2-4.3,14.8C402.3,102.6,399.4,105.9,395.4,108z"></path>
			</g>
			<g>
				<path d="M374.3,96.4c-6.3-1.3-10.9-5.1-14.6-10.1c-2.4-3.2-4.5-6.7-4.9-10.9c-0.2-2.1,0.5-2.6,2.4-1.7c3.9,1.7,7.8,3.4,11.7,5.2      c3.2,1.4,6.4,3.1,7.7,6.6c0.9,2.4,1.3,5.1,2,7.6C378.3,96.6,377.7,97.1,374.3,96.4z"></path>
			</g>
			<g>
				<path d="M383.9,115.3c0,1.1,0,1.8,0,2.4c-0.1,3.9-0.7,4.3-4.4,2.9c-7.7-2.8-12.3-8.6-15.3-15.9c-0.9-2.3-1.3-5-1.6-7.5      c-0.2-1.6,0.7-2.1,2-1.4c4,2.4,8,4.8,12,7.1C381.6,105.9,384.3,110,383.9,115.3z"></path>
			</g>
			<g>
				<path d="M387.2,83.7c-1.3,0.8-2.1,0.5-2.7-0.7c-0.6-1.1-1-2.3-1.5-3.5c-1.8-5.1-1.6-10,3.1-14.2c3.2-2.9,5.7-6.4,8.1-10      c0.9-1.4,1.9-1,2.2,0.2c0.4,1.1,0.6,2.3,0.9,3.4c0.2,0.9,0.4,1.9,0.3,2.8c-0.1,4.5-1,8.8-2.9,12.8      C393.3,78.4,390.8,81.5,387.2,83.7z"></path>
			</g>
			<g>
				<path d="M372.4,62.5c-3-3.9-4.2-8.2-2.3-12.9c2-4.9,4.2-9.7,6.3-14.6c0.1-0.3,0.3-1.2,0.9-1c0.5,0,1.6,1.8,2,2.7      c4.1,8.4,4.4,16.9,0,25.3C376.7,67.1,375.8,67,372.4,62.5z"></path>
			</g>
			<g>
				<path d="M360.5,46c-1-1.3-2-2.5-2.9-3.8c-1.7-2.8-2.8-5.9-1.5-9.2c2-5.1,4.1-10,6.2-15c0.5-1.1,1.4-1.1,2.1-0.2      c0.4,0.5,0.8,1.1,1.1,1.7c1.9,3.7,2.7,7.7,2.6,11.7c0.1,5.6-1.1,10.6-4.7,14.8C362.5,47.3,361.5,47.4,360.5,46z"></path>
			</g>
			<g>
				<path d="M348,29.6c-6.2-4.1-8.4-7.6-7.4-14.1c0.5-3.4,1.3-6.7,2-10c0.3-1.6,0.5-3.3,0.8-4.9c0-0.5,1.1-0.4,1.6-0.1      c0.9,0.7,0.9,1,1.6,1.9c4.1,5.1,6,11.1,6,17.6c0,3.2-0.7,6.2-2.3,9C349.7,30.2,349,30.3,348,29.6z"></path>
			</g>
			<g>
				<path d="M323.5,36.3c-0.3-0.6-0.5-1.5-0.2-1.9c0.1-0.2,1.1-0.3,1.7-0.3c4,0.4,7.9,0.8,11.9,1.2c5.5,0.5,9.3,3.2,11.2,8.6      c1.6,4.5,1.2,5.1-3.7,5.1c-4.5,0-8.5-1.5-12.2-3.8C328.5,42.9,325.4,40.2,323.5,36.3z"></path>
			</g>
			<g>
				<path d="M340.5,55.5c-0.3-0.6-0.6-1.3-0.2-2c0.2-0.5,1.3-0.3,2-0.2c3.2,0.6,6.4,1.5,9.6,2c6.7,1,11.2,4.2,12.7,11.1      c0.7,3.1,0.2,3.7-3.2,4.2c-2.7,0-5.8-1.4-8.5-2.7C347.4,65.3,343,61.2,340.5,55.5z"></path>
			</g>
		</g>
	</g>
	<g>
		<g>
			<path d="M144,148.7c3.7,0.9,7.4,1,11.2,0.1c3.2-0.8,6.3-1.7,9.1-3.6c3.8-2.6,6.4-6.2,7.7-10.6c1.6-5.1,1.3-10.3-0.8-15.2     c-2.1-4.8-4.4-9.5-6.7-14.2c-2.2-4.5-4.4-8.9-5.6-13.8c-1.2-4.8-0.9-9.4,2-13.6c1.7-2.4,4.3-4.5,7.3-3.1c1.6,0.8,2,2.2,2.6,3.6     c0.3,0.8,0,1.2-0.7,1.4c-3.3,0.9-5.8,3-7.7,5.7c-2.1,2.9-1.4,7.9,1.2,9.4c2.7,1.5,5.6,1.7,8.4,0.4c4.1-1.9,5.7-5.4,6.5-9.5     c0.2-0.9,0.4-1.3,1.5-1.1c5.3,1.4,10.6,2.7,15.9,4c3.6,0.9,7.2,2,10.8,2.7c3.5,0.7,7,1,10.6,1.5c2.4-0.2,4.8-0.3,7.1-0.7     c4.6-0.7,9-2.1,11.9-6c2.1-2.8,2.8-7.6,0.6-10.8c-2.3-3.5-5.8-5.2-9.7-6.3c-0.9-0.2-1.3,0.2-1.4,1c-0.1,2.2-1.3,3.9-2.7,5.4     c-3.5,3.7-8,5.5-12.9,5.4c-6.2-0.1-12.5-0.8-18.7-1.2c-3.9-0.3-7.9-0.6-11.8-0.9c-0.8,0-1.1-0.3-1.3-1c-0.9-2.2-1.6-4.6-2.8-6.6     c-2-3.2-4.9-5.5-8.8-6c-3.3-0.4-6.4,0.1-9.4,1.6c-6.9,3.3-10.3,9-11,16.5c-0.4,4.1,1,8,2.6,11.6c2.6,5.7,5.7,11.2,8.3,16.8     c1.5,3.1,2.7,6.4,3.6,9.7c1,3.9,0.9,7.9-0.4,11.8c-2,6.6-7.7,9.8-14.3,7.8c-2.1-0.6-3.8-1.8-4.8-3.7c-1.6-3.1-1.6-6.4-0.7-9.8     c0.2-0.9,0.8-1.8,1.3-2.5c0.8-1.1,2.8-1.2,3.8-0.5c1.2,0.9,1.4,2.2,0.4,3.6c-0.3,0.4-0.7,0.6-0.9,1c-0.2,0.4-0.5,1-0.3,1.3     c0.6,0.8,1.2,1.8,2.1,2.3c1.4,0.7,3,1.2,4.6,1.5c3.1,0.7,4.6-1.5,5.5-3.5c1.9-4.5,1.5-8.9-0.2-13.3c-0.9-2.3-2.3-4.2-4.4-5.6     c-2.7-1.9-5.8-2.3-9-2c-3.5,0.3-6.5,1.6-9,4c-4,3.7-5.9,8.5-6.8,13.8c-0.9,4.9,0.8,9.2,3.7,13C134.6,144.8,138.9,147.4,144,148.7     z M168.8,88.5c-0.3,0.2-1,0-1.5,0c0.1-0.6-0.1-1.3,0.2-1.6c0.8-0.8,1.8-1.3,2.7-2c0.1,0.1,0.2,0.2,0.4,0.3     C170.4,86.6,169.8,87.7,168.8,88.5z"></path>
		</g>
		<g>
			<path d="M235.2,95c0.2,1.3,0.9,2.6,1.2,4c0.2,0.8,0.2,1.8,0,2.6c-1.2,3.8-2.5,7.5-3.9,11.2c-0.5,1.2-1.2,2.4-1.9,3.5     c-0.1,0.2-0.6,0.5-0.8,0.4c-0.3-0.1-0.5-0.5-0.6-0.8c-0.1-0.4-0.1-0.8-0.1-1.2c0.1-3.4,0.2-6.9,0.3-10.3c0-1.9-0.7-2.7-2.7-2.6     c-2.1,0-4.2,1.4-4.6,3.6c-0.4,1.9-0.5,4-0.5,6c0,2.2-0.9,3.8-2.5,5c-0.7,0.5-1.8,0.9-2.5,0.6c-0.7-0.3-1.2-1.4-1.3-2.2     c-0.5-2.1,0-4.2,0.8-6.1c1.4-3.7,3.5-6.8,7.4-8.2c1.2-0.5,2.6-0.6,3.9-0.9c0.6-0.1,1.2-0.3,0.9-1.1c-1-2.6-4.6-4.9-7.5-4.5     c-2.5,0.4-4.4,1.7-6.2,3.3c-4.1,3.7-6.6,8.4-6.9,14c-0.2,3.7,0,7.4,2.9,10.3c1.7,1.7,4.1,2.1,6.1,0.7c0.8-0.6,1.6-1.2,2.3-1.9     c0.8-0.8,1.5-1.7,2.3-2.6c0.2,0.1,0.3,0.2,0.5,0.2c0.1,0.4,0.2,0.7,0.2,1.1c0.3,2.7,2.6,4.3,5.2,4c2.5-0.2,3.9-1.6,5-3.5     c2.5-4.3,4.5-8.8,5.9-13.6c0.2-0.5,0.5-0.9,0.9-1.5c0.8,1.6,1.5,2.9,2,4.2c0.2,0.4,0.1,1.1-0.1,1.5c-1.3,2.1-2.8,4-4.2,6.1     c-1.2,1.9-2.1,3.9-2,6.2c0.2,2.3,0.8,4.5,3,5.5c6.7,2.9,12.2-0.5,13.2-7.4c0.7-4.6-0.2-9.1-2.4-13.2c-0.4-0.7-0.2-1.2,0.3-1.8     c1.1-1.2,2.1-2.4,3.1-3.6c0.7-0.7,1.4-1.4,2.2-2.3c0.1,0.5,0.2,0.8,0.2,1c-0.2,5.8-0.4,11.6-0.6,17.4c0,0.9,0.2,1.9,0.6,2.8     c0.7,2,5.4,2.8,6.8,1.3c0.3-0.4,0.5-1,0.6-1.5c0.1-0.7,0.1-1.5,0.1-2.3c0-2.9,0.1-5.7,1.3-8.3c0.8-1.7,1.7-3.3,2.7-4.9     c0.2-0.3,0.8-0.5,1.1-0.4c0.3,0.1,0.7,0.6,0.8,0.9c0.1,0.3,0.1,0.7,0.1,1.1c-0.6,4.5-1.1,9.1-1.7,13.6c-0.2,1.9-0.5,3.8-0.8,5.7     c-0.3,2-0.7,4-0.9,6c-0.3,3-0.8,6.1-0.7,9.1c0.1,4.1,2.4,7.4,7.4,7.7c1.7,0.1,3.5,0.2,5.1-0.3c2.1-0.6,4.3-1.6,6-2.9     c3.8-2.8,6-6.9,7.5-11.3c2.2-6.3,2.3-12.8,1.5-19.3c-0.5-4.6-1.5-9.1-2.8-13.5c-1.1-3.7-2.4-7.4-4.5-10.6c-1.1-1.7-2.4-3.4-4.9-3     c-3.2,0.5-4.6,2.9-5.7,5.6c-0.8,2-0.5,3.9,1.3,5.4c0.2,0.2,0.4,0.5,0.6,0.7c3.3,3.6,5.6,7.8,7.1,12.4c1,3.2,1.4,6.6,1.8,9.9     c0.6,4.9,0.2,9.8-1.6,14.5c-1.4,3.8-3.4,7.2-7,9.4c-1.6,1-3.4,0.6-3.9-1.3c-0.4-1.7-0.7-3.5-0.5-5.2c0.5-4.6,1.3-9.1,1.9-13.7     c0.7-4.5,1.5-8.9,2.1-13.4c0.4-2.6,0.7-5.2,0.7-7.9c0.1-4.8-4.4-6.2-8.4-4.9c-2.3,0.8-3.3,2.8-4.4,4.7c-0.3,0.5-0.6,1-1.1,1.7     c-0.1-0.5-0.1-0.7-0.1-0.8c0.2-4.2,0.3-8.4,0.5-12.6c0-0.4,0.3-0.8,0.6-1.1c3-3.1,5.5-6.5,6.8-10.7c0.9-2.8,0.9-5.6-0.6-8.3     c-1.8-3.1-6.8-4.5-9.7-2c-3.4,2.9-4.6,6.6-4.8,10.8c-0.2,4-0.2,8-0.2,12c0,1.3-0.3,2.2-1.3,3.2c-2.1,2.1-4.1,4.4-6.4,6.9     c-0.3-1.4-0.7-2.5-0.8-3.7c-0.5-3.3,0.8-6.2,1.8-9.1c0.6-1.8,0.5-3.1-1.1-4.1c-2.1-1.4-4.5-1.6-6.9-0.7     C236.1,87.2,234.6,91.6,235.2,95z M262.6,81.4c0.1-0.7,0.4-1.3,0.8-1.9c0.2-0.3,0.9-0.6,1.2-0.4c0.3,0.2,0.6,0.8,0.6,1.2     c0.1,2.2-0.8,4-1.8,5.9c-0.2,0.3-0.4,0.6-0.7,1.3c-0.2-0.6-0.3-0.8-0.3-1.1C262.4,84.7,262.4,83,262.6,81.4z M243.1,113.5     c1.7,3.3,2.7,6.4,1.5,9.8c-0.2,0.7-0.6,1.4-1,2c-0.9,1.2-2,1-2.7-0.4c-1.2-2.8-0.9-5.5,0.4-8.1     C241.9,115.6,242.5,114.5,243.1,113.5z"></path>
		</g>
		<g>
			<path d="M234.2,187.1c-1.5,0.2-1.7,0.3-1.9,2c-0.1,1.1-0.6,2.2-1,3.2c-0.1,0.3-0.7,0.7-1,0.7c-0.3-0.1-0.7-0.5-0.9-0.9     c-0.2-0.4-0.2-0.9-0.2-1.4c0-2.1-0.1-4.2,0-6.3c0.1-1.8-0.6-3.2-2-4.3c-1.1-0.8-2.3-1.5-3.6-2c-1.2-0.5-2.5-0.7-4.1-1.1     c1.9-0.6,3.6-1,5.1-1.7c3.3-1.4,5.3-4,5.7-7.5c0.4-3.8-0.8-7-4.2-9.2c-3.4-2.2-7.3-3-11.2-3.2c-4.7-0.2-9.5-0.2-14.2-0.2     c-2.1,0-4.2,0-6.3,0c-0.9,0-1.3,0.7-1.3,1.4c0,0.3,0.8,0.7,1.2,0.9c0.3,0.1,0.7,0.1,1,0c1.1-0.1,1.5,0.3,1.5,1.5     c-0.1,11.1-0.1,22.3-0.1,33.4c0,1.9-0.2,2.2-2.1,1.9c-1.1-0.1-1.6,0.2-1.6,1.2c0,1,0.7,1.1,1.6,1.1c3.2,0,6.4,0,9.6,0     c2.6,0,5.2,0,7.8,0c0.3,0,1-0.5,1-0.8c0-0.5-0.3-1.1-0.7-1.3c-0.4-0.3-1.1-0.2-1.6-0.1c-1,0.1-1.2-0.2-1.2-1.2     c0-4.4,0-8.8,0-13.2c0-0.6,0-1.2,0-1.8c2.6-0.5,4.8,1.6,4.8,4.4c0,2.9,0,5.8-0.1,8.7c-0.1,2.4,1.6,4.2,3.5,4.8     c4.3,1.4,8.7,1.3,12.9-0.4c3.3-1.3,4.6-4,4.8-7.1C235.5,187.6,235.4,187,234.2,187.1z M216.4,173.1c-1.8,1.3-3.9,1.8-6.1,1.9     c-0.8,0.1-0.9-0.5-0.9-1.1c0-2.6,0-5.1,0-7.7c0,0,0,0,0,0c0-2.5,0-4.9,0-7.4c0-1.4,0.3-1.5,1.6-1.3c2.4,0.4,4.8,1,6.4,3.1     C220,164,220.3,170.2,216.4,173.1z"></path>
		</g>
		<g>
			<path d="M199.5,122.4c2.2-1.1,3.5-3,4.5-5.2c3-6.2,3.1-12.7,1-19.2c-0.8-2.5-2-5-4.4-6.4c-0.7-0.4-1.9-0.5-2.7-0.2     c-1.8,0.8-2.5,2.5-2.8,4.3c-0.2,1.5,1,2.1,1.9,2.8c3.2,2.4,5,5.4,4.7,9.5c-0.2,2.8-0.8,5.5-2.1,8.1c-0.5,1-1.4,1.2-1.9,0.3     c-0.6-1-1.3-2.3-1.3-3.4c-0.1-3.8,0.1-7.6,0.3-11.3c0.1-2-1-3.7-3.3-3.3c-0.7,0.1-1.5,0-2.3,0c-1.1,0-2,1-2.1,2     c0,1.8,0,3.5,0,5.3c-0.1,2.9-0.2,5.9-0.3,8.8c-0.1,1.3-1.3,2.6-2.1,2.6c-1-0.1-1.8-1.4-1.9-2.8c0-0.2,0-0.4,0-0.6     c0-1.8,0-3.7,0-5.5c0.1,0,0.2,0,0.3,0c0-2,0-3.9,0-5.9c0-1.9-0.7-3.7-2.5-4.6c-1.4-0.7-3-1.3-4.5-1.6c-5.2-1-11,1.1-12.2,8     c-0.4,2,0.8,4.5,2.6,5.2c1.9,0.8,4.4,0.1,5.7-1.5c0.4-0.5,0.3-0.9-0.3-1.3c-0.4-0.3-1-0.8-1-1.3c-0.3-2.1,0.1-4.2,1.5-5.9     c0.7-0.9,2.1-0.7,2.6,0.4c0.3,0.7,0.5,1.5,0.5,2.3c0,2.5-0.2,5-0.2,7.6c-0.1,3.4-0.1,6.9-0.1,10.3c0,1.6,2.1,3.3,3.6,3.5     c3.4,0.4,5.6-1.3,7.7-3.6c0.6-0.7,0.9-0.6,1.4,0.1c0.5,0.7,1,1.3,1.6,1.9C193.4,123.2,197.5,123.4,199.5,122.4z"></path>
		</g>
		<g>
			<path d="M189.5,155.1c-10,0-19.9,0-29.9,0c-1,0-1.3,0.4-1.3,1.2c-0.1,0.9,0.5,1.2,1.3,1.1c0.4,0,0.8,0,1.1,0     c0.9-0.1,1.2,0.2,1.2,1.2c-0.1,4.7,0,9.4,0,14.1c0,2.4,0,2.4-2.4,2.5c-0.2,0-0.4,0-0.6,0c-0.7,0.1-1.2,0.3-1.1,1.2     c0,0.9,0.5,1.2,1.2,1.3c0.5,0,1.1,0,1.6-0.1c1.1-0.2,1.3,0.4,1.3,1.3c0,4.2-0.1,8.5-0.1,12.7c0,2.5,0.1,2.5-2.4,2.6     c-0.8,0-1.4,0.4-1.2,1.2c0.1,0.4,0.8,0.9,1.3,1c0.9,0.1,1.8,0,2.6,0c9.2,0.1,18.4,0.1,27.6,0.2c0.8,0,1.1-0.2,1.1-1     c0-0.9-0.1-1.9,0-2.8c0.1-1.2-0.2-2.2-1.3-2.8c-0.3-0.2-0.7-0.4-0.9-0.3c-0.2,0.1-0.4,0.6-0.4,0.9c0,0.7-0.1,1.4,0,2     c0.2,1.3-0.4,1.6-1.6,1.5c-3.7-0.1-7.4,0-11.1,0c-0.9,0-1.1-0.4-1.1-1.2c0-4.6,0-9.2,0-13.9c0-1.3,0.3-1.6,1.6-1.6     c1.7,0,3.4,0,5.2,0.1c0.8,0,1.3-0.1,1.3-1.1c0-1-0.3-1.4-1.3-1.4c-1.3,0-2.5,0-3.8,0.1c-0.9,0-1.9,0-2.8,0     c-0.1-1-0.2-1.6-0.2-2.3c0-4.8,0-9.6,0-14.3c0-0.8,0.3-1.2,1.2-1.2c1.4,0.1,2.9,0,4.3,0c2.7,0,5.4,0,8.3,0c0,1.4,0,2.6,0,3.8     c0,0.7,0.2,1.3,0.9,0.9c0.9-0.5,1.8-1.2,1.8-2.5c0-1,0-1.9,0-2.9C191,155.7,190.7,155.1,189.5,155.1z"></path>
		</g>
		<g>
			<path d="M291.6,156.8c0-0.8-0.4-1.3-1.3-1.3c-7.3,0-14.7,0-22-0.1c-2.7,0-5.4-0.1-8,0c-0.5,0-1.2,0.5-1.3,0.9     c-0.3,0.8,0.4,1.2,1.1,1.3c0.4,0.1,0.8,0.1,1.1,0c1.2-0.2,1.4,0.3,1.4,1.4c-0.1,4.4-0.1,8.9-0.2,13.3c0,2.8,0,2.8-2.6,2.8     c-0.2,0-0.4-0.1-0.5,0c-0.3,0.4-0.9,0.9-0.9,1.3c0.1,0.5,0.6,1,1.1,1.2c0.4,0.2,1,0.1,1.5,0c1.1-0.1,1.4,0.3,1.4,1.4     c-0.1,4.3-0.1,8.6-0.1,13c0,2.2,0.1,2.2-2,2.2c-0.8,0-1.5,0.1-1.6,1.2c0,1.1,0.8,1,1.5,1.1c0.2,0,0.4,0,0.6,0c3.9,0,7.8,0,11.7,0     c1.7,0,3.4,0.1,5,0c0.4,0,1.1-0.7,1.1-1c-0.1-0.5-0.6-1-1.1-1.3c-0.3-0.2-0.9-0.1-1.4,0c-0.9,0.2-1.1-0.2-1.1-1     c0-4.8,0-9.6,0-14.4c0-1,0.4-1.2,1.3-1.2c1.8,0.1,3.5,0,5.3,0.1c1,0.1,1.4-0.4,1.4-1.3c0-1-0.5-1.3-1.5-1.3     c-1.7,0.1-3.4,0-5.2,0.1c-0.9,0-1.4-0.2-1.4-1.3c0-5.2,0-10.3,0-15.5c0-0.8,0.3-1.1,1.1-1.1c3.6,0.1,7.1,0,10.7,0.1     c1.8,0,1.7,0,1.8,1.7c0,1,0.1,2.1,0.2,3.3c1.9-1.2,2.9-2.5,2.5-4.5C291.4,157.8,291.6,157.3,291.6,156.8z"></path>
		</g>
		<g>
			<path d="M157.3,179.4c-1.4-2.4-3.4-4.1-5.6-5.6c-3-2-6-3.8-8.9-5.8c-1.5-1-2.9-2.2-4.2-3.5c-1.3-1.3-1.3-3.9-0.1-5.3     c1.3-1.6,5-2.4,7.2-1.5c2.5,0.9,3.9,2.8,4.9,5.2c0.2,0.5,0.8,1.2,1.2,1.1c1.2-0.1,2.2-1.7,2.1-2.9c-0.1-1.4,0-2.8,0.1-4.1     c0-0.8,0.2-1.7-1.1-1.8c-1.5-0.1-1.6,0-1.7,1.5c0,0.2-0.1,0.4-0.1,0.8c-1-0.6-1.8-1.2-2.7-1.5c-5.6-1.9-10.8-1.2-15.7,2.2     c-2.1,1.5-3.5,3.5-4.1,5.9c-1.1,4.2,0.5,7.7,3.8,10.3c3,2.3,6.3,4.3,9.5,6.5c2.2,1.5,4.4,3,6.5,4.7c2,1.6,1.3,4.6-0.5,6.1     c-1.4,1.2-3.1,1.8-4.9,2c-2.3,0.2-4.7,0.7-6.9-0.4c-2.5-1.2-4.1-3.2-4.9-5.9c-0.4-1.3-1-1.6-2.5-1.3c-1,0.2-0.9,1-0.9,1.8     c0,2.3,0,4.6,0,6.9c0,0.5,0.1,0.9,0.2,1.6c1.4-1,3.1-1.4,2.9-3.7c1.6,1,2.9,1.9,4.3,2.5c6.6,2.9,16.2,1,21-4.4     C158.1,188.3,159.4,182.8,157.3,179.4z"></path>
		</g>
		<g>
			<path d="M253.6,157.6c0.5,0.1,1.1,0.1,1.5-0.1c0.3-0.2,0.6-0.8,0.6-1.2c0-0.8-0.6-1-1.4-1c-4.1,0-8.2,0-12.3,0c-1.7,0-3.3,0-5,0     c-0.8,0-1.3,0.5-1.1,1.2c0.1,0.4,0.7,0.8,1.1,1c0.4,0.2,0.9,0,1.4,0c0.8,0,1.1,0.3,1.1,1.1c0,11.5,0,23,0,34.5     c0,0.8-0.2,1.3-1.2,1.2c-0.7-0.1-1.4,0.1-2.2,0.1c-0.4,1.8-0.3,2.1,0.8,2.2c3.9,0,7.8,0.1,11.7,0.1c1.9,0,3.9,0.1,5.8,0     c1.2,0,1.8-0.9,1.2-1.7c-0.3-0.4-1.1-0.6-1.7-0.6c-1.6,0-1.7,0-1.7-1.5c0-11.3,0.1-22.5,0-33.8     C252.1,157.8,252.5,157.5,253.6,157.6z"></path>
		</g>
		<g>
			<path d="M231.1,131.4c-1.4-3.7-6.2-4.8-8.7-1.7c-0.6,0.7-0.8,1.3-0.4,2.1c0.5,1,1.3,1.4,2.3,1.3c0.9,0,1.7-0.2,2.1-1.2     c0.1-0.3,0.4-0.6,0.6-0.9c0.3,0.3,0.5,0.6,0.8,0.9c0.2,0.3,0.3,0.7,0.5,1c0.6,1.3-1,3-2.7,3.5c-2.5,0.8-5,0.5-7.5-0.1     c-3.7-0.9-7.1-0.7-10.1,1.6c-2.9,2.1-3.1,5.4-0.5,7.4c2.4,1.9,6.7,1.4,8.8-1c1.2-1.4,0.8-3.4-0.9-4.2c-1.4-0.6-2.7-0.3-3.9,0.5     c-0.3,0.2-0.6,1-0.5,1.4c0.1,0.4,0.7,0.6,1.2,0.8c0.4,0.2,0.9,0.2,1.5,0.3c-1.3,1.1-2.6,1.1-3.7,0.2c-1-0.8-0.8-1.9-0.3-2.7     c0.6-1.2,1.8-1.9,3.2-2c1.8-0.1,3.7,0,5.5,0c1.1,0,1.5,0.6,1.7,1.5c0.1,0.4,0.1,0.9,0.2,1.4c0.4,2-0.1,3.6-1.8,4.9     c-2,1.5-4.2,1.9-6.6,2.1c-2.8,0.1-5.6-0.2-7.8-2.3c-2.3-2.2-2.7-6.3-0.7-8.8c1.6-2,3.6-2.6,6-2.1c0.4,0.1,1-0.5,1.5-0.7     c-0.3-0.3-0.6-0.7-1-1c-0.2-0.1-0.5-0.1-0.7-0.2c-1-0.3-1.7-1.1-1.7-2c0-0.8,0.5-1.8,1.1-2.4c1.2-1.1,2.7-0.3,2.8,1.3     c0.1,1.1,0.9,1.6,1.7,1.7c0.6,0.1,1.4-0.3,1.9-0.8c0.7-0.7,0.7-1.6,0-2.5c-2.3-2.7-7.9-2.7-10.3-0.1c-1.3,1.5-1.2,3.1-0.8,4.9     c-2.3,0.5-4.4,1.4-5.8,3.2c-2.6,3.2-2.1,8.7,0.9,11.6c1.5,1.5,3.4,2.3,5.4,3c4.6,1.4,9.2,1.4,13.6-0.5c3.8-1.6,6.3-5.3,5.1-9.7     c-0.2-0.6-0.4-1.2-0.5-1.7c1.6-0.2,3.1-0.4,4.5-0.7C230.1,138,232.5,135.1,231.1,131.4z"></path>
		</g>
	</g>
</g>
</svg>
