<?xml version="1.0" encoding="UTF-8"?>
<!-- Generator: Adobe Illustrator 24.2.1, SVG Export Plug-In . SVG Version: 6.00 Build 0)  -->
<svg xmlns:serif="http://www.serif.com/" xmlns="http://www.w3.org/2000/svg" xmlns:xlink="http://www.w3.org/1999/xlink" version="1.1" id="Шар_1" x="0px" y="0px" viewBox="0 0 422.8 288" xml:space="preserve">
<g>
	<g>
		<path fill="#212125" d="M108.9,93c1.5-0.2,2.5-0.5,3-1c0.4-0.5,0.7-1.8,0.7-3.8V73.1c0-1.3-0.2-2.2-0.6-2.6    c-0.4-0.4-1.4-0.6-2.9-0.7V69h7.3l8.5,18.5l8.3-18.5h7.4v0.7c-1.4,0.1-2.3,0.3-2.7,0.8c-0.4,0.4-0.6,1.3-0.6,2.6v16.5    c0,1.4,0.2,2.2,0.6,2.6c0.4,0.4,1.3,0.6,2.7,0.8v0.7h-10.4V93c1.5-0.1,2.4-0.4,2.8-0.8c0.4-0.4,0.6-1.4,0.6-3V72.5L124,93.7h-0.5    l-9.4-20.3v14.8c0,2,0.3,3.4,0.9,4c0.4,0.4,1.3,0.7,2.6,0.8v0.7h-8.7V93z"></path>
		<path fill="#212125" d="M146.4,71.8c2.3-2.2,5.1-3.3,8.5-3.3c3.4,0,6.2,1.1,8.5,3.3c2.5,2.4,3.7,5.6,3.7,9.5c0,4-1.3,7.2-3.9,9.6    c-2.3,2.1-5.1,3.2-8.3,3.2c-3.5,0-6.4-1.2-8.7-3.5c-2.3-2.4-3.5-5.5-3.5-9.3C142.7,77.4,143.9,74.2,146.4,71.8z M149.2,90.1    c1.5,1.9,3.4,2.8,5.7,2.8c2.2,0,4.1-0.9,5.6-2.7c1.6-1.8,2.3-4.7,2.3-8.8c0-4.1-0.8-7-2.4-8.8c-1.6-1.8-3.4-2.7-5.6-2.7    c-2.2,0-4.1,0.9-5.7,2.8c-1.5,1.9-2.3,4.8-2.3,8.7C146.9,85.3,147.7,88.2,149.2,90.1z"></path>
		<path fill="#212125" d="M168.9,93c1.4-0.1,2.3-0.4,2.7-0.7c0.4-0.3,0.6-1.2,0.6-2.6V73.1c0-1.3-0.2-2.2-0.6-2.6    c-0.4-0.4-1.3-0.7-2.7-0.8V69h10.5v0.7c-1.4,0.1-2.3,0.3-2.8,0.7c-0.5,0.4-0.7,1.2-0.7,2.4v17.9c0,0.4,0.1,0.7,0.2,1    c0.1,0.2,0.4,0.4,0.9,0.4c0.3,0,0.6,0.1,0.9,0.1c0.3,0,0.9,0,1.7,0c3.3,0,5.6-0.3,6.7-0.8c1.2-0.5,2.3-1.9,3.4-4.2h0.9l-1.8,6.5    h-20V93z"></path>
		<path fill="#212125" d="M196.1,71.8c2.3-2.2,5.1-3.3,8.5-3.3c3.4,0,6.2,1.1,8.5,3.3c2.5,2.4,3.7,5.6,3.7,9.5c0,4-1.3,7.2-3.9,9.6    c-2.3,2.1-5.1,3.2-8.3,3.2c-3.5,0-6.4-1.2-8.7-3.5c-2.3-2.4-3.5-5.5-3.5-9.3C192.3,77.4,193.6,74.2,196.1,71.8z M198.9,90.1    c1.5,1.9,3.4,2.8,5.7,2.8c2.2,0,4.1-0.9,5.6-2.7c1.6-1.8,2.3-4.7,2.3-8.8c0-4.1-0.8-7-2.4-8.8c-1.6-1.8-3.4-2.7-5.6-2.7    c-2.2,0-4.1,0.9-5.7,2.8c-1.5,1.9-2.3,4.8-2.3,8.7C196.5,85.3,197.3,88.2,198.9,90.1z"></path>
		<path fill="#212125" d="M218.7,93c1.4-0.1,2.2-0.4,2.7-0.7c0.4-0.3,0.6-1.2,0.6-2.6V73.1c0-1.4-0.2-2.2-0.6-2.6    c-0.4-0.4-1.3-0.6-2.7-0.7V69h10c3.4,0,6.2,0.6,8.6,1.7c4.2,2,6.3,5.6,6.3,10.7c0,1.9-0.4,3.6-1.1,5.3c-0.8,1.7-1.9,3.1-3.4,4.2    c-1,0.7-2,1.3-3,1.7c-1.9,0.7-4.2,1.1-7,1.1h-10.3V93z M226.2,92c0.3,0.2,0.9,0.3,1.8,0.3c2.9,0,5.3-0.6,7.2-1.7    c2.9-1.8,4.3-4.8,4.3-9.1c0-3.8-1.2-6.7-3.6-8.6c-2-1.7-4.7-2.5-8.1-2.5c-0.8,0-1.4,0.1-1.7,0.3c-0.3,0.2-0.4,0.6-0.4,1.2v18.9    C225.8,91.4,225.9,91.8,226.2,92z"></path>
		<path fill="#212125" d="M245.6,93c1.5-0.1,2.5-0.3,2.9-0.7c0.4-0.3,0.7-1.2,0.7-2.7V73.1c0-1.4-0.2-2.2-0.7-2.6    c-0.5-0.4-1.4-0.6-2.9-0.7V69h11v0.7c-1.5,0.1-2.5,0.3-2.9,0.7c-0.4,0.4-0.7,1.3-0.7,2.6v16.6c0,1.4,0.2,2.3,0.7,2.7    c0.4,0.3,1.4,0.6,2.9,0.7v0.7h-11V93z"></path>
		<path fill="#212125" d="M268.6,69v0.7c-0.9,0-1.5,0-2,0.2c-0.4,0.2-0.7,0.5-0.7,1c0,0.2,0,0.4,0.1,0.6c0.1,0.2,0.2,0.5,0.5,0.9    l5.5,8l5.3-8.2c0.2-0.4,0.4-0.6,0.4-0.9c0.1-0.2,0.1-0.4,0.1-0.5c0-0.5-0.3-0.9-0.9-1.1c-0.3-0.1-0.9-0.2-1.7-0.2V69h8.1v0.7    c-0.8,0-1.4,0.3-2,0.7c-0.9,0.6-2,1.8-3.1,3.6l-5.5,8.4v7.2c0,1.4,0.2,2.3,0.7,2.7c0.5,0.4,1.5,0.6,3.1,0.7v0.7h-11.4V93    c1.7-0.1,2.7-0.3,3.1-0.8c0.4-0.4,0.6-1.4,0.6-3v-6.5l-4.9-7.1c-1.7-2.5-2.9-4-3.5-4.7c-0.7-0.7-1.5-1.1-2.5-1.1V69H268.6z"></path>
		<path fill="#212125" d="M280.7,93.7V93c1-0.1,1.7-0.5,2.2-1.1c0.5-0.6,1.3-2.3,2.5-5l7.8-18.3h0.7l9.3,21.1    c0.6,1.4,1.1,2.3,1.5,2.6c0.4,0.3,1,0.6,1.9,0.7v0.7H297V93c1.1-0.1,1.8-0.2,2.1-0.4c0.3-0.1,0.5-0.5,0.5-1c0-0.2-0.1-0.5-0.2-1    c-0.1-0.5-0.3-0.9-0.5-1.4l-1.5-3.6h-9.8c-1,2.4-1.5,3.9-1.7,4.5c-0.2,0.5-0.3,1-0.3,1.3c0,0.6,0.3,1.1,0.8,1.3    c0.3,0.1,0.9,0.3,1.8,0.3v0.7H280.7z M296.7,84.1l-4.3-10.3l-4.3,10.3H296.7z"></path>
		<path fill="#212125" d="M122.2,130.2c1.5-0.2,2.4-0.4,2.7-0.8c0.4-0.4,0.5-1.4,0.5-3v-16.1c0-1.3-0.2-2.2-0.6-2.6    c-0.4-0.4-1.3-0.7-2.7-0.8v-0.7H142l0.1,5.3h-1c-0.3-1.7-0.7-2.8-1.4-3.2c-0.7-0.5-2.1-0.7-4.2-0.7h-5.1c-0.5,0-0.8,0.1-1,0.3    c-0.1,0.2-0.2,0.5-0.2,1v8.3h5.4c1.6,0,2.6-0.2,3-0.7c0.4-0.5,0.8-1.4,1.1-2.9h0.9v8.6h-0.9c-0.3-1.4-0.6-2.4-1.1-2.9    c-0.4-0.5-1.4-0.7-3-0.7h-5.4v8.1c0,1.4,0.2,2.2,0.6,2.6c0.4,0.4,1.3,0.6,2.7,0.7v0.7h-10.4V130.2z"></path>
		<path fill="#212125" d="M142.9,130.2c1.4-0.1,2.3-0.4,2.7-0.7c0.4-0.3,0.6-1.2,0.6-2.6v-16.6c0-1.3-0.2-2.2-0.6-2.6    c-0.4-0.4-1.3-0.7-2.7-0.8v-0.7h19.8l0.1,5.3h-0.9c-0.3-1.6-0.8-2.7-1.4-3.2c-0.6-0.5-2-0.7-4.2-0.7h-5.1c-0.5,0-0.9,0.1-1,0.3    c-0.1,0.2-0.2,0.5-0.2,1v8.3h5.7c1.6,0,2.6-0.2,3-0.7c0.4-0.5,0.8-1.4,1.1-2.9h0.9v8.6h-0.9c-0.3-1.4-0.6-2.4-1.1-2.9    c-0.4-0.5-1.4-0.7-3-0.7h-5.7v9.2c0,0.7,0.2,1.2,0.7,1.3c0.5,0.1,1.9,0.2,4.2,0.2c2.5,0,4.4-0.3,5.6-0.8c1.2-0.5,2.3-1.9,3.2-4h1    l-1.7,6.3h-20.1V130.2z"></path>
		<path fill="#212125" d="M167.6,123.4c0.6,1.7,1.4,3,2.2,4c1.5,1.7,3.3,2.6,5.5,2.6c1.2,0,2.2-0.4,3.1-1.1c0.9-0.8,1.3-1.8,1.3-3.1    c0-1.2-0.4-2.3-1.3-3.2c-0.6-0.6-1.8-1.4-3.6-2.6l-3.2-2c-1-0.6-1.7-1.2-2.3-1.8c-1.1-1.2-1.6-2.5-1.6-3.9c0-1.9,0.6-3.4,1.9-4.7    c1.2-1.2,2.9-1.9,5-1.9c0.8,0,1.9,0.2,3.1,0.6c1.2,0.4,1.9,0.6,2,0.6c0.5,0,0.8-0.1,1-0.3c0.2-0.2,0.3-0.5,0.4-0.9h0.8l0.8,7.9    h-0.9c-0.6-2.4-1.6-4.1-2.9-5c-1.3-0.9-2.7-1.4-4-1.4c-1,0-1.9,0.3-2.7,0.9c-0.8,0.6-1.1,1.4-1.1,2.5c0,1,0.3,1.8,0.9,2.5    c0.6,0.7,1.5,1.4,2.7,2.2l3.3,2c2,1.3,3.5,2.4,4.3,3.5c0.8,1.1,1.2,2.3,1.2,3.8c0,2-0.7,3.6-2.2,4.9c-1.5,1.3-3.4,2-5.6,2    c-1.2,0-2.4-0.2-3.6-0.7c-1.3-0.4-2-0.7-2.2-0.7c-0.4,0-0.7,0.1-0.9,0.4c-0.2,0.3-0.3,0.6-0.3,0.9h-0.8l-1.1-7.9H167.6z"></path>
		<path fill="#212125" d="M186.6,106.3h21.1l0.2,6.3H207c-0.4-2-1-3.3-1.7-3.9c-0.7-0.6-2.1-0.9-4.2-0.9H199v19.1    c0,1.4,0.2,2.3,0.7,2.7c0.4,0.3,1.4,0.6,2.9,0.7v0.7h-10.9v-0.7c1.6-0.1,2.6-0.4,2.9-0.8c0.4-0.4,0.6-1.4,0.6-3v-18.6h-2.1    c-2.1,0-3.5,0.3-4.2,0.9c-0.7,0.6-1.3,1.9-1.7,3.9h-0.9L186.6,106.3z"></path>
		<path fill="#212125" d="M209.2,130.2c1.5-0.1,2.5-0.3,2.9-0.7c0.4-0.3,0.7-1.2,0.7-2.7v-16.6c0-1.4-0.2-2.2-0.7-2.6    c-0.5-0.4-1.4-0.6-2.9-0.7v-0.7h11v0.7c-1.5,0.1-2.5,0.3-2.9,0.7c-0.4,0.4-0.7,1.3-0.7,2.6v16.6c0,1.4,0.2,2.3,0.7,2.7    c0.4,0.3,1.4,0.6,2.9,0.7v0.7h-11V130.2z"></path>
		<path fill="#212125" d="M231.6,106.3v0.6c-0.9,0-1.6,0.1-1.9,0.2c-0.6,0.2-0.9,0.6-0.9,1.2c0,0.3,0.1,0.7,0.3,1.3    c0.2,0.6,0.6,1.5,1.2,2.8l5.8,13l5.3-14c0.2-0.6,0.4-1.1,0.5-1.6c0.1-0.4,0.2-0.8,0.2-1.1c0-0.7-0.3-1.2-0.9-1.5    c-0.4-0.1-1-0.2-1.8-0.3v-0.6h7.6v0.6c-0.8,0.1-1.4,0.3-1.7,0.6c-0.6,0.5-1.1,1.4-1.7,2.9l-8.2,20.9h-0.6l-9.2-20.5    c-0.8-1.7-1.4-2.8-1.9-3.2c-0.5-0.4-1.1-0.7-2-0.7v-0.6H231.6z"></path>
		<path fill="#212125" d="M243.7,130.9v-0.7c1-0.1,1.7-0.5,2.2-1.1c0.5-0.6,1.3-2.3,2.5-5l7.8-18.3h0.7l9.3,21.1    c0.6,1.4,1.1,2.3,1.5,2.6c0.4,0.3,1,0.6,1.9,0.7v0.7h-9.5v-0.7c1.1-0.1,1.8-0.2,2.1-0.4c0.3-0.1,0.5-0.5,0.5-1    c0-0.2-0.1-0.5-0.2-1c-0.1-0.5-0.3-0.9-0.5-1.4l-1.5-3.6h-9.8c-1,2.4-1.5,3.9-1.7,4.5c-0.2,0.5-0.3,1-0.3,1.3    c0,0.6,0.3,1.1,0.8,1.3c0.3,0.1,0.9,0.3,1.8,0.3v0.7H243.7z M259.7,121.4l-4.3-10.3l-4.3,10.3H259.7z"></path>
		<path fill="#212125" d="M270.4,130.2c1.4-0.1,2.3-0.4,2.7-0.7c0.4-0.3,0.6-1.2,0.6-2.6v-16.6c0-1.3-0.2-2.2-0.6-2.6    c-0.4-0.4-1.3-0.7-2.7-0.8v-0.7h10.5v0.7c-1.4,0.1-2.3,0.3-2.8,0.7c-0.5,0.4-0.7,1.2-0.7,2.4v17.9c0,0.4,0.1,0.7,0.2,1    c0.1,0.2,0.4,0.4,0.9,0.4c0.3,0,0.6,0.1,0.9,0.1c0.3,0,0.9,0,1.7,0c3.3,0,5.6-0.3,6.7-0.8c1.2-0.5,2.3-1.9,3.4-4.2h0.9l-1.8,6.5    h-20V130.2z"></path>
		<path fill="#212125" d="M165.1,154.9c0.7,1,1.1,2.1,1.1,3.4c0,2.3-1,4.5-3,6.7c-2.1,2.3-4.3,3.4-6.7,3.4c-1.5,0-2.7-0.4-3.6-1.3    c-0.9-0.9-1.3-2.1-1.3-3.6c0-2.4,1-4.6,3-6.8c2-2.2,4.3-3.3,6.6-3.3C163.1,153.5,164.3,154,165.1,154.9z M155.1,166.9    c0.4,0.6,1.1,0.9,2,0.9c1.8,0,3.3-1.3,4.7-4c1.2-2.3,1.7-4.4,1.7-6.3c0-0.8-0.1-1.5-0.3-2c-0.4-0.9-1.1-1.4-2.1-1.4    c-1.6,0-3.2,1.2-4.6,3.7c-1.4,2.3-2,4.6-2,6.8C154.4,165.6,154.6,166.3,155.1,166.9z"></path>
		<path fill="#212125" d="M180.9,148.7c-0.2,0.3-0.6,0.5-1,0.5c-0.4,0-0.7-0.1-0.9-0.3c-0.2-0.2-0.4-0.5-0.4-0.8    c0-0.2,0.1-0.6,0.3-1.1c0-0.1-0.1-0.3-0.2-0.4c-0.1-0.1-0.3-0.1-0.4-0.1c-0.8,0-1.5,0.9-2,2.6c-0.3,1-0.6,2.7-1,5.1h3.6l-0.2,1.1    H175l-3.1,10.6c-0.7,2.8-1.5,5-2.6,6.8c-1.1,1.7-2.5,2.6-4.2,2.6c-0.8,0-1.4-0.2-1.9-0.6c-0.5-0.4-0.8-0.9-0.8-1.4    c0-0.3,0.1-0.6,0.3-0.9c0.2-0.3,0.5-0.4,0.9-0.4c0.4,0,0.7,0.1,0.9,0.4s0.4,0.5,0.4,0.9c0,0.2-0.1,0.4-0.2,0.6    c-0.1,0.2-0.2,0.3-0.2,0.4c0,0.1,0.1,0.2,0.2,0.2c0.1,0.1,0.3,0.1,0.5,0.1c0.9,0,1.7-0.7,2.3-2.2c0.3-0.8,0.6-1.8,0.9-3.1    l3.8-13.9h-3l0.2-1.1h3.1c0.6-2.5,1.2-4.4,2-5.6c1.1-1.9,2.4-2.8,4-2.8c0.7,0,1.3,0.2,1.8,0.6c0.5,0.4,0.7,0.9,0.7,1.4    C181.3,148.1,181.2,148.4,180.9,148.7z"></path>
		<path fill="#212125" d="M185.9,163.3h0.5c0.2,1.3,0.5,2.3,0.8,2.9c0.6,1.1,1.5,1.7,2.7,1.7c0.7,0,1.2-0.2,1.7-0.7    c0.4-0.5,0.7-1.1,0.7-1.8c0-0.5-0.1-0.9-0.2-1.2c-0.1-0.3-0.3-0.6-0.4-0.8l-1.3-2c-0.8-1.2-1.3-2-1.5-2.4    c-0.3-0.6-0.5-1.2-0.5-1.8c0-0.9,0.3-1.8,1-2.5c0.7-0.7,1.6-1.1,2.9-1.1c0.5,0,1.1,0.1,1.8,0.3c0.7,0.2,1.1,0.3,1.4,0.3    c0.3,0,0.5-0.1,0.6-0.2c0.1-0.1,0.2-0.3,0.4-0.4h0.5l-0.7,4.6h-0.5c-0.1-1-0.4-1.8-0.6-2.4c-0.5-1-1.3-1.5-2.5-1.5    c-0.5,0-0.9,0.1-1.3,0.4c-0.4,0.3-0.6,0.7-0.6,1.3c0,0.4,0.1,0.8,0.3,1.2c0.2,0.3,0.5,0.9,1.1,1.8l1.1,1.6c0.6,0.9,1,1.5,1.3,2.1    c0.2,0.5,0.4,1.1,0.4,1.7c0,1.2-0.5,2.1-1.5,2.9c-1,0.8-2.2,1.2-3.5,1.2c-0.4,0-1.1-0.1-1.9-0.3c-0.8-0.2-1.3-0.3-1.4-0.3    c-0.2,0-0.4,0-0.5,0.1c-0.1,0.1-0.2,0.2-0.3,0.4h-0.5L185.9,163.3z"></path>
		<path fill="#212125" d="M212,154.9c0.7,1,1.1,2.1,1.1,3.4c0,2.3-1,4.5-3,6.7c-2.1,2.3-4.3,3.4-6.7,3.4c-1.5,0-2.7-0.4-3.6-1.3    c-0.9-0.9-1.3-2.1-1.3-3.6c0-2.4,1-4.6,3-6.8c2-2.2,4.3-3.3,6.6-3.3C209.9,153.5,211.2,154,212,154.9z M202,166.9    c0.4,0.6,1.1,0.9,2,0.9c1.8,0,3.3-1.3,4.7-4c1.2-2.3,1.7-4.4,1.7-6.3c0-0.8-0.1-1.5-0.3-2c-0.4-0.9-1.1-1.4-2.1-1.4    c-1.6,0-3.2,1.2-4.6,3.7c-1.4,2.3-2,4.6-2,6.8C201.3,165.6,201.5,166.3,202,166.9z"></path>
		<path fill="#212125" d="M227.4,154.4c0.6,0.6,0.9,1.2,0.9,1.7c0,0.5-0.1,0.9-0.5,1.2c-0.3,0.3-0.7,0.4-1.1,0.4    c-0.4,0-0.7-0.1-1-0.4c-0.3-0.2-0.4-0.6-0.4-0.9c0-0.3,0.1-0.6,0.3-0.9c0.2-0.3,0.3-0.5,0.3-0.6c0-0.2-0.1-0.4-0.3-0.5    c-0.2-0.1-0.6-0.2-1.1-0.2c-1.7,0-3.2,1-4.5,3c-1.3,2-1.9,4-1.9,6.2c0,1.2,0.3,2.2,0.8,2.9c0.5,0.7,1.3,1,2.3,1    c0.8,0,1.6-0.2,2.4-0.7c0.8-0.5,1.5-1.1,2.2-1.8l0.1-0.1l0.5,0.4c-0.8,1-1.5,1.7-2.2,2.2c-1.2,0.9-2.6,1.3-4.1,1.3    c-1.4,0-2.6-0.5-3.5-1.4c-0.9-0.9-1.3-2.2-1.3-3.8c0-2.4,1-4.7,3-6.8c2-2,4.1-3.1,6.4-3.1C225.8,153.6,226.8,153.8,227.4,154.4z"></path>
		<path fill="#212125" d="M236.4,153.5c0.1,0,0.1,0.1,0.1,0.1l-3.3,11.5c-0.1,0.6-0.2,1-0.2,1.1c0,0.2,0,0.3,0.1,0.4    c0.1,0.1,0.2,0.2,0.4,0.2c0.4,0,0.9-0.3,1.5-1c0.4-0.4,0.8-0.9,1.3-1.6l0.4,0.4l-0.2,0.2c-0.8,1.1-1.5,1.9-2,2.4    c-0.8,0.8-1.6,1.2-2.4,1.2c-0.5,0-0.8-0.2-1.2-0.6c-0.3-0.4-0.5-0.8-0.5-1.4c0-0.3,0-0.6,0.1-0.8c0-0.2,0.1-0.6,0.2-1l2.3-8.3    c0-0.1,0.1-0.2,0.1-0.4c0-0.1,0-0.2,0-0.3c0-0.4-0.1-0.6-0.4-0.7c-0.3-0.1-0.8-0.1-1.7-0.1v-0.5c0.9-0.1,1.5-0.2,1.9-0.3    c0.4-0.1,0.8-0.1,1.2-0.2c0.5-0.1,1-0.2,1.5-0.3C236,153.5,236.3,153.5,236.4,153.5z M234.8,149.4c-0.3-0.3-0.5-0.8-0.5-1.2    c0-0.5,0.2-0.9,0.5-1.3s0.7-0.5,1.1-0.5c0.4,0,0.8,0.2,1.1,0.5c0.3,0.3,0.5,0.8,0.5,1.3s-0.2,0.9-0.5,1.3    c-0.3,0.3-0.7,0.5-1.1,0.5C235.5,150,235.1,149.8,234.8,149.4z"></path>
		<path fill="#212125" d="M250.2,154.1c0.3,0.2,0.4,0.5,0.6,0.9l0.1,0.2l0.4-1.2c0-0.1,0.1-0.2,0.1-0.3c0,0,0.1-0.1,0.2-0.1l1.9-0.2    c0.1,0,0.2,0,0.2,0.1s0,0.1,0,0.2c0,0.1-0.1,0.3-0.1,0.3c0,0.1-0.1,0.2-0.1,0.3l-1.6,5.8c-0.3,1.3-0.6,2.3-0.9,3.3    c-0.4,1.7-0.6,2.6-0.6,2.8c0,0.1,0,0.3,0.1,0.3c0.1,0.1,0.2,0.1,0.3,0.1c0.1,0,0.2,0,0.3-0.1c0.1-0.1,0.3-0.2,0.4-0.3l0.3-0.2    c0.1-0.1,0.2-0.2,0.3-0.3c0.1-0.1,0.3-0.2,0.4-0.4l1.1-1l0.4,0.3c-1.2,1.4-2.1,2.4-2.8,2.9c-0.7,0.5-1.4,0.8-2,0.8    c-0.4,0-0.7-0.1-0.9-0.4c-0.2-0.3-0.3-0.6-0.3-1c0-0.4,0.1-0.9,0.2-1.7c0.1-0.7,0.3-1.3,0.4-1.8c-0.2,0.3-0.5,0.8-1,1.4    c-0.5,0.6-1,1.2-1.7,1.8c-0.8,0.7-1.5,1.2-2.3,1.5c-0.6,0.2-1.1,0.3-1.6,0.3c-0.9,0-1.7-0.4-2.4-1.1c-0.7-0.7-1.1-1.7-1.1-3.1    c0-2.3,1-4.6,3.1-7.1c2.1-2.6,4.3-3.8,6.6-3.8C249,153.5,249.7,153.7,250.2,154.1z M249.7,154.8c-0.4-0.4-0.8-0.5-1.3-0.5    c-1.8,0-3.4,1.3-4.9,4c-1.3,2.4-2,4.4-2,6.1c0,0.9,0.2,1.5,0.6,1.9c0.4,0.4,0.8,0.6,1.4,0.6c1.6,0,3.2-1.3,4.7-3.9    c1.5-2.4,2.2-4.5,2.2-6.5C250.2,155.7,250,155.1,249.7,154.8z"></path>
		<path fill="#212125" d="M260.8,148.5c0-0.1,0.1-0.3,0.1-0.4c0-0.1,0-0.3,0-0.3c0-0.4-0.1-0.6-0.4-0.7c-0.3-0.1-0.9-0.1-1.8-0.1    v-0.5c0.5-0.1,1-0.1,1.7-0.2c0.6-0.1,1.1-0.1,1.2-0.2c0.6-0.1,1.3-0.3,2.2-0.5c0.1,0,0.2,0.1,0.2,0.2l-5.4,19.4    c-0.1,0.5-0.2,0.7-0.2,0.8c0,0.1,0,0.2,0,0.3c0,0.2,0,0.4,0.1,0.5c0.1,0.1,0.2,0.2,0.4,0.2c0.4,0,0.9-0.3,1.5-1    c0.6-0.7,1.2-1.4,1.6-2l0.4,0.3c-0.9,1.4-1.7,2.3-2.2,2.8c-0.9,0.9-1.8,1.3-2.7,1.3c-0.4,0-0.7-0.1-1-0.3    c-0.5-0.3-0.7-0.8-0.7-1.5c0-0.3,0-0.6,0.1-1.1c0.1-0.3,0.1-0.6,0.2-0.9L260.8,148.5z"></path>
		<path fill="#212125" d="M149.1,191.4c0.3,0.2,0.4,0.5,0.6,0.9l0.1,0.2l0.4-1.2c0-0.1,0.1-0.2,0.1-0.3c0,0,0.1-0.1,0.2-0.1l1.9-0.2    c0.1,0,0.2,0,0.2,0.1c0,0,0,0.1,0,0.2c0,0.1-0.1,0.3-0.1,0.3c0,0.1-0.1,0.2-0.1,0.3l-1.6,5.8c-0.3,1.3-0.6,2.3-0.9,3.3    c-0.4,1.7-0.6,2.6-0.6,2.8c0,0.1,0,0.3,0.1,0.3c0.1,0.1,0.2,0.1,0.3,0.1c0.1,0,0.2,0,0.3-0.1c0.1-0.1,0.3-0.2,0.4-0.3l0.3-0.2    c0.1-0.1,0.2-0.2,0.3-0.3c0.1-0.1,0.3-0.2,0.4-0.4l1.1-1l0.4,0.3c-1.2,1.4-2.1,2.4-2.8,2.9c-0.7,0.5-1.4,0.8-2,0.8    c-0.4,0-0.7-0.1-0.9-0.4c-0.2-0.3-0.3-0.6-0.3-1c0-0.4,0.1-0.9,0.2-1.7c0.1-0.7,0.3-1.3,0.4-1.8c-0.2,0.3-0.5,0.8-1,1.4    c-0.5,0.6-1,1.2-1.7,1.8c-0.8,0.7-1.5,1.2-2.3,1.5c-0.6,0.2-1.1,0.3-1.6,0.3c-0.9,0-1.7-0.4-2.4-1.1c-0.7-0.7-1.1-1.7-1.1-3.1    c0-2.3,1-4.6,3.1-7.1c2.1-2.6,4.3-3.8,6.6-3.8C147.9,190.7,148.6,190.9,149.1,191.4z M148.5,192c-0.4-0.4-0.8-0.5-1.3-0.5    c-1.8,0-3.4,1.3-4.9,4c-1.3,2.4-2,4.4-2,6.1c0,0.9,0.2,1.5,0.6,1.9c0.4,0.4,0.8,0.6,1.4,0.6c1.6,0,3.2-1.3,4.7-3.9    c1.5-2.4,2.2-4.5,2.2-6.5C149.1,192.9,148.9,192.4,148.5,192z"></path>
		<path fill="#212125" d="M165.4,191.3c0.2,0.2,0.4,0.6,0.5,1.2l1.9-6.6c0.1-0.2,0.1-0.3,0.1-0.5c0-0.1,0-0.3,0-0.4    c0-0.4-0.1-0.7-0.2-0.8c-0.2-0.1-0.4-0.2-0.7-0.2c-0.2,0-0.4,0-0.5,0c-0.2,0-0.4,0-0.6,0v-0.5c1.2-0.2,2.9-0.4,5.1-0.8l0.1,0.2    l0,0.2l-3.2,11.6l-2.2,7.7c0,0.2-0.1,0.3-0.1,0.5c0,0.1,0,0.3,0,0.4c0,0.3,0.1,0.5,0.2,0.6c0.1,0.1,0.3,0.1,0.4,0.1    c0.3,0,0.8-0.3,1.3-0.8c0.3-0.3,0.8-0.9,1.4-1.6l0.4,0.4l-0.2,0.3c-0.4,0.6-0.9,1.2-1.5,1.8c-1.1,1.1-2.1,1.6-3,1.6    c-0.3,0-0.6-0.1-0.8-0.2c-0.4-0.3-0.7-0.7-0.7-1.4c0-0.2,0-0.6,0.1-1.1c0.1-0.5,0.2-1,0.3-1.6c-0.8,1.2-1.7,2.3-2.7,3.1    c-1,0.8-2,1.2-3.2,1.2c-0.9,0-1.8-0.3-2.5-1c-0.7-0.7-1.1-1.7-1.1-3.1c0-2.3,1.1-4.8,3.3-7.2c2.2-2.5,4.3-3.7,6.3-3.7    C164.4,190.7,165,190.9,165.4,191.3z M157.3,203.3c0.3,0.5,0.8,0.7,1.5,0.7c1.5,0,3-1.2,4.4-3.7c1.4-2.3,2.1-4.5,2.1-6.6    c0-0.7-0.1-1.2-0.3-1.6c-0.2-0.4-0.7-0.6-1.3-0.6c-1.6,0-3.2,1.3-4.8,4c-1.4,2.4-2.1,4.4-2.1,6.2    C156.8,202.3,157,202.8,157.3,203.3z"></path>
		<path fill="#212125" d="M183.6,191.4c0.3,0.4,0.5,0.9,0.5,1.5c0,1.5-1.4,4-4.3,7.6c-2.7,3.5-4.4,5.2-4.9,5.2    c-0.2,0-0.3-0.2-0.3-0.7c0-0.2,0-0.7,0-1.3c0-0.7-0.1-1.9-0.2-3.7s-0.3-3-0.4-3.8c-0.3-1.8-0.5-3-0.8-3.5    c-0.3-0.5-0.7-0.8-1.5-0.8c-0.1,0-0.3,0-0.4,0c-0.2,0-0.3,0-0.5,0v-0.4c0.3-0.1,1-0.2,2-0.4c1-0.2,1.6-0.3,1.6-0.4l0.5-0.2    c0.1,0,0.3,0,0.4,0.3c0.1,0.2,0.2,0.6,0.3,1.2c0.4,1.9,0.7,3.7,0.9,5.5c0.1,1.1,0.3,2.8,0.4,5l0.5-0.6c1.1-1.2,2.2-2.6,3.3-4.2    c1.1-1.6,1.7-2.8,1.7-3.4c0-0.3-0.2-0.7-0.7-1.2c-0.5-0.5-0.7-0.9-0.7-1.3c0-0.4,0.1-0.6,0.4-0.9c0.2-0.2,0.5-0.3,0.9-0.3    C182.9,190.8,183.3,191,183.6,191.4z"></path>
		<path fill="#212125" d="M189,194.1c2.1-2.2,4.3-3.4,6.6-3.4c0.8,0,1.5,0.2,2,0.6c0.5,0.4,0.7,1,0.7,1.7c0,1.5-0.9,2.9-2.7,4    c-1.8,1.1-3.7,1.8-5.7,2l-0.9,0.1c-0.1,0.4-0.2,0.8-0.3,1.1c-0.1,0.3-0.1,0.6-0.1,1c0,0.9,0.3,1.7,0.9,2.2    c0.6,0.5,1.4,0.8,2.2,0.8c0.8,0,1.7-0.3,2.6-0.8c0.5-0.3,1.3-0.9,2.2-1.7l0.4,0.4c-0.5,0.6-1.2,1.2-2.1,1.9    c-1.6,1.2-3.2,1.7-4.8,1.7c-1.1,0-2.1-0.4-3-1.2c-0.9-0.8-1.3-2-1.3-3.5C185.8,198.7,186.8,196.4,189,194.1z M194.2,196.3    c1.3-1.1,1.9-2.3,1.9-3.4c0-0.4-0.1-0.7-0.3-1c-0.2-0.2-0.5-0.4-0.9-0.4c-0.7,0-1.4,0.3-2.1,0.9c-0.7,0.6-1.3,1.3-1.8,2    c-0.6,0.9-1,1.7-1.4,2.5c-0.2,0.4-0.4,0.9-0.6,1.5C191.3,198.2,192.9,197.5,194.2,196.3z"></path>
		<path fill="#212125" d="M206.4,190.8c0,0.1,0.1,0.1,0.1,0.2c0,0.1,0,0.2,0,0.2l-1.6,6.3l0.4-0.7c0.8-1.5,1.7-2.9,2.7-4.2    c1-1.3,2-1.9,3-1.9c0.5,0,0.9,0.2,1.2,0.5c0.3,0.3,0.4,0.7,0.4,1.1c0,0.5-0.1,0.9-0.4,1.2c-0.3,0.3-0.7,0.5-1.1,0.5    c-0.3,0-0.6-0.1-0.8-0.2c-0.2-0.1-0.3-0.3-0.4-0.5l-0.2-0.4c0-0.1-0.1-0.1-0.2-0.2c-0.1,0-0.1-0.1-0.2-0.1c-0.4,0-1,0.6-1.8,1.8    c-0.8,1.2-1.5,2.4-2.1,3.8c-0.4,0.8-0.8,1.9-1.3,3.3c-0.3,0.9-0.7,2.1-1.2,3.7h-2.5l2.7-9.7c0.1-0.6,0.3-1.1,0.4-1.5    c0.1-0.4,0.1-0.8,0.1-1.1c0-0.3-0.1-0.6-0.2-0.7c-0.2-0.2-0.4-0.3-0.8-0.3c-0.1,0-0.3,0-0.5,0c-0.2,0-0.4,0-0.7,0.1v-0.5l0.6-0.1    c0.8-0.2,1.8-0.4,2.8-0.5c1-0.2,1.5-0.3,1.6-0.3C206.3,190.7,206.3,190.7,206.4,190.8z"></path>
		<path fill="#212125" d="M213.5,204c0-0.1,0-0.2,0.1-0.3l3.1-11.3h-2.5c0-0.3,0-0.5,0.1-0.5c0-0.1,0.1-0.2,0.3-0.2    c1.1-0.5,1.9-0.9,2.5-1.3c0.6-0.4,1.4-1.3,2.5-2.5l0.3-0.3c0,0,0.1-0.1,0.1-0.1c0,0,0.1,0,0.2,0c0.1,0,0.2,0,0.2,0.1    c0,0.1,0.1,0.1,0.1,0.2c0,0.1,0,0.1,0,0.2l-0.9,3.5h2.7l-0.2,1.1h-2.8l-3,10.9c-0.1,0.2,0,0.4,0,0.6c0.1,0.2,0.2,0.3,0.4,0.3    c0.3,0,0.7-0.3,1.2-0.8c0.3-0.3,0.8-0.9,1.5-1.8l0.4,0.2l-0.2,0.3c-0.9,1.4-1.7,2.4-2.5,2.9c-0.7,0.5-1.4,0.8-2,0.8    c-0.5,0-0.9-0.1-1.2-0.4c-0.3-0.3-0.4-0.6-0.4-1C213.5,204.2,213.5,204.1,213.5,204z"></path>
		<path fill="#212125" d="M229,190.7c0.1,0,0.1,0.1,0.1,0.1l-3.3,11.5c-0.1,0.6-0.2,1-0.2,1.1c0,0.2,0,0.3,0.1,0.4    c0.1,0.1,0.2,0.2,0.4,0.2c0.4,0,0.9-0.3,1.5-1c0.4-0.4,0.8-0.9,1.3-1.6l0.4,0.4l-0.2,0.2c-0.8,1.1-1.5,1.9-2,2.4    c-0.8,0.8-1.6,1.2-2.4,1.2c-0.5,0-0.8-0.2-1.2-0.6c-0.3-0.4-0.5-0.8-0.5-1.4c0-0.3,0-0.6,0.1-0.8c0-0.2,0.1-0.6,0.2-1l2.3-8.3    c0-0.1,0.1-0.2,0.1-0.4c0-0.1,0-0.2,0-0.3c0-0.4-0.1-0.6-0.4-0.7c-0.3-0.1-0.8-0.1-1.7-0.1v-0.5c0.9-0.1,1.5-0.2,1.9-0.3    c0.4-0.1,0.8-0.1,1.2-0.2c0.5-0.1,1-0.2,1.5-0.3C228.7,190.7,228.9,190.7,229,190.7z M227.5,186.7c-0.3-0.3-0.5-0.8-0.5-1.2    c0-0.5,0.2-0.9,0.5-1.3c0.3-0.3,0.7-0.5,1.1-0.5s0.8,0.2,1.1,0.5c0.3,0.3,0.5,0.8,0.5,1.3s-0.2,0.9-0.5,1.3    c-0.3,0.3-0.7,0.5-1.1,0.5S227.8,187,227.5,186.7z"></path>
		<path fill="#212125" d="M231.9,200.6h0.5c0.2,1.3,0.5,2.3,0.8,2.9c0.6,1.1,1.5,1.7,2.7,1.7c0.7,0,1.2-0.2,1.7-0.7    c0.4-0.5,0.7-1.1,0.7-1.8c0-0.5-0.1-0.9-0.2-1.2c-0.1-0.3-0.3-0.6-0.4-0.8l-1.3-2c-0.8-1.2-1.3-2-1.5-2.4    c-0.3-0.6-0.5-1.2-0.5-1.8c0-0.9,0.3-1.8,1-2.5c0.7-0.7,1.6-1.1,2.9-1.1c0.5,0,1.1,0.1,1.8,0.3c0.7,0.2,1.1,0.3,1.4,0.3    c0.3,0,0.5-0.1,0.6-0.2c0.1-0.1,0.2-0.3,0.4-0.4h0.5l-0.7,4.6h-0.5c-0.1-1-0.4-1.8-0.6-2.4c-0.5-1-1.3-1.5-2.5-1.5    c-0.5,0-0.9,0.1-1.3,0.4c-0.4,0.3-0.6,0.7-0.6,1.3c0,0.4,0.1,0.8,0.3,1.2c0.2,0.3,0.5,0.9,1.1,1.8l1.1,1.6c0.6,0.9,1,1.5,1.3,2.1    s0.4,1.1,0.4,1.7c0,1.2-0.5,2.1-1.5,2.9c-1,0.8-2.2,1.2-3.5,1.2c-0.4,0-1.1-0.1-1.9-0.3c-0.8-0.2-1.3-0.3-1.4-0.3    c-0.2,0-0.4,0-0.5,0.1c-0.1,0.1-0.2,0.2-0.3,0.4h-0.5L231.9,200.6z"></path>
		<path fill="#212125" d="M251.1,190.7c0.1,0,0.1,0.1,0.1,0.1l-3.3,11.5c-0.1,0.6-0.2,1-0.2,1.1c0,0.2,0,0.3,0.1,0.4    c0.1,0.1,0.2,0.2,0.4,0.2c0.4,0,0.9-0.3,1.5-1c0.4-0.4,0.8-0.9,1.3-1.6l0.4,0.4l-0.2,0.2c-0.8,1.1-1.5,1.9-2,2.4    c-0.8,0.8-1.6,1.2-2.4,1.2c-0.5,0-0.8-0.2-1.2-0.6c-0.3-0.4-0.5-0.8-0.5-1.4c0-0.3,0-0.6,0.1-0.8c0-0.2,0.1-0.6,0.2-1l2.3-8.3    c0-0.1,0.1-0.2,0.1-0.4c0-0.1,0-0.2,0-0.3c0-0.4-0.1-0.6-0.4-0.7c-0.3-0.1-0.8-0.1-1.7-0.1v-0.5c0.9-0.1,1.5-0.2,1.9-0.3    c0.4-0.1,0.8-0.1,1.2-0.2c0.5-0.1,1-0.2,1.5-0.3C250.7,190.7,251,190.7,251.1,190.7z M249.5,186.7c-0.3-0.3-0.5-0.8-0.5-1.2    c0-0.5,0.2-0.9,0.5-1.3c0.3-0.3,0.7-0.5,1.1-0.5c0.4,0,0.8,0.2,1.1,0.5c0.3,0.3,0.5,0.8,0.5,1.3s-0.2,0.9-0.5,1.3    c-0.3,0.3-0.7,0.5-1.1,0.5C250.2,187.2,249.8,187,249.5,186.7z"></path>
		<path fill="#212125" d="M253.4,205.4l2.8-10c0.2-0.8,0.4-1.4,0.4-1.5c0-0.2,0.1-0.4,0.1-0.6c0-0.3-0.1-0.6-0.3-0.7    c-0.2-0.2-0.5-0.3-1-0.3c-0.1,0-0.3,0-0.4,0c-0.1,0-0.3,0-0.4,0.1v-0.5c0.7-0.1,1.2-0.2,1.5-0.2c0.3-0.1,0.6-0.1,1-0.2l2.9-0.6    c0.1,0,0.1,0.1,0.1,0.1l-2.1,6.9c1.3-2,2.4-3.5,3.3-4.5c1.6-1.7,3-2.6,4.2-2.6c0.5,0,0.9,0.1,1.2,0.3c0.7,0.4,1,1,1,1.9    c0,0.3,0,0.5-0.1,0.8c-0.1,0.3-0.1,0.6-0.2,0.9l-2.1,7.7c0,0.2-0.1,0.4-0.1,0.6c-0.1,0.2-0.1,0.4-0.1,0.5c0,0.2,0,0.3,0.1,0.4    c0.1,0.1,0.2,0.2,0.4,0.2c0.3,0,0.6-0.2,0.9-0.5c0.4-0.3,0.9-1,1.7-2.1l0.5,0.4c-0.9,1.2-1.6,2-2.1,2.5c-0.9,0.9-1.7,1.3-2.5,1.3    c-0.4,0-0.7-0.1-1-0.4c-0.3-0.2-0.5-0.7-0.5-1.3c0-0.2,0-0.4,0-0.6c0-0.2,0.1-0.4,0.1-0.5l2.1-7.9c0.1-0.4,0.2-0.8,0.2-1.1    c0-0.3,0.1-0.5,0.1-0.6c0-0.3-0.1-0.5-0.2-0.7c-0.1-0.2-0.3-0.3-0.7-0.3c-0.8,0-1.9,0.7-3.1,2.2c-0.7,0.9-1.5,1.9-2.2,3.1    c-0.6,0.9-1,1.8-1.3,2.7c-0.3,0.9-0.8,2.5-1.5,4.8H253.4z"></path>
		<path fill="#212125" d="M270.5,206.3c0.6-0.7,1.6-1.5,2.9-2.2c-0.3-0.2-0.5-0.4-0.7-0.5c-0.2-0.2-0.3-0.4-0.3-0.8    c0-0.4,0.3-0.9,0.9-1.5c0.3-0.3,0.9-0.7,1.7-1.3c-0.7-0.3-1.3-0.6-1.8-1.1c-0.6-0.6-0.9-1.5-0.9-2.5c0-1.6,0.6-3,1.9-4.1    c1.3-1.1,2.8-1.6,4.7-1.6c1,0,1.8,0.2,2.5,0.5c0.7,0.3,1.1,0.6,1.2,0.8h2.2v1.3h-1.6c0.1,0.2,0.1,0.5,0.1,0.6c0,0.2,0,0.5,0,0.8    c0,1.7-0.7,3.1-2,4.1c-1.4,1-2.8,1.5-4.4,1.5c-0.2,0-0.3,0-0.5,0c-0.1,0-0.3,0-0.5-0.1c-0.2,0-0.4,0.2-0.7,0.5    c-0.3,0.3-0.4,0.6-0.4,0.8c0,0.4,1.2,1,3.6,1.9c2.4,0.9,3.5,2.2,3.5,3.9c0,1.3-0.6,2.4-1.8,3.4c-1.2,1-3,1.5-5.4,1.5    c-1.7,0-3-0.4-3.9-1.1c-1-0.7-1.5-1.6-1.5-2.6C269.6,207.7,269.9,207,270.5,206.3z M278.8,210.6c0.8-0.6,1.3-1.3,1.3-2.2    c0-0.6-0.2-1.2-0.7-1.6c-0.2-0.2-0.6-0.5-1.1-0.8c-0.4-0.2-1.2-0.5-2.2-0.9c-1.1-0.4-1.7-0.6-1.8-0.6c-0.3,0-0.8,0.4-1.6,1.1    c-0.8,0.7-1.2,1.6-1.2,2.5c0,1.4,0.6,2.4,1.9,3c0.6,0.3,1.4,0.4,2.4,0.4C276.9,211.5,278,211.2,278.8,210.6z M275.3,198.7    c0.3,0.7,1,1,1.9,1c1,0,1.8-0.6,2.6-1.9c0.8-1.2,1.1-2.6,1.1-4.1c0-0.7-0.2-1.3-0.5-1.7c-0.3-0.4-0.8-0.6-1.4-0.6    c-1.2,0-2.2,0.6-2.9,1.9c-0.7,1.3-1.1,2.5-1.1,3.7C275,197.8,275.1,198.3,275.3,198.7z"></path>
	</g>
	<g>
		<path fill="#212125" d="M192.6,282.8v2.1h-16.3v-1.7l9.6-9.4c1.2-1.2,2-2.2,2.5-3.1c0.4-0.9,0.6-1.7,0.6-2.6    c0-1.4-0.5-2.4-1.4-3.2c-0.9-0.8-2.3-1.1-4-1.1c-2.7,0-4.8,0.9-6.3,2.6l-1.7-1.5c0.9-1.1,2.1-1.9,3.5-2.4c1.4-0.6,3-0.9,4.7-0.9    c2.4,0,4.2,0.6,5.6,1.7c1.4,1.1,2.1,2.6,2.1,4.6c0,1.2-0.3,2.3-0.8,3.4c-0.5,1.1-1.5,2.4-3,3.8l-7.9,7.7H192.6z"></path>
		<path fill="#212125" d="M199.9,283.7c-1.4-0.9-2.5-2.3-3.3-4.1c-0.8-1.8-1.2-3.9-1.2-6.3c0-2.4,0.4-4.5,1.2-6.3    c0.8-1.8,1.9-3.1,3.3-4.1c1.4-0.9,3-1.4,4.8-1.4c1.8,0,3.4,0.5,4.8,1.4c1.4,0.9,2.5,2.3,3.3,4.1c0.8,1.8,1.2,3.9,1.2,6.3    c0,2.4-0.4,4.5-1.2,6.3c-0.8,1.8-1.9,3.1-3.3,4.1c-1.4,0.9-3,1.4-4.8,1.4C202.9,285.1,201.3,284.6,199.9,283.7z M208.3,281.8    c1-0.7,1.8-1.8,2.4-3.3c0.6-1.4,0.9-3.2,0.9-5.2c0-2-0.3-3.8-0.9-5.2c-0.6-1.4-1.4-2.5-2.4-3.3c-1-0.7-2.2-1.1-3.6-1.1    c-1.3,0-2.5,0.4-3.6,1.1c-1,0.8-1.8,1.8-2.4,3.3c-0.6,1.4-0.9,3.2-0.9,5.2c0,2,0.3,3.8,0.9,5.2c0.6,1.4,1.4,2.5,2.4,3.3    c1,0.7,2.2,1.1,3.6,1.1C206.1,282.9,207.2,282.5,208.3,281.8z"></path>
		<path fill="#212125" d="M223.7,261.7v23.2h-2.4v-21h-5.5v-2.1H223.7z"></path>
		<path fill="#212125" d="M243.5,264.6c1.6,2,2.4,4.9,2.4,8.6c0,2.6-0.4,4.8-1.3,6.6c-0.9,1.8-2.1,3.1-3.7,4.1    c-1.6,0.9-3.4,1.4-5.6,1.4c-2.3,0-4.1-0.4-5.5-1.3l1-1.9c1.1,0.7,2.6,1.1,4.5,1.1c2.6,0,4.6-0.8,6-2.4c1.5-1.6,2.2-4,2.2-7.1    c0-0.6,0-1.2-0.1-1.9c-0.6,1.3-1.5,2.2-2.7,2.9c-1.3,0.7-2.7,1-4.3,1c-1.5,0-2.9-0.3-4.1-0.9c-1.2-0.6-2.1-1.4-2.8-2.4    c-0.7-1-1-2.3-1-3.7c0-1.4,0.3-2.7,1-3.7c0.7-1.1,1.6-1.9,2.8-2.5c1.2-0.6,2.6-0.9,4.1-0.9C239.5,261.5,241.9,262.6,243.5,264.6z     M239.8,272.9c0.9-0.4,1.6-1,2.1-1.8c0.5-0.8,0.8-1.6,0.8-2.6c0-0.9-0.2-1.7-0.7-2.4c-0.5-0.8-1.2-1.4-2.1-1.8    c-0.9-0.5-2-0.7-3.3-0.7c-1.7,0-3,0.5-4.1,1.4c-1.1,0.9-1.6,2.1-1.6,3.7c0,1.5,0.5,2.7,1.6,3.6c1,0.9,2.5,1.4,4.2,1.4    C237.9,273.6,238.9,273.4,239.8,272.9z"></path>
	</g>
	<g>
		<g>
			<g>
				<path d="M138.8,270.3c-12.6-2.8-24.6-7.3-35.8-13.7c-14.5-8.2-27-18.8-37.5-31.7c-10.4-12.7-18.3-26.8-23.7-42.3      c-4-11.6-6.3-23.5-7.2-35.8c-1-13.4-0.1-26.7,2.9-39.7c1.8-8.1,4.6-15.9,7.5-23.7c4-10.8,10-20.6,16.8-29.8      c7-9.5,15.3-17.8,24.4-25.2c1.9-1.5,3.8-2.9,6.5-2.9c1.5,0,3-0.6,4.4-1.2c7.5-2.8,13.1-8,17.3-14.6c1.5-2.3,2.2-5.1,3.1-7.7      c0.3-1.1,0-2.2-1.6-1.7c-5.3,1.7-10.6,3.4-15.9,5.2c-4.3,1.4-8.6,3.2-10.5,7.7c-1.4,3.2-2.1,6.8-2.7,10.3c-0.3,1.7-1,2.9-2.3,4      C67.6,40.7,54.8,57.1,45.7,76.3c-6.9,14.5-11.1,29.9-12.7,45.9c-1.8,17.2-0.4,34,3.8,50.7c3.1,12.4,8,24.1,14.5,35.1      c11.3,19.3,26.3,34.9,45.1,47c8.2,5.2,16.8,9.7,26.1,12.7c7,2.2,14.2,3.8,21.3,5.4l0.4-1.6C142.3,271.1,140.6,270.7,138.8,270.3      z"></path>
			</g>
			<g>
				<path d="M107.9,223.2c-2-1.8-4.4-3.1-6.9-4.3c-1.9-1-2.7-0.2-2.4,2c0.2,1.2,0.4,2.3,0.5,3.5c0.8,6.8,1.5,13.6,2.5,20.4      c0.6,3.9,2.5,7.4,6,9.5c3.3,1.9,6.8,3.4,10.3,4.9c2.4,1.1,3.1,0.6,3.7-2c0.1-0.5,0.2-1.1,0.2-1.7c0.1,0-0.1,0,0,0      c0.4-2.8,0.2-5.9-0.3-8.7C119.8,237.2,114.9,229.5,107.9,223.2z"></path>
			</g>
			<g>
				<path d="M93.1,259.1c2-2.5,2-2.8-0.7-4.4c-0.9-0.5-1.8-1.1-2.7-1.6c-6.9-3.6-13.6-4.2-20.3,0.5c-3.9,2.8-7.9,5.6-11.8,8.3      c-2.2,1.5-7.6,3.1-7.1,4.8c0.2,1,2.4,1.5,3.4,1.9c5,2,10.2,2.3,15.5,1.8C78.6,269.5,86.9,266.6,93.1,259.1z"></path>
			</g>
			<g>
				<path d="M115.7,267.3c-3.6-1.1-7.2-2-10.8-2.9c0,0.2,0-0.2,0,0c-5-0.3-9,2.4-12.4,5.9c-4.5,4.6-8.5,8.2-12.9,12.9      c-0.6,0.6-2.8,2.4-1.8,3.2c1,1,1.3,0.9,2.3,1.2c0.4,0.2,1,0.2,1.4,0.2c6,0.7,11.8-0.2,17.4-2.4c7.7-3.1,14.3-7.5,17.8-15.5      C117.4,268.4,117,267.6,115.7,267.3z"></path>
			</g>
			<g>
				<path d="M87.2,240.3c1.1,0.7,2.1,0.4,2.6-1c1.6-4,2.3-8.2,1.7-12.5c-1-7.6-2.6-16-8.2-21.2c-3-2.8-2.9-2.7-6.2-4.5      c-2.3-1.1-2.3,0.2-2.3,0.4c-0.3,7.5-0.7,14.9-0.8,22.4c-0.1,4,1.2,7.8,4.4,10.5C81.2,236.6,84.3,238.4,87.2,240.3z"></path>
			</g>
			<g>
				<path d="M41.5,203.2c1.7-0.9,1.9-1.9,0.9-3.3c-1.5-2.1-3-4.2-4.7-6.1c-3.2-3.4-7.2-5.2-14.3-4.8c-4.1,0.6-10.5,1.6-16.9,2.6      c-1.3,0.2-3.3,0.4-3.7,1c-0.5,1.2,1.3,2.6,2.2,3.6c6.9,6.4,15.3,9.3,24.6,9.6C33.7,205.9,37.8,205.2,41.5,203.2z"></path>
			</g>
			<g>
				<path d="M12.8,175.9c5.1,4,10.8,6.6,15.9,6.8c5.3,0,5.5-0.1,4.8-3.9c-0.3-1.4-0.5-2.8-0.8-4.1c-1.2-4.9-3.7-9.1-8.5-11.2      c-2.7-1.2-5.7-1.9-8.5-2.8c-4.3-1.3-8.5-2.6-12.8-3.9c-2.1-0.6-2.6-0.1-2.1,1.9c0.3,1.1,0.5,2.2,1,3.2      C4,167.7,8,172.1,12.8,175.9z"></path>
			</g>
			<g>
				<path d="M71.5,243.7c1.3-1,1.6-2,0.2-3.2c-2.2-1.8-4.2-3.8-6.6-5.5c-3.7-2.6-7.9-3.4-12.2-2c-7,2.3-13.8,4.9-20.7,7.4      c-1.3,0.5-1.6,1.4-0.5,2.4c0.4,0.4,1,0.8,1.5,1.2c5.9,4,12.7,5.3,19.4,5.6C59.7,249.4,66,248.1,71.5,243.7z"></path>
			</g>
			<g>
				<path d="M40.8,228.6c5.6-0.4,10.8-2,15.2-5.6c1.4-1.1,1.7-2.1,0.2-3.4c-1-0.9-1.9-1.9-2.8-2.8c-5.5-5-11.7-6.4-18.8-3.7      c-5.2,2-10.4,3.9-15.6,5.9c-1.2,0.5-1.3,0.8-1.9,1.8c-0.2,1.4,0.3,2,1.4,2.7c5.8,3.7,12.3,5.1,19.1,5      C38.7,228.6,39.7,228.6,40.8,228.6z"></path>
			</g>
			<g>
				<path d="M46.6,183.1c1.7-0.9,3.5-1.8,4.9-3.1c8.2-7.9,11.3-17.8,10.7-29c-0.1-2.1-0.7-7.6-2.3-6.3c-5.2,5.7-10.3,11.1-15.1,16.7      c-1.2,1.4-2,3.3-2.6,5.2c-1.9,5.7,0.3,10.8,2.5,15.9C44.8,182.9,46.1,183.4,46.6,183.1z"></path>
			</g>
			<g>
				<path d="M36.9,149.1c1.2,5.1,1.6,5.4,6.1,2.8c11-6.4,15.3-16.8,16.4-28.8c0-1.1,0.1-2.2,0-3.3c-0.3-2.1-1.3-2.4-2.9-1.1      c-3.2,2.7-6.4,5.3-9.7,8c-1,0.8-2.1,1.7-3.1,2.4C36.7,134.2,35.1,141.1,36.9,149.1z"></path>
			</g>
			<g>
				<path d="M65,211c0.3-0.4,0.7-0.9,1-1.4c3.2-5,4.5-10.6,4.6-16.5c-0.4-2.8-0.4-5.8-1.2-8.4c-1-3.3-2.5-6.5-4.1-9.5      c-0.9-1.7-1.9-1.4-2.7,0.5c-1.1,2.6-2.2,5.3-3.3,7.9c-1.2,2.7-2.3,5.4-3.5,8c-3.3,7.6-1,14,4.3,19.7C62.2,213.6,63,213.5,65,211      z"></path>
			</g>
			<g>
				<path d="M22.1,155.4c4.8,1.4,5.2,1.1,5.1-3.8c0-0.2,0-0.4,0-0.6c0.1-6.2-1.5-11.7-7.4-14.9c-6-3.2-12.2-6.1-18.4-9.1      c-0.3-0.1-1.1-0.1-1.4,0.8c-0.2,0.9-0.1,1.8,0.1,2.7c0.7,4.7,2.8,8.8,5.5,12.5C9.9,148.8,15,153.4,22.1,155.4z"></path>
			</g>
			<g>
				<path d="M11.5,122.5c3.2,4.3,7.1,7.8,12.5,9.3c1.7,0.5,2.6-0.1,2.9-1.7c0.3-2.1,0.5-4.3,0.8-6.4c-0.1-4.9-1.9-9-5.9-11.9      c-4.3-3.1-8.7-6.1-13-9.1c-1-0.7-2.2-1.2-3.2-1.2c-1.1,0.2-0.8,1.5-0.7,3.2c0,0.3,0,0.6,0,0.8C5.3,111.9,7.7,117.5,11.5,122.5z"></path>
			</g>
			<g>
				<path d="M27.1,107.9c1.3,0.7,2.7,1,3.3-0.7c1-3,1.7-6,2.6-9.3c0.7-3.3-0.9-4.6-2.2-6.2c-4.6-5.4-9.5-10.5-14.4-15.7      c-0.9-1-1.7-0.4-1.9,0.7c-0.3,2.3-0.8,4.7-0.7,7C14,89,15.4,94,18,98.6C20.2,102.4,23,105.8,27.1,107.9z"></path>
			</g>
			<g>
				<path d="M48.2,96.2c6.3-1.3,10.9-5.1,14.7-10.1c2.4-3.2,4.5-6.7,4.9-10.9c0.2-2.1-0.5-2.6-2.4-1.7c-3.9,1.7-7.8,3.4-11.7,5.2      c-3.2,1.4-6.4,3.1-7.7,6.6c-0.9,2.5-1.3,5.1-2,7.6C44.2,96.4,44.8,97,48.2,96.2z"></path>
			</g>
			<g>
				<path d="M38.6,115.2c0,1.1,0,1.8,0,2.4c0.1,3.9,0.7,4.3,4.4,2.9c7.7-2.8,12.4-8.6,15.3-15.9c0.9-2.3,1.3-5,1.6-7.5      c0.2-1.6-0.7-2.1-2-1.4c-4,2.4-8,4.8-12.1,7.1C40.9,105.7,38.2,109.8,38.6,115.2z"></path>
			</g>
			<g>
				<path d="M35.2,83.6c1.3,0.8,2.1,0.5,2.7-0.7c0.6-1.1,1-2.3,1.5-3.5c1.8-5.1,1.6-10-3.2-14.2c-3.2-2.9-5.7-6.5-8.1-10      c-0.9-1.4-1.9-1-2.2,0.2c-0.4,1.1-0.6,2.3-0.9,3.4c-0.2,0.9-0.4,1.9-0.3,2.9c0.1,4.5,1,8.8,2.9,12.8      C29.2,78.2,31.7,81.4,35.2,83.6z"></path>
			</g>
			<g>
				<path d="M50.1,62.4c3-3.9,4.2-8.2,2.3-13c-2-4.9-4.2-9.7-6.3-14.6c-0.1-0.3-0.3-1.2-0.9-1c-0.5,0-1.6,1.8-2,2.7      c-4.1,8.4-4.5,16.9,0,25.3C45.8,66.9,46.7,66.8,50.1,62.4z"></path>
			</g>
			<g>
				<path d="M62,45.8c1-1.3,2-2.5,2.9-3.9c1.7-2.8,2.8-5.9,1.5-9.2c-2-5.1-4.1-10-6.2-15c-0.5-1.1-1.4-1.1-2.1-0.2      c-0.4,0.5-0.8,1.1-1.1,1.8C55,23,54.2,27,54.3,31c-0.1,5.6,1.1,10.6,4.7,14.8C60,47.1,61,47.2,62,45.8z"></path>
			</g>
			<g>
				<path d="M74.5,29.4c6.2-4.1,8.4-7.6,7.4-14.2c-0.5-3.4-1.3-6.7-2-10c-0.3-1.6-0.5-3.3-0.8-4.9c0-0.5-1.1-0.4-1.6-0.1      c-0.9,0.7-1,1-1.6,1.9c-4.1,5.1-6,11.1-6,17.7c0,3.2,0.7,6.2,2.3,9C72.8,30,73.5,30.1,74.5,29.4z"></path>
			</g>
			<g>
				<path d="M99.1,36.1c0.3-0.6,0.5-1.5,0.2-1.9c-0.1-0.2-1.1-0.3-1.7-0.3c-4,0.4-7.9,0.8-11.9,1.2c-5.5,0.5-9.3,3.2-11.2,8.6      c-1.6,4.5-1.2,5.1,3.7,5.1c4.5,0,8.5-1.5,12.2-3.8C94,42.7,97.1,40,99.1,36.1z"></path>
			</g>
			<g>
				<path d="M82,55.3c0.3-0.6,0.6-1.3,0.2-2c-0.2-0.5-1.3-0.3-2-0.2c-3.2,0.6-6.4,1.5-9.6,2c-6.7,1-11.2,4.2-12.7,11.2      c-0.7,3.2-0.2,3.7,3.2,4.2c2.7,0,5.8-1.5,8.5-2.7C75.1,65.1,79.5,61.1,82,55.3z"></path>
			</g>
		</g>
		<g>
			<g>
				<path d="M284,270.3c12.6-2.8,24.6-7.3,35.8-13.7c14.5-8.2,27-18.8,37.5-31.7c10.4-12.7,18.3-26.8,23.7-42.3      c4-11.6,6.3-23.5,7.2-35.8c1-13.4,0.1-26.7-2.9-39.7c-1.8-8.1-4.6-15.9-7.5-23.7c-4-10.8-10-20.6-16.8-29.8      c-7-9.5-15.3-17.8-24.4-25.2c-1.9-1.5-3.8-2.9-6.5-2.9c-1.5,0-3-0.6-4.4-1.2c-7.5-2.8-13.1-8-17.3-14.6      c-1.5-2.3-2.2-5.1-3.1-7.7c-0.3-1.1,0-2.2,1.6-1.7c5.3,1.7,10.6,3.4,15.9,5.2c4.3,1.4,8.6,3.2,10.5,7.7      c1.4,3.2,2.1,6.8,2.7,10.3c0.3,1.7,1,2.9,2.3,4c16.7,13.2,29.5,29.6,38.6,48.8c6.9,14.5,11.1,29.9,12.7,45.9      c1.8,17.2,0.4,34-3.8,50.7c-3.1,12.4-8,24.1-14.5,35.1c-11.3,19.3-26.3,34.9-45.1,47c-8.2,5.2-16.8,9.7-26.1,12.7      c-7,2.2-14.2,3.8-21.3,5.4l-0.4-1.6C280.5,271.1,282.2,270.7,284,270.3z"></path>
			</g>
			<g>
				<path d="M314.9,223.2c2-1.8,4.4-3.1,6.9-4.3c1.9-1,2.7-0.2,2.4,2c-0.2,1.2-0.4,2.3-0.5,3.5c-0.8,6.8-1.5,13.6-2.5,20.4      c-0.6,3.9-2.5,7.4-6,9.5c-3.3,1.9-6.8,3.4-10.3,4.9c-2.4,1.1-3.1,0.6-3.7-2c-0.1-0.5-0.2-1.1-0.2-1.7c-0.1,0,0.1,0,0,0      c-0.4-2.8-0.2-5.9,0.3-8.7C303,237.2,307.9,229.5,314.9,223.2z"></path>
			</g>
			<g>
				<path d="M329.7,259.1c-2-2.5-2-2.8,0.7-4.4c0.9-0.5,1.8-1.1,2.7-1.6c6.9-3.6,13.6-4.2,20.3,0.5c3.9,2.8,7.9,5.6,11.8,8.3      c2.2,1.5,7.6,3.1,7.1,4.8c-0.2,1-2.4,1.5-3.4,1.9c-5,2-10.2,2.3-15.5,1.8C344.2,269.5,335.9,266.6,329.7,259.1z"></path>
			</g>
			<g>
				<path d="M307.1,267.3c3.6-1.1,7.2-2,10.8-2.9c0,0.2,0-0.2,0,0c5-0.3,9,2.4,12.4,5.9c4.5,4.6,8.5,8.2,12.9,12.9      c0.6,0.6,2.8,2.4,1.8,3.2c-1,1-1.3,0.9-2.3,1.2c-0.4,0.2-1,0.2-1.4,0.2c-6,0.7-11.8-0.2-17.4-2.4c-7.7-3.1-14.3-7.5-17.8-15.5      C305.4,268.4,305.8,267.6,307.1,267.3z"></path>
			</g>
			<g>
				<path d="M335.6,240.3c-1.1,0.7-2.1,0.4-2.6-1c-1.6-4-2.3-8.2-1.7-12.5c1-7.6,2.6-16,8.2-21.2c3-2.8,2.9-2.7,6.2-4.5      c2.3-1.1,2.3,0.2,2.3,0.4c0.3,7.5,0.7,14.9,0.8,22.4c0.1,4-1.2,7.8-4.4,10.5C341.6,236.6,338.5,238.4,335.6,240.3z"></path>
			</g>
			<g>
				<path d="M381.3,203.2c-1.7-0.9-1.9-1.9-0.9-3.3c1.5-2.1,3-4.2,4.7-6.1c3.2-3.4,7.2-5.2,14.3-4.8c4.1,0.6,10.5,1.6,16.9,2.6      c1.3,0.2,3.3,0.4,3.7,1c0.5,1.2-1.3,2.6-2.2,3.6c-6.9,6.4-15.3,9.3-24.6,9.6C389.1,205.9,385,205.2,381.3,203.2z"></path>
			</g>
			<g>
				<path d="M410,175.9c-5.1,4-10.8,6.6-15.9,6.8c-5.3,0-5.5-0.1-4.8-3.9c0.3-1.4,0.5-2.8,0.8-4.1c1.2-4.9,3.6-9.1,8.5-11.2      c2.7-1.2,5.7-1.9,8.5-2.8c4.3-1.3,8.5-2.6,12.8-3.9c2.1-0.6,2.6-0.1,2.1,1.9c-0.3,1.1-0.5,2.2-1,3.2      C418.8,167.7,414.8,172.1,410,175.9z"></path>
			</g>
			<g>
				<path d="M351.3,243.7c-1.3-1-1.6-2-0.2-3.2c2.2-1.8,4.2-3.8,6.6-5.5c3.7-2.6,7.9-3.4,12.2-2c7,2.3,13.8,4.9,20.7,7.4      c1.3,0.5,1.6,1.4,0.5,2.4c-0.4,0.4-1,0.8-1.5,1.2c-5.9,4-12.7,5.3-19.4,5.6C363.1,249.4,356.7,248.1,351.3,243.7z"></path>
			</g>
			<g>
				<path d="M382,228.6c-5.6-0.4-10.8-2-15.2-5.6c-1.4-1.1-1.7-2.1-0.2-3.4c1-0.9,1.9-1.9,2.8-2.8c5.5-5,11.7-6.4,18.8-3.7      c5.2,2,10.4,3.9,15.6,5.9c1.2,0.5,1.3,0.8,1.9,1.8c0.2,1.4-0.3,2-1.4,2.7c-5.8,3.7-12.3,5.1-19.1,5      C384.1,228.6,383.1,228.6,382,228.6z"></path>
			</g>
			<g>
				<path d="M376.2,183.1c-1.7-0.9-3.5-1.8-4.9-3.1c-8.2-7.9-11.3-17.8-10.7-29c0.1-2.1,0.7-7.6,2.3-6.3      c5.2,5.7,10.3,11.1,15.1,16.7c1.2,1.4,2,3.3,2.6,5.2c1.9,5.7-0.3,10.8-2.5,15.9C378,182.9,376.7,183.4,376.2,183.1z"></path>
			</g>
			<g>
				<path d="M385.9,149.1c-1.2,5.1-1.6,5.4-6.1,2.8c-11-6.4-15.3-16.8-16.4-28.8c0-1.1-0.1-2.2,0-3.3c0.3-2.1,1.3-2.4,2.9-1.1      c3.2,2.7,6.4,5.3,9.7,8c1,0.8,2.1,1.7,3.1,2.4C386.1,134.2,387.7,141.1,385.9,149.1z"></path>
			</g>
			<g>
				<path d="M357.8,211c-0.3-0.4-0.7-0.9-1-1.4c-3.2-5-4.5-10.6-4.6-16.5c0.4-2.8,0.4-5.8,1.2-8.4c1-3.3,2.5-6.5,4.1-9.5      c0.9-1.7,1.9-1.4,2.7,0.5c1.1,2.6,2.2,5.3,3.3,7.9c1.2,2.7,2.3,5.4,3.5,8c3.3,7.6,1,14-4.3,19.7      C360.6,213.6,359.8,213.5,357.8,211z"></path>
			</g>
			<g>
				<path d="M400.7,155.4c-4.8,1.4-5.2,1.1-5.1-3.8c0-0.2,0-0.4,0-0.6c-0.1-6.2,1.5-11.7,7.4-14.9c6-3.2,12.2-6.1,18.4-9.1      c0.3-0.1,1.1-0.1,1.4,0.8c0.2,0.9,0.1,1.8-0.1,2.7c-0.7,4.7-2.8,8.8-5.5,12.5C412.9,148.8,407.8,153.4,400.7,155.4z"></path>
			</g>
			<g>
				<path d="M411.3,122.5c-3.2,4.3-7.1,7.8-12.5,9.3c-1.7,0.5-2.6-0.1-2.9-1.7c-0.3-2.1-0.5-4.3-0.8-6.4c0.1-4.9,1.9-9,5.9-11.9      c4.3-3.1,8.7-6.1,13-9.1c1-0.7,2.2-1.2,3.2-1.2c1.1,0.2,0.8,1.5,0.7,3.2c0,0.3,0,0.6,0,0.8C417.5,111.9,415.1,117.5,411.3,122.5      z"></path>
			</g>
			<g>
				<path d="M395.7,107.9c-1.3,0.7-2.7,1-3.3-0.7c-1-3-1.7-6-2.6-9.3c-0.7-3.3,0.9-4.6,2.2-6.2c4.6-5.4,9.5-10.5,14.4-15.7      c0.9-1,1.7-0.4,1.9,0.7c0.3,2.3,0.8,4.7,0.7,7c-0.3,5.2-1.7,10.2-4.3,14.8C402.6,102.4,399.8,105.8,395.7,107.9z"></path>
			</g>
			<g>
				<path d="M374.6,96.2c-6.3-1.3-10.9-5.1-14.7-10.1c-2.4-3.2-4.5-6.7-4.9-10.9c-0.2-2.1,0.5-2.6,2.4-1.7c3.9,1.7,7.8,3.4,11.7,5.2      c3.2,1.4,6.4,3.1,7.7,6.6c0.9,2.5,1.3,5.1,2,7.6C378.6,96.4,378,97,374.6,96.2z"></path>
			</g>
			<g>
				<path d="M384.2,115.2c0,1.1,0,1.8,0,2.4c-0.1,3.9-0.7,4.3-4.4,2.9c-7.7-2.8-12.4-8.6-15.3-15.9c-0.9-2.3-1.3-5-1.6-7.5      c-0.2-1.6,0.7-2.1,2-1.4c4,2.4,8,4.8,12.1,7.1C381.9,105.7,384.6,109.8,384.2,115.2z"></path>
			</g>
			<g>
				<path d="M387.6,83.6c-1.3,0.8-2.1,0.5-2.7-0.7c-0.6-1.1-1-2.3-1.5-3.5c-1.8-5.1-1.6-10,3.2-14.2c3.2-2.9,5.7-6.5,8.1-10      c0.9-1.4,1.9-1,2.2,0.2c0.4,1.1,0.6,2.3,0.9,3.4c0.2,0.9,0.4,1.9,0.3,2.9c-0.1,4.5-1,8.8-2.9,12.8      C393.6,78.2,391.1,81.4,387.6,83.6z"></path>
			</g>
			<g>
				<path d="M372.7,62.4c-3-3.9-4.2-8.2-2.3-13c2-4.9,4.2-9.7,6.3-14.6c0.1-0.3,0.3-1.2,0.9-1c0.5,0,1.6,1.8,2,2.7      c4.1,8.4,4.5,16.9,0,25.3C377,66.9,376.1,66.8,372.7,62.4z"></path>
			</g>
			<g>
				<path d="M360.8,45.8c-1-1.3-2-2.5-2.9-3.9c-1.7-2.8-2.8-5.9-1.5-9.2c2-5.1,4.1-10,6.2-15c0.5-1.1,1.4-1.1,2.1-0.2      c0.4,0.5,0.8,1.1,1.1,1.8c1.9,3.7,2.7,7.7,2.6,11.8c0.1,5.6-1.1,10.6-4.7,14.8C362.8,47.1,361.8,47.2,360.8,45.8z"></path>
			</g>
			<g>
				<path d="M348.3,29.4c-6.2-4.1-8.4-7.6-7.4-14.2c0.5-3.4,1.3-6.7,2-10c0.3-1.6,0.5-3.3,0.8-4.9c0-0.5,1.1-0.4,1.6-0.1      c0.9,0.7,1,1,1.6,1.9c4.1,5.1,6,11.1,6,17.7c0,3.2-0.7,6.2-2.3,9C350,30,349.3,30.1,348.3,29.4z"></path>
			</g>
			<g>
				<path d="M323.7,36.1c-0.3-0.6-0.5-1.5-0.2-1.9c0.1-0.2,1.1-0.3,1.7-0.3c4,0.4,7.9,0.8,11.9,1.2c5.5,0.5,9.3,3.2,11.2,8.6      c1.6,4.5,1.2,5.1-3.7,5.1c-4.5,0-8.5-1.5-12.2-3.8C328.8,42.7,325.7,40,323.7,36.1z"></path>
			</g>
			<g>
				<path d="M340.8,55.3c-0.3-0.6-0.6-1.3-0.2-2c0.2-0.5,1.3-0.3,2-0.2c3.2,0.6,6.4,1.5,9.6,2c6.7,1,11.2,4.2,12.7,11.2      c0.7,3.2,0.2,3.7-3.2,4.2c-2.7,0-5.8-1.5-8.5-2.7C347.6,65.1,343.3,61.1,340.8,55.3z"></path>
			</g>
		</g>
	</g>
</g>
</svg>
