<svg width="606" height="266" viewBox="0 0 606 266" fill="none" xmlns="http://www.w3.org/2000/svg">
<mask id="path-1-inside-1_1415_193" fill="white">
<path d="M561 0C585.853 2.51262e-06 606 20.1472 606 45V192.952C606 217.805 585.832 237.952 560.979 237.952H109.639L83 266L56.3613 237.952H45.0205C20.1677 237.952 0 217.805 0 192.952V45C2.6965e-05 20.1472 20.1472 7.24794e-08 45 0H561Z"/>
</mask>
<path d="M561 0L561 -1H561V0ZM606 45L607 45L606 45ZM109.639 237.952V236.952H109.209L108.914 237.263L109.639 237.952ZM83 266L82.2749 266.689L83 267.452L83.7251 266.689L83 266ZM56.3613 237.952L57.0864 237.263L56.7907 236.952H56.3613V237.952ZM0 45L-1 45V45H0ZM45 0L45 -1L45 0ZM561 0L561 1C585.301 1 605 20.6995 605 45L606 45L607 45C607 19.5949 586.405 -0.999997 561 -1L561 0ZM606 45H605V192.952H606H607V45H606ZM606 192.952H605C605 217.252 585.281 236.952 560.979 236.952V237.952V238.952C586.384 238.952 607 218.358 607 192.952H606ZM560.979 237.952V236.952H109.639V237.952V238.952H560.979V237.952ZM109.639 237.952L108.914 237.263L82.2749 265.311L83 266L83.7251 266.689L110.364 238.641L109.639 237.952ZM83 266L83.7251 265.311L57.0864 237.263L56.3613 237.952L55.6362 238.641L82.2749 266.689L83 266ZM56.3613 237.952V236.952H45.0205V237.952V238.952H56.3613V237.952ZM45.0205 237.952V236.952C20.7194 236.952 1 217.252 1 192.952H0H-1C-1 218.358 19.616 238.952 45.0205 238.952V237.952ZM0 192.952H1V45H0H-1V192.952H0ZM0 45L1 45C1.00003 20.6995 20.6995 1 45 1L45 0L45 -1C19.5949 -1 -0.999972 19.5949 -1 45L0 45ZM45 0V1H561V0V-1H45V0Z" fill="#B9FF66" mask="url(#path-1-inside-1_1415_193)"/>
</svg>
