<svg width="270" height="257" viewBox="0 0 270 257" fill="none" xmlns="http://www.w3.org/2000/svg">
<g clip-path="url(#clip0_1701_414)">
<g clip-path="url(#clip1_1701_414)">
<path d="M222.991 27.5824C223.035 27.5388 223.057 27.4735 223.057 27.3863V0.196083C222.838 0.152509 222.62 0.0871482 222.402 0V27.1902L215.004 34.6414C214.96 34.685 214.938 34.7503 214.938 34.8375V41.439C214.153 41.5697 213.629 42.2233 213.629 43.073C213.629 43.9227 214.349 44.707 215.266 44.707C216.182 44.707 216.902 43.9227 216.902 43.073C216.902 42.2887 216.313 41.5697 215.593 41.439V34.9682L222.991 27.5824Z" fill="#B9FF66"/>
<path d="M237.461 6.53613V64.0539C236.675 64.1846 236.086 64.8383 236.086 65.688C236.086 66.603 236.806 67.322 237.723 67.322C238.639 67.322 239.359 66.603 239.359 65.688C239.359 64.9036 238.836 64.25 238.116 64.1193V6.9283C237.897 6.79758 237.679 6.66686 237.461 6.53613Z" fill="#B9FF66"/>
<path d="M219.717 66.9952V53.0733L229.669 43.073C229.756 43.0294 229.799 42.9641 229.799 42.8769V2.61447C229.581 2.52732 229.363 2.44018 229.145 2.35303V42.7462L219.128 52.6811C219.084 52.7682 219.062 52.8554 219.062 52.9425V67.0605C218.342 67.2566 217.818 67.8449 217.818 68.6292C217.818 69.5443 218.539 70.2632 219.455 70.2632C220.372 70.2632 221.092 69.5443 221.092 68.6292C221.092 67.7795 220.503 67.1259 219.717 66.9952Z" fill="#B9FF66"/>
<g opacity="0.3">
<path d="M222.991 27.5824C223.035 27.5388 223.057 27.4735 223.057 27.3863V0.196083C222.838 0.152509 222.62 0.0871482 222.402 0V27.1902L215.004 34.6414C214.96 34.685 214.938 34.7503 214.938 34.8375V41.439C214.153 41.5697 213.629 42.2233 213.629 43.073C213.629 43.9227 214.349 44.707 215.266 44.707C216.182 44.707 216.902 43.9227 216.902 43.073C216.902 42.2887 216.313 41.5697 215.593 41.439V34.9682L222.991 27.5824Z" fill="black"/>
<path d="M237.461 6.53613V64.0539C236.675 64.1846 236.086 64.8383 236.086 65.688C236.086 66.603 236.806 67.322 237.723 67.322C238.639 67.322 239.359 66.603 239.359 65.688C239.359 64.9036 238.836 64.25 238.116 64.1193V6.9283C237.897 6.79758 237.679 6.66686 237.461 6.53613Z" fill="black"/>
<path d="M219.717 66.9952V53.0733L229.669 43.073C229.756 43.0294 229.799 42.9641 229.799 42.8769V2.61447C229.581 2.52732 229.363 2.44018 229.145 2.35303V42.7462L219.128 52.6811C219.084 52.7682 219.062 52.8554 219.062 52.9425V67.0605C218.342 67.2566 217.818 67.8449 217.818 68.6292C217.818 69.5443 218.539 70.2632 219.455 70.2632C220.372 70.2632 221.092 69.5443 221.092 68.6292C221.092 67.7795 220.503 67.1259 219.717 66.9952Z" fill="black"/>
</g>
<path d="M131.594 166.475L141.546 156.475C141.633 156.431 141.677 156.366 141.677 156.279V142.161C142.331 141.965 142.855 141.311 142.855 140.592C142.855 139.677 142.135 138.958 141.218 138.958C140.367 138.893 139.582 139.677 139.582 140.527C139.582 141.376 140.236 142.03 141.022 142.161V156.148L131.005 166.083C130.961 166.17 130.939 166.257 130.939 166.344V200.005C131.158 199.962 131.376 199.94 131.594 199.94V166.475Z" fill="#B9FF66"/>
<path d="M138.272 181.966L145.67 174.58C145.714 174.493 145.736 174.405 145.736 174.318V167.717C146.521 167.586 147.11 166.933 147.11 166.148C147.11 165.233 146.325 164.514 145.474 164.514C144.557 164.514 143.837 165.233 143.837 166.148C143.837 166.933 144.361 167.586 145.081 167.717V174.188L137.683 181.573C137.639 181.661 137.617 181.748 137.617 181.835V199.482C137.835 199.482 138.054 199.461 138.272 199.417V181.966Z" fill="#B9FF66"/>
<path d="M122.625 200.201C122.843 200.201 123.061 200.201 123.28 200.201V145.102C124 144.971 124.654 144.317 124.654 143.533C124.654 142.618 123.869 141.899 123.018 141.899C122.101 141.899 121.381 142.618 121.381 143.533C121.381 144.252 121.905 144.906 122.625 145.102V200.201Z" fill="#B9FF66"/>
<g opacity="0.3">
<path d="M131.594 166.475L141.546 156.475C141.633 156.431 141.677 156.366 141.677 156.279V142.161C142.331 141.965 142.855 141.311 142.855 140.592C142.855 139.677 142.135 138.958 141.218 138.958C140.367 138.893 139.582 139.677 139.582 140.527C139.582 141.376 140.236 142.03 141.022 142.161V156.148L131.005 166.083C130.961 166.17 130.939 166.257 130.939 166.344V200.005C131.158 199.962 131.376 199.94 131.594 199.94V166.475Z" fill="black"/>
<path d="M138.272 181.966L145.67 174.58C145.714 174.493 145.736 174.405 145.736 174.318V167.717C146.521 167.586 147.11 166.933 147.11 166.148C147.11 165.233 146.325 164.514 145.474 164.514C144.557 164.514 143.837 165.233 143.837 166.148C143.837 166.933 144.361 167.586 145.081 167.717V174.188L137.683 181.573C137.639 181.661 137.617 181.748 137.617 181.835V199.482C137.835 199.482 138.054 199.461 138.272 199.417V181.966Z" fill="black"/>
<path d="M122.625 200.201C122.843 200.201 123.061 200.201 123.28 200.201V145.102C124 144.971 124.654 144.317 124.654 143.533C124.654 142.618 123.869 141.899 123.018 141.899C122.101 141.899 121.381 142.618 121.381 143.533C121.381 144.252 121.905 144.906 122.625 145.102V200.201Z" fill="black"/>
</g>
<path d="M163.348 20.7197C158.045 19.3471 152.611 22.4191 151.236 27.7133C149.796 33.0076 152.939 38.4325 158.242 39.8051C163.479 41.2431 168.913 38.1057 170.354 32.8768C171.729 27.5826 168.651 22.1576 163.348 20.7197ZM170.026 32.7461C168.651 37.8443 163.414 40.8509 158.307 39.4783C153.2 38.1057 150.189 32.8768 151.564 27.844C152.939 22.7459 158.176 19.7393 163.283 21.1118C168.324 22.4191 171.336 27.648 170.026 32.7461Z" fill="#B9FF66"/>
<path d="M172.907 20.4582L174.347 17.3863C174.413 17.3209 174.413 17.2556 174.347 17.1902L171.336 14.7065C171.27 14.6411 171.205 14.6411 171.139 14.6411L168.39 16.6019C167.298 16.0355 166.164 15.5779 164.985 15.2294L164.461 11.8959C164.461 11.8306 164.396 11.7652 164.265 11.7652L160.402 11.373C160.337 11.373 160.271 11.4384 160.206 11.5038L159.093 14.7065C157.914 14.8808 156.736 15.164 155.557 15.5562L153.135 13.0724C153.069 13.0071 153.004 13.0071 152.938 13.0724L149.534 14.9679C149.469 15.0333 149.469 15.0986 149.469 15.164L150.385 18.5628C148.814 19.9354 147.57 21.5694 146.653 23.4649H143.118C143.052 23.3995 142.987 23.4649 142.922 23.5956L141.939 27.3212C141.939 27.3865 141.939 27.5173 142.005 27.5173L145.148 29.282C145.06 30.4149 145.104 31.5696 145.278 32.7461L142.332 34.707C142.267 34.7723 142.267 34.8377 142.267 34.9684L143.576 38.6286C143.642 38.694 143.707 38.694 143.773 38.694L147.308 38.3672C147.919 39.3694 148.639 40.2845 149.469 41.1124L148.159 44.4458C148.159 44.5111 148.159 44.5765 148.225 44.6419L151.433 46.8641C151.498 46.9295 151.564 46.9295 151.629 46.8641L154.313 44.5765C155.099 44.9251 155.885 45.2083 156.67 45.4262C156.998 45.4916 157.325 45.5569 157.652 45.6223L158.569 49.0864C158.569 49.1518 158.634 49.2172 158.7 49.2172H162.628C162.694 49.2172 162.759 49.1518 162.759 49.0864L163.676 45.6876C164.81 45.4698 165.923 45.1212 167.015 44.6419L169.699 46.9295C169.764 46.9295 169.83 46.9295 169.895 46.9295L173.103 44.7072C173.169 44.6419 173.169 44.5111 173.169 44.4458L171.925 41.2431C172.798 40.3716 173.54 39.4348 174.151 38.4326L177.555 38.7594C177.686 38.7594 177.752 38.694 177.752 38.6286L179.127 34.9684C179.127 34.8813 179.083 34.8159 178.996 34.7723L176.246 32.8769C176.421 31.6568 176.464 30.4367 176.377 29.2166L179.323 27.5826C179.389 27.5172 179.454 27.4519 179.454 27.3865L178.407 23.5956C178.407 23.5302 178.341 23.4649 178.276 23.4649L174.871 23.5302C174.347 22.4409 173.693 21.4169 172.907 20.4582ZM179.061 27.3212L176.115 28.9552C176.071 28.9988 176.05 29.0641 176.05 29.1513C176.137 30.4149 176.071 31.6568 175.853 32.8769C175.853 32.964 175.875 33.0294 175.919 33.0729L178.734 34.9684L177.49 38.3672L174.085 38.0404C173.998 38.0404 173.955 38.0622 173.955 38.1058C173.3 39.1951 172.514 40.1755 171.598 41.047C171.554 41.0906 171.554 41.1559 171.598 41.2431L172.776 44.4458L169.83 46.5373L167.211 44.2497C167.124 44.2061 167.058 44.2061 167.015 44.2497C165.88 44.729 164.701 45.0776 163.479 45.2955C163.392 45.3391 163.348 45.3826 163.348 45.4262L162.497 48.825H158.896L158.045 45.4262C158.002 45.3391 157.958 45.2955 157.914 45.2955C157.456 45.2301 157.129 45.1648 156.801 45.034C155.972 44.8162 155.186 44.5329 154.444 44.1843C154.357 44.1408 154.292 44.1408 154.248 44.1843L151.564 46.472L148.552 44.4458L149.861 41.1124C149.861 41.0688 149.84 41.0034 149.796 40.9163C148.967 40.0448 148.246 39.0862 147.635 38.0404C147.592 37.9968 147.526 37.975 147.439 37.975L143.904 38.3018L142.66 34.9684L145.606 32.9422C145.649 32.8986 145.671 32.8551 145.671 32.8115C145.497 31.5914 145.453 30.3714 145.54 29.1513C145.54 29.0641 145.497 29.0206 145.409 29.0206L142.332 27.2558L143.314 23.7917L146.784 23.857C146.872 23.857 146.937 23.8135 146.981 23.7263C147.832 21.8308 149.141 20.1314 150.778 18.6935C150.822 18.6499 150.843 18.6063 150.843 18.5628L149.861 15.2294L153.004 13.3992L155.426 15.883C155.47 15.9265 155.535 15.9265 155.623 15.883C156.801 15.4908 158.002 15.2294 159.224 15.0986C159.311 15.0551 159.376 15.0115 159.42 14.9679L160.533 11.7652L164.134 12.092L164.658 15.4254C164.701 15.469 164.745 15.5126 164.789 15.5562C166.011 15.8612 167.189 16.3405 168.324 16.9941C168.368 16.9941 168.433 16.9723 168.52 16.9287L171.205 15.0333L174.02 17.3209L172.58 20.3275C172.536 20.4147 172.536 20.48 172.58 20.5236C173.409 21.5258 174.085 22.5934 174.609 23.7263C174.653 23.8135 174.718 23.857 174.806 23.857L178.145 23.7917L179.061 27.3212Z" fill="#B9FF66"/>
<path d="M196.542 47.4525L198.047 45.2302C198.113 45.1649 198.113 45.0341 197.982 44.9688L194.905 42.4197C194.839 42.3543 194.774 42.3543 194.708 42.4197L192.744 44.2498C191.871 43.7705 190.955 43.4001 189.995 43.1387L189.929 40.3935C189.929 40.3281 189.864 40.2628 189.733 40.2628L185.739 39.8706C185.608 39.8706 185.543 39.936 185.543 40.0013L184.953 42.6811C183.993 42.8119 183.055 43.0297 182.138 43.3347L180.501 41.1125C180.436 41.0471 180.305 41.0471 180.239 41.0471L176.769 43.0733C176.639 43.1387 176.639 43.2694 176.704 43.3347L177.817 45.8838C176.508 46.995 175.46 48.4329 174.674 49.9362L171.859 49.5441C171.794 49.5441 171.728 49.6094 171.663 49.6748L170.615 53.5964C170.615 53.6618 170.681 53.7925 170.746 53.7925L173.365 54.8383C173.321 55.7969 173.365 56.7338 173.496 57.6488L170.943 58.9561C170.877 58.9561 170.812 59.0868 170.877 59.1521L172.252 62.9431C172.317 63.0738 172.383 63.1392 172.448 63.0738L175.264 62.4202C175.744 63.2481 176.311 63.9889 176.966 64.6425L175.591 67.1916C175.591 67.2569 175.591 67.3876 175.656 67.3876L178.995 69.7406C179.061 69.806 179.126 69.806 179.192 69.7406L181.091 67.5837C181.745 67.8452 182.4 68.063 183.055 68.2373C183.273 68.3245 183.535 68.3898 183.84 68.4334L184.168 71.244C184.168 71.3747 184.233 71.44 184.299 71.44H188.358C188.489 71.44 188.554 71.3747 188.554 71.244L188.882 68.4988C189.842 68.3245 190.758 68.0413 191.631 67.6491L193.464 69.7406C193.53 69.806 193.661 69.806 193.726 69.7406L197.065 67.453C197.131 67.3876 197.131 67.2569 197.131 67.1916L195.821 64.7732C196.476 64.076 197.065 63.3135 197.589 62.4856L200.273 63.1392C200.339 63.1392 200.404 63.0738 200.47 63.0084L201.845 59.2175C201.845 59.0868 201.845 59.0214 201.714 58.9561L199.291 57.7796C199.466 56.7773 199.51 55.7969 199.422 54.8383L201.976 53.7925C202.041 53.7925 202.107 53.6618 202.041 53.5964L200.994 49.6748C200.994 49.6094 200.928 49.5441 200.797 49.5441L198.178 49.9362C197.742 49.0647 197.196 48.2368 196.542 47.4525ZM201.714 53.5311L199.226 54.5115C199.16 54.5769 199.095 54.6422 199.095 54.7076C199.182 55.7534 199.139 56.7991 198.964 57.8449C198.899 57.9103 198.964 57.9756 199.029 58.041L201.452 59.2175L200.142 62.747L197.524 62.0934C197.458 62.0934 197.327 62.0934 197.327 62.1587C196.803 63.0738 196.171 63.9017 195.429 64.6425C195.363 64.7078 195.363 64.7732 195.363 64.8386L196.673 67.2569L193.595 69.4138L191.762 67.3223C191.762 67.2569 191.631 67.2569 191.566 67.2569C190.649 67.6927 189.689 67.9977 188.685 68.172C188.554 68.172 188.489 68.2373 188.489 68.3027L188.161 71.0479H184.43L184.168 68.3027C184.102 68.2373 184.102 68.172 183.971 68.1066C183.644 68.1066 183.382 67.9759 183.12 67.9105C182.422 67.7362 181.745 67.4966 181.091 67.1916C181.025 67.1916 180.96 67.1916 180.894 67.2569L179.061 69.3485L175.984 67.1916L177.359 64.7078C177.359 64.6425 177.359 64.5771 177.293 64.5118C176.595 63.8146 175.984 63.0302 175.46 62.1587C175.46 62.0934 175.395 62.028 175.264 62.028L172.514 62.6816L171.27 59.2175L173.758 57.9756C173.889 57.9103 173.889 57.8449 173.889 57.7796C173.714 56.7773 173.671 55.7752 173.758 54.7729C173.758 54.6422 173.692 54.5769 173.627 54.5769L171.008 53.5311L171.99 49.9362L174.74 50.3284C174.805 50.3937 174.936 50.3284 174.936 50.263C175.722 48.629 176.769 47.2564 178.079 46.0799C178.144 46.0146 178.21 45.9492 178.144 45.8838L177.031 43.3347L180.305 41.5046L181.942 43.6615C181.942 43.7269 182.073 43.7923 182.138 43.7269C183.098 43.3783 184.102 43.1604 185.15 43.0733C185.215 43.0733 185.281 43.0079 185.281 42.8772L185.804 40.2628L189.536 40.5896L189.602 43.2694C189.602 43.3347 189.667 43.4001 189.733 43.4655C190.78 43.7269 191.762 44.1191 192.679 44.642C192.744 44.642 192.81 44.642 192.875 44.5766L194.839 42.7465L197.655 45.1649L196.214 47.3871C196.149 47.4525 196.149 47.5179 196.214 47.5832C196.869 48.4111 197.436 49.3044 197.916 50.263C197.916 50.3284 197.982 50.3284 198.113 50.3284L200.732 49.9362L201.714 53.5311Z" fill="#B9FF66"/>
<path d="M188.555 47.7141C184.169 46.5376 179.586 49.152 178.407 53.5312C177.229 57.9104 179.847 62.4857 184.299 63.6622C188.686 64.8387 193.203 62.2242 194.382 57.7797L194.447 57.845C195.626 53.4005 193.007 48.8906 188.555 47.7141ZM194.055 57.7143C192.942 61.9628 188.555 64.4465 184.365 63.27C180.175 62.1589 177.621 57.845 178.8 53.5966C179.913 49.4134 184.234 46.9297 188.49 48.0409C192.68 49.152 195.168 53.5312 194.055 57.7143Z" fill="#B9FF66"/>
<path d="M160.402 56.9296L159.813 54.6419C159.77 54.5983 159.726 54.5766 159.682 54.5766L158.111 54.7726C157.849 54.2498 157.544 53.7704 157.194 53.3347L158.046 52.0275C158.089 51.9403 158.089 51.8967 158.046 51.8967L156.212 50.3281C156.169 50.2845 156.125 50.2845 156.081 50.3281L154.903 51.4392C154.379 51.1342 153.834 50.9163 153.266 50.7856V49.1516C153.266 49.1516 153.201 49.0862 153.135 49.0862L150.778 48.8901C150.735 48.8901 150.691 48.9119 150.647 48.9555L150.32 50.5242C149.753 50.6113 149.207 50.742 148.683 50.9163L147.701 49.6091C147.658 49.5655 147.614 49.5438 147.57 49.5438L145.541 50.7856C145.453 50.7856 145.432 50.8292 145.475 50.9163L146.13 52.4196C145.344 53.0733 144.755 53.8576 144.297 54.7726L142.66 54.5766C142.616 54.533 142.573 54.5548 142.529 54.6419L141.94 56.9296C141.896 56.9731 141.918 57.0167 142.005 57.0603L143.511 57.6485C143.511 58.215 143.555 58.7815 143.642 59.3479L142.136 60.0669C142.071 60.0669 142.071 60.1322 142.071 60.1976L142.856 62.4199C142.9 62.507 142.944 62.5288 142.987 62.4853L144.624 62.0931C144.93 62.5724 145.279 63.0299 145.672 63.4657L144.82 64.9036C144.82 64.9472 144.842 64.9908 144.886 65.0343L146.85 66.4069C146.894 66.4505 146.937 66.4505 146.981 66.4069L148.094 65.1651C148.443 65.3394 148.814 65.4701 149.207 65.5572C149.338 65.6008 149.491 65.6444 149.665 65.688L149.862 67.322C149.862 67.3656 149.905 67.3873 149.993 67.3873H152.35C152.415 67.3873 152.481 67.3873 152.481 67.322L152.611 65.688C153.179 65.6008 153.724 65.4265 154.248 65.1651L155.361 66.4069C155.405 66.4505 155.449 66.4505 155.492 66.4069L157.456 65.0343C157.5 65.0343 157.5 64.9908 157.456 64.9036L156.736 63.531C157.129 63.0953 157.478 62.6378 157.784 62.1584L159.355 62.5506C159.399 62.5506 159.442 62.5288 159.486 62.4853L160.272 60.1976C160.272 60.1976 160.272 60.1323 160.206 60.0669L158.766 59.3479C158.853 58.7815 158.875 58.215 158.831 57.6485L160.337 57.0603C160.402 57.0603 160.402 56.9949 160.402 56.9296ZM158.7 57.4524C158.657 57.496 158.635 57.5396 158.635 57.5832C158.678 58.1932 158.657 58.8032 158.569 59.4133C158.569 59.4569 158.591 59.5004 158.635 59.544L160.01 60.263L159.289 62.2892L157.718 61.9624C157.675 61.9188 157.631 61.9188 157.587 61.9624C157.282 62.4853 156.911 62.9646 156.474 63.4003C156.431 63.4439 156.431 63.4875 156.474 63.531L157.26 64.969L155.427 66.2108L154.379 64.969C154.336 64.969 154.292 64.969 154.248 64.969C153.681 65.2304 153.113 65.4047 152.546 65.4919C152.459 65.4919 152.415 65.5137 152.415 65.5572L152.219 67.1913H150.058L149.862 65.5572C149.862 65.5137 149.84 65.4919 149.796 65.4919C149.578 65.4483 149.403 65.4047 149.272 65.3611C148.88 65.2304 148.487 65.0779 148.094 64.9036C148.05 64.9036 148.007 64.9254 147.963 64.969L146.85 66.2108L145.082 64.969L145.868 63.4657C145.868 63.4221 145.868 63.3785 145.868 63.3349C145.432 62.9428 145.061 62.4853 144.755 61.9624C144.755 61.9188 144.711 61.897 144.624 61.897L143.053 62.2892L142.267 60.263L143.773 59.4786C143.817 59.4786 143.838 59.4351 143.838 59.3479C143.751 58.7815 143.729 58.1932 143.773 57.5832C143.773 57.5396 143.751 57.5178 143.707 57.5178L142.136 56.8642L142.725 54.7726L144.362 55.0341C144.406 55.0341 144.428 55.0123 144.428 54.9687C144.886 54.0537 145.541 53.204 146.326 52.485C146.37 52.485 146.37 52.4632 146.326 52.4196L145.672 50.9163L147.57 49.8052L148.552 51.1124C148.596 51.156 148.64 51.156 148.683 51.1124C149.251 50.9381 149.84 50.8074 150.451 50.7202C150.495 50.7202 150.516 50.6985 150.516 50.6549L150.844 49.0862L153.07 49.2823V50.851C153.07 50.8945 153.092 50.9381 153.135 50.9817C153.746 51.1124 154.314 51.3303 154.837 51.6353C154.881 51.6789 154.925 51.6789 154.968 51.6353L156.147 50.5895L157.784 51.9621L156.933 53.2693C156.933 53.3129 156.933 53.3565 156.933 53.4001C157.325 53.8794 157.675 54.4023 157.98 54.9687C157.98 55.0123 158.002 55.0341 158.046 55.0341L159.617 54.7726L160.206 56.9296L158.7 57.4524Z" fill="#B9FF66"/>
<path d="M152.481 53.4654C149.862 52.7465 147.178 54.3151 146.523 56.8642C145.803 59.4787 147.374 62.1585 149.927 62.8121C152.546 63.5311 155.23 62.0278 155.885 59.4133C156.605 56.7989 155.034 54.1844 152.481 53.4654ZM155.689 59.348C155.034 61.8317 152.481 63.335 149.993 62.616C147.505 61.9624 146.065 59.4133 146.719 56.9296C147.374 54.4459 149.927 53.0079 152.415 53.6615C154.903 54.3151 156.343 56.8642 155.689 59.348Z" fill="#B9FF66"/>
<path d="M92.5091 62.812C92.5091 62.7467 92.3782 62.6813 92.3127 62.6159L88.3845 62.3545C87.8607 61.0473 87.206 59.8272 86.4204 58.6943L88.45 55.2301C88.5154 55.0994 88.45 55.034 88.3845 54.9687L85.2419 51.766C85.1764 51.7006 85.0455 51.7006 84.98 51.766L81.5101 53.7922C79.4805 52.4196 77.2545 51.5045 74.8321 51.047L73.85 47.1254C73.85 47.06 73.7191 46.9946 73.6536 46.9946H69.1362C69.0707 46.9946 68.9397 47.06 68.9397 47.1254L67.9577 51.1124C66.6046 51.3738 65.317 51.766 64.0949 52.2889L60.9523 49.6091C60.8869 49.5437 60.7559 49.5437 60.6905 49.6091L57.0241 52.2235C56.9586 52.2889 56.8932 52.3542 56.9586 52.485L58.399 56.3413C57.4824 57.2999 56.6749 58.3457 55.9766 59.4786L51.8519 59.0864C51.7865 59.0864 51.6555 59.0864 51.6555 59.2172L50.0842 63.4003C50.0842 63.531 50.0842 63.5964 50.1497 63.6617L53.5542 65.9494C53.4232 66.908 53.3578 67.8884 53.3578 68.8906C53.3578 69.2174 53.3578 69.6096 53.3578 70.0017L49.8223 72.0279C49.6914 72.0933 49.6914 72.1587 49.6914 72.224L50.8699 76.6032C50.8699 76.6686 50.9353 76.7339 51.0663 76.7339L55.1255 76.6686C55.7365 77.9322 56.4567 79.0869 57.286 80.1327L55.5183 83.793C55.5183 83.8583 55.5183 83.989 55.5838 84.0544L59.0537 86.9303C59.1192 86.9956 59.2501 86.9956 59.3156 86.9303L62.5236 84.6426C63.7457 85.2963 65.0333 85.8191 66.3864 86.2113L67.0411 90.133C67.1066 90.2637 67.172 90.3291 67.2375 90.3291L71.755 90.7212C71.8423 90.6777 71.8859 90.6341 71.8859 90.5905L73.1953 86.8649C74.592 86.7342 75.9669 86.451 77.32 86.0152L80.0697 88.7604C80.1352 88.8258 80.2007 88.8258 80.3316 88.8258L84.1944 86.5381C84.3253 86.5381 84.3253 86.4074 84.3253 86.342L83.2778 82.5511C84.3253 81.636 85.3074 80.5903 86.1585 79.4791L89.9558 80.1981C90.0867 80.1981 90.1522 80.1327 90.2177 80.0674L92.1163 76.015C92.1163 75.8843 92.1163 75.8189 92.0508 75.7535L89.0392 73.2698C89.3884 71.8754 89.563 70.4811 89.563 69.0867L93.1638 67.4527C93.2293 67.4527 93.2948 67.3219 93.2948 67.2566L92.5091 62.812ZM71.4931 79.8713C65.3389 79.8713 60.4286 74.9692 60.4286 68.8906C60.4286 62.812 65.3389 57.8446 71.4931 57.8446C77.5819 57.8446 82.4921 62.812 82.4921 68.8906C82.4921 74.9692 77.5819 79.8713 71.4931 79.8713Z" fill="#B9FF66" stroke="#263238" stroke-linecap="round" stroke-linejoin="round"/>
<path d="M68.2196 99.5448C68.2196 99.4795 68.0886 99.4141 67.9577 99.4141L64.8151 99.6102C64.4223 98.5644 63.8985 97.5622 63.2438 96.6036L65.2079 94.1198C65.2734 94.0545 65.2734 93.9237 65.2079 93.8584L61.9344 90.525C61.8689 90.4596 61.738 90.4596 61.6725 90.525L59.1192 92.5512C57.4824 91.44 55.5838 90.6557 53.6196 90.3289L53.2268 87.0608C53.2268 86.9301 53.1613 86.8647 53.0304 86.8647H48.382C48.2511 86.8647 48.1856 86.9301 48.1201 87.0608L47.7928 90.3289C46.7016 90.5468 45.6541 90.8736 44.6502 91.3093L42.4897 88.8256C42.3587 88.7602 42.2932 88.7602 42.1623 88.8256L38.365 91.5054C38.2341 91.5708 38.2341 91.6361 38.2995 91.7668L39.8708 94.6427C39.0852 95.4271 38.4087 96.2985 37.8412 97.2572L34.6332 96.4728C34.5022 96.4728 34.4368 96.5382 34.3713 96.6036L32.8 100.983C32.7345 101.113 32.8 101.244 32.8655 101.244L35.8117 102.748C35.7244 103.532 35.6807 104.316 35.6807 105.101C35.6807 105.362 35.6807 105.667 35.6807 106.016L32.6036 107.192C32.5381 107.257 32.4727 107.388 32.4727 107.454L33.7166 111.963C33.7166 112.094 33.8475 112.16 33.913 112.16L37.1211 111.702C37.6448 112.704 38.2559 113.641 38.9542 114.513L37.1211 117.192C37.0556 117.258 37.1211 117.388 37.1865 117.454L40.7874 120.46C40.8529 120.526 40.9838 120.526 41.0493 120.46L43.3408 118.303C44.3446 118.826 45.3922 119.262 46.4834 119.611L46.5488 122.748C46.5488 122.879 46.6798 122.944 46.7452 122.944L51.3936 123.336H51.4591C51.5246 123.336 51.6555 123.271 51.6555 123.14L52.3102 120.068C53.4451 119.981 54.558 119.741 55.6492 119.349L57.4824 121.898C57.5479 121.964 57.6788 121.964 57.7443 121.898L61.8035 119.611C61.9344 119.545 61.9344 119.415 61.9344 119.349L60.6905 116.473C61.5634 115.733 62.3272 114.883 62.9819 113.924L65.9281 114.905C66.0591 114.97 66.1245 114.905 66.19 114.839L68.1541 110.591C68.2196 110.525 68.1541 110.395 68.0886 110.329L65.4043 108.695C65.7099 107.606 65.8626 106.473 65.8626 105.297L68.8743 104.447C69.0052 104.382 69.0707 104.316 69.0052 104.185L68.2196 99.5448ZM59.9048 105.035C59.9048 110.133 55.8456 114.186 50.8044 114.186C45.6977 114.186 41.6385 110.133 41.6385 105.035C41.6385 100.002 45.6977 95.9499 50.8044 95.9499C55.8456 95.9499 59.9048 100.002 59.9048 105.035Z" fill="#B9FF66" stroke="#263238" stroke-linecap="round" stroke-linejoin="round"/>
</g>
<g clip-path="url(#clip2_1701_414)">
<path d="M251.603 231.117C251.603 245.366 195.299 257 125.834 257C56.3701 257 0 245.366 0 231.117C0 216.803 56.3701 205.234 125.834 205.234C195.299 205.234 251.603 216.803 251.603 231.117Z" fill="#B9FF66"/>
<path opacity="0.5" d="M251.603 231.117C251.603 245.366 195.299 257 125.834 257C56.3701 257 0 245.366 0 231.117C0 216.803 56.3701 205.234 125.834 205.234C195.299 205.234 251.603 216.803 251.603 231.117Z" fill="white"/>
</g>
<g clip-path="url(#clip3_1701_414)">
<path d="M133.167 231.509H35.5508L52.3767 183.73H116.145L133.167 231.509Z" fill="#263238"/>
<path d="M133.428 235.496H35.2227V231.509H133.428V235.496Z" fill="#263238"/>
<path d="M133.167 231.509H35.5508L52.3767 183.73H116.145L133.167 231.509Z" fill="white" stroke="#263238" stroke-linecap="round" stroke-linejoin="round"/>
<path d="M133.167 231.509H35.5508L52.3767 183.73H116.145L133.167 231.509Z" stroke="#263238" stroke-linecap="round" stroke-linejoin="round"/>
<path d="M56.3691 219.679H128.976" stroke="#263238" stroke-linecap="round" stroke-linejoin="round"/>
<path d="M39.6738 219.679H53.1608" stroke="#263238" stroke-linecap="round" stroke-linejoin="round"/>
<path d="M110.316 207.914H124.785" stroke="#263238" stroke-linecap="round" stroke-linejoin="round"/>
<path d="M43.8652 207.914H101.283" stroke="#263238" stroke-linecap="round" stroke-linejoin="round"/>
<path d="M47.9902 196.083H120.532" stroke="#263238" stroke-linecap="round" stroke-linejoin="round"/>
</g>
<g clip-path="url(#clip4_1701_414)">
<path d="M90.4785 157.847C90.5658 157.716 90.6095 157.629 90.6095 157.585C90.5658 157.673 90.5222 157.76 90.4785 157.847Z" fill="#B9FF66"/>
<path d="M90.5444 155.755C90.4134 155.167 90.217 154.383 89.8242 153.468C90.0861 154.252 90.348 155.036 90.5444 155.755Z" fill="#B9FF66"/>
<path d="M72.9986 162.422C72.9331 162.488 72.5403 163.011 72.082 163.468L72.2784 163.337C72.9986 162.749 73.326 161.9 73.2605 160.984C73.195 160.396 73.0641 159.612 72.9986 158.762C73.195 160.723 73.0641 162.226 72.9986 162.422Z" fill="#B9FF66"/>
<path d="M92.2461 137.52C92.2897 137.258 92.3552 137.041 92.4425 136.866C92.3552 136.997 92.2897 137.215 92.2461 137.52Z" fill="#B9FF66"/>
<path d="M87.9902 159.612C88.3831 159.35 89.0378 158.958 89.5615 158.631C88.9723 158.893 88.3831 159.089 87.9902 159.612Z" fill="#B9FF66"/>
<path d="M71.9516 146.736C71.9516 146.823 71.9516 146.888 71.9516 146.932C71.8206 144.775 71.8206 142.879 72.0171 141.834C72.148 141.049 72.5408 140.33 73.1955 139.677C71.2314 141.311 71.8861 145.298 71.9516 146.736Z" fill="#B9FF66"/>
<path d="M92.7701 146.801C92.4427 147.585 91.2642 148.043 90.3477 148.762C91.3952 148.043 92.4427 147.847 92.7701 146.801Z" fill="#B9FF66"/>
<path d="M81.7715 134.317C82.3607 134.055 82.6881 133.99 82.6881 133.925C82.5135 133.925 82.3607 133.903 82.2298 133.859L81.7715 134.317Z" fill="#B9FF66"/>
<path d="M90.3477 170.396L97.7458 172.619C97.7895 172.619 97.8113 172.619 97.8113 172.619C95.3234 171.9 90.7405 170.527 90.3477 170.396Z" fill="#B9FF66"/>
<path d="M117.256 202.423C115.358 202.75 113.459 203.273 111.691 203.992C111.299 204.166 110.884 204.362 110.447 204.58C108.287 205.691 106.323 207.064 104.162 208.11C94.2108 212.946 82.1642 209.025 71.427 211.705C68.219 212.489 65.2073 213.861 61.9338 214.319C56.4997 215.103 51.0657 213.273 45.959 211.182C46.0899 204.515 46.5482 196.41 47.4648 193.534C48.8397 190.397 51.524 189.09 54.1428 187.913C55.3867 187.456 56.8271 187.325 57.7437 186.671C64.6836 184.514 68.6118 181.116 70.7723 179.089L90.5444 183.534L97.9426 179.874C100.758 180.462 103.508 180.527 106.061 181.181C111.626 182.88 113.066 186.541 114.507 189.547C114.725 190.157 114.943 190.789 115.161 191.443C115.882 194.122 116.667 198.698 117.256 202.423Z" fill="#B9FF66"/>
<path d="M90.4781 177.521C90.4781 177.521 90.4781 177.194 90.5436 176.736C90.6745 175.952 91.0673 174.776 92.3113 174.318C92.3113 174.274 92.3113 174.253 92.3113 174.253C93.5552 173.599 95.2575 173.207 96.5669 172.945C96.9597 172.815 97.3525 172.706 97.7453 172.619L90.3472 170.396C90.3472 170.396 89.8889 169.547 89.1032 166.801C88.9286 166.279 88.7541 165.734 88.5795 165.167C87.8593 162.814 87.0736 160.331 87.5974 159.873C87.6847 159.786 87.8157 159.699 87.9902 159.612C88.3831 159.089 88.9723 158.893 89.5615 158.631C89.9544 158.37 90.3472 158.108 90.4781 157.847C90.5218 157.76 90.5654 157.673 90.6091 157.586C90.6091 157.259 90.6745 156.932 90.6091 156.605C90.6091 156.387 90.5872 156.104 90.5436 155.755C90.3472 155.036 90.0853 154.252 89.8234 153.468C88.7104 150.396 88.9723 149.677 90.3472 148.762C91.2638 148.043 92.4422 147.585 92.7696 146.801C92.8132 146.67 92.8569 146.539 92.9005 146.409C92.9005 146.191 92.9005 145.929 92.9005 145.624C92.7041 143.729 91.853 139.35 92.2458 137.52C92.2895 137.215 92.3549 136.997 92.4422 136.866C92.7041 136.605 93.0315 136.474 93.4243 136.539C93.5116 136.539 93.5771 136.539 93.6207 136.539C90.6745 135.493 86.7463 134.448 82.6871 133.925C82.6871 133.99 82.3598 134.056 81.7705 134.317C80.0028 135.101 75.7472 137.454 73.1939 139.677C72.5392 140.33 72.1464 141.049 72.0154 141.833C71.819 142.879 71.819 144.775 71.95 146.932C72.0154 148.827 72.7356 156.801 72.9975 158.762C73.0629 159.612 73.1939 160.396 73.2594 160.984C73.3248 161.899 72.9975 162.749 72.2773 163.337L72.0809 163.468C71.819 163.795 71.4917 164.122 71.4917 164.122C71.6881 164.71 71.7535 165.429 71.819 166.082C71.95 166.736 72.0154 167.52 72.0809 168.501C72.4082 171.638 72.6047 174.71 72.0809 177.782C72.0809 177.782 71.5571 178.305 70.7715 179.089L90.5436 183.534C90.5436 183.534 97.418 181.181 97.3525 181.116L97.9418 179.874C96.6324 179.612 92.5732 178.566 90.4781 177.521ZM82.0324 161.965L79.1517 161.834L79.2172 159.546C76.5984 158.762 74.6997 156.344 74.6997 153.468C74.6997 153.119 74.7215 152.792 74.7652 152.487L72.8665 151.703L73.7831 149.415L75.6818 150.134C76.6638 148.5 78.3661 147.389 80.3302 147.128L80.3957 145.428L83.2764 145.559L83.2109 147.455C85.6333 148.37 87.4665 150.723 87.4665 153.468C87.4665 156.605 85.1095 159.22 82.0979 159.742L82.0324 161.965Z" fill="#B9FF66"/>
<path d="M71.2969 163.729C71.4278 164.187 71.6897 164.906 71.8206 166.082C71.7552 165.429 71.6897 164.71 71.4933 164.122C71.4933 164.078 71.4278 163.947 71.2969 163.729Z" fill="#B9FF66"/>
<path d="M72.082 168.501C72.4094 173.011 72.082 177.782 72.082 177.782C72.6058 174.71 72.4094 171.638 72.082 168.501Z" fill="#B9FF66"/>
<path d="M70.7725 134.448C70.7725 134.448 70.7507 134.448 70.707 134.448C71.0126 134.317 71.3399 134.23 71.6891 134.187C71.3399 134.23 71.0344 134.317 70.7725 134.448Z" fill="white"/>
<path d="M63.2441 143.01C63.4187 142.618 63.5933 142.226 63.7679 141.833C63.5497 142.269 63.3751 142.661 63.2441 143.01Z" fill="white"/>
<path d="M63.9629 160.004C65.927 161.18 68.6768 161.638 69.7898 162.226C68.2839 161.376 66.1234 160.984 64.7485 160.396C64.443 160.265 64.1811 160.135 63.9629 160.004Z" fill="white"/>
<path d="M62.7204 159.089C62.2403 158.653 61.8693 158.152 61.6074 157.585C61.8038 158.108 62.1967 158.631 62.7204 159.089Z" fill="white"/>
<path d="M68.6112 147.651C68.6112 147.651 73.2596 134.709 79.4139 133.663C77.2533 133.598 74.3726 133.663 72.4085 133.99C72.1466 134.034 71.9066 134.099 71.6883 134.186C71.3392 134.23 71.0118 134.317 70.7063 134.448C68.2839 135.428 65.1413 139.023 63.7664 141.834C63.5918 142.226 63.4172 142.618 63.2426 143.01C62.7843 144.383 62.2606 146.082 61.8023 147.847C61.6059 148.631 61.5404 149.285 61.4095 149.873C61.2785 150.984 61.0821 152.226 60.9512 153.468C61.0821 155.167 61.0821 156.474 61.6059 157.586C61.8678 158.152 62.2388 158.653 62.7189 159.089C62.8062 159.22 62.9153 159.329 63.0462 159.416C63.0899 159.459 63.1335 159.503 63.1772 159.546C63.3081 159.634 63.4609 159.721 63.6355 159.808C63.6791 159.851 63.7446 159.895 63.8319 159.939C63.8755 159.982 63.9192 160.004 63.9628 160.004C64.1811 160.135 64.4429 160.265 64.7485 160.396C66.1233 160.984 68.2839 161.377 69.7897 162.226C69.9643 162.27 70.0952 162.335 70.1825 162.422C70.4881 162.64 70.7499 162.88 70.9682 163.141L68.6112 147.651Z" fill="white"/>
<path d="M63.2432 159.612C63.3742 159.699 63.5051 159.764 63.636 159.808C63.4614 159.721 63.3087 159.634 63.1777 159.546C63.2214 159.546 63.2432 159.568 63.2432 159.612Z" fill="white"/>
<path d="M70.9692 163.141C70.751 162.88 70.4891 162.64 70.1836 162.422C70.6419 162.88 71.0347 163.403 71.2966 163.73C71.1656 163.468 71.0783 163.294 71.0347 163.207C71.0347 163.163 71.0129 163.141 70.9692 163.141Z" fill="white"/>
<path d="M71.0337 163.206C70.9904 163.163 70.9688 163.141 70.9688 163.141C71.0121 163.141 71.0337 163.163 71.0337 163.206Z" fill="white"/>
<path d="M71.0352 163.207C71.0788 163.294 71.1661 163.468 71.297 163.729C71.428 163.947 71.4935 164.078 71.4935 164.122C71.4062 163.773 71.2534 163.468 71.0352 163.207Z" fill="white"/>
<path d="M71.9512 146.932C72.1476 150.723 72.6059 155.494 72.9987 158.762C72.7368 156.801 72.0166 148.827 71.9512 146.932Z" fill="white"/>
<path d="M73.1953 139.677C75.7487 137.454 80.0043 135.101 81.772 134.317C79.8733 135.101 75.3558 137.193 73.1953 139.677Z" fill="white"/>
<path d="M79.414 133.664C73.2597 134.709 68.6113 147.651 68.6113 147.651L70.9683 163.141C70.9683 163.141 70.9901 163.163 71.0337 163.207C71.252 163.468 71.4047 163.773 71.492 164.122C71.492 164.122 71.8194 163.795 72.0813 163.468C72.5396 163.011 72.9324 162.488 72.9979 162.422C73.0633 162.226 73.1943 160.723 72.9979 158.762C72.605 155.494 72.1467 150.723 71.9503 146.932C71.9503 146.888 71.9503 146.823 71.9503 146.736C71.8849 145.298 71.2301 141.311 73.1943 139.677C75.3548 137.193 79.8723 135.102 81.7709 134.317L82.2292 133.86C81.269 133.773 80.3306 133.707 79.414 133.664Z" fill="white"/>
<path d="M105.669 154.84C105.93 155.036 106.127 155.363 106.192 155.69C106.454 154.317 105.014 154.252 103.115 152.422C103.966 153.337 104.883 154.187 105.669 154.84Z" fill="white"/>
<path d="M102.198 151.311C101.674 150.527 101.347 149.612 101.15 148.435C101.194 148.871 101.26 149.241 101.347 149.546C101.412 150.134 101.74 150.723 102.198 151.311Z" fill="white"/>
<path d="M105.407 162.422L105.472 162.945L106.192 167.455C105.996 165.69 104.752 158.631 104.752 158.631L105.407 162.422Z" fill="white"/>
<path d="M102.066 171.638C102.11 171.638 102.131 171.616 102.131 171.573C102.131 171.573 102.11 171.573 102.066 171.573C102.066 171.616 102.066 171.638 102.066 171.638Z" fill="white"/>
<path d="M96.5686 137.912C96.5686 137.912 96.3722 137.781 96.1758 137.65C96.3504 137.781 96.525 137.912 96.6995 138.043C96.6123 137.955 96.5686 137.912 96.5686 137.912Z" fill="white"/>
<path d="M95.9788 137.52C95.455 137.258 94.6694 136.801 93.9492 136.604C94.6694 136.931 95.1277 137.127 95.1277 137.127C95.4332 137.258 95.7169 137.389 95.9788 137.52Z" fill="white"/>
<path d="M100.365 144.383C100.103 143.075 99.6449 141.899 99.1211 140.984C99.7103 142.095 100.103 143.272 100.365 144.383Z" fill="white"/>
<path d="M100.758 172.684C102.133 171.965 104.293 170.396 104.293 170.396L100.823 172.619C100.823 172.619 100.801 172.641 100.758 172.684Z" fill="white"/>
<path d="M92.4434 136.866C92.7052 136.67 93.0326 136.539 93.4254 136.539C93.0326 136.474 92.7052 136.604 92.4434 136.866Z" fill="white"/>
<path d="M92.2469 137.52C91.854 139.35 92.7051 143.729 92.9016 145.624C92.7706 143.402 91.985 139.154 92.2469 137.52Z" fill="white"/>
<path d="M92.9005 146.409C92.8568 146.539 92.8132 146.67 92.7695 146.801C92.7695 146.801 92.7695 146.779 92.7695 146.735C92.8132 146.648 92.8568 146.539 92.9005 146.409Z" fill="white"/>
<path d="M89.3013 150.33C89.4322 149.677 89.8251 149.154 90.3488 148.762C88.9739 149.677 88.7121 150.396 89.8251 153.468C89.4977 152.291 89.1704 151.115 89.3013 150.33Z" fill="white"/>
<path d="M95.1268 137.128C95.1268 137.128 94.6685 136.932 93.9484 136.605C93.8611 136.605 93.7956 136.583 93.752 136.54C94.2321 136.757 94.6904 136.954 95.1268 137.128Z" fill="white"/>
<path d="M90.5449 155.755C90.5886 156.104 90.6104 156.387 90.6104 156.605C90.6104 156.518 90.6104 156.431 90.6104 156.344C90.6104 156.169 90.5886 155.973 90.5449 155.755Z" fill="white"/>
<path d="M106.192 167.455L105.472 162.945L103.443 163.403V162.88L105.407 162.423L104.752 158.632C104.752 158.632 105.931 157.128 106.192 155.69C106.127 155.364 105.931 155.037 105.669 154.841C104.883 154.187 103.966 153.337 103.115 152.422C102.766 152.074 102.461 151.703 102.199 151.311C101.74 150.723 101.413 150.135 101.348 149.546C101.26 149.241 101.195 148.871 101.151 148.435C100.889 147.324 100.693 146.017 100.366 144.383C100.104 143.272 99.7109 142.095 99.1216 140.984C98.205 139.415 97.1575 138.37 96.6992 138.043C96.5246 137.912 96.35 137.781 96.1755 137.651C96.1318 137.607 96.0663 137.564 95.979 137.52C95.7172 137.389 95.4335 137.259 95.1279 137.128C94.6915 136.954 94.2332 136.757 93.753 136.54C93.6658 136.54 93.5566 136.54 93.4257 136.54C93.0329 136.54 92.7055 136.67 92.4436 136.866C92.3563 137.041 92.2909 137.259 92.2472 137.52C91.9853 139.154 92.771 143.402 92.9019 145.625C92.9019 145.886 92.9019 146.148 92.9019 146.409C92.8583 146.54 92.8146 146.649 92.771 146.736C92.771 146.779 92.771 146.801 92.771 146.801C92.4436 147.847 91.3961 148.043 90.3486 148.762C89.8248 149.154 89.432 149.677 89.301 150.331C89.1701 151.115 89.4975 152.292 89.8248 153.468C90.2176 154.383 90.414 155.167 90.545 155.756C90.5886 155.974 90.6105 156.17 90.6105 156.344C90.6105 156.017 90.6105 155.69 90.6105 155.69C90.6105 155.69 96.2409 156.736 98.5979 157.913C98.9907 158.109 99.2526 158.305 99.3835 158.566C100.3 159.808 100.693 168.959 100.824 171.769C100.824 172.292 100.824 172.619 100.824 172.619L104.294 170.397C104.556 170.201 106.389 169.024 106.192 167.455ZM99.2526 152.814L97.6813 152.488L95.5207 152.03H97.6158H98.7943H99.8418L99.2526 152.814Z" fill="white"/>
<path d="M75.5523 152.749L74.7666 152.488C74.723 152.793 74.7012 153.119 74.7012 153.468C74.7012 156.344 76.5998 158.762 79.2186 159.547V159.35L82.0993 159.481V159.743C85.111 159.22 87.4679 156.605 87.4679 153.468C87.4679 150.723 85.6348 148.37 83.2123 147.455L83.1469 148.108L80.2662 147.912L80.3316 147.128C78.3675 147.389 76.6653 148.501 75.6832 150.135L76.4689 150.461L75.5523 152.749ZM81.0518 149.089C83.4742 149.089 85.4383 150.984 85.4383 153.403C85.4383 155.821 83.4742 157.782 81.0518 157.782C78.6294 157.782 76.7308 155.821 76.7308 153.403C76.7308 150.984 78.6294 149.089 81.0518 149.089Z" fill="#263238"/>
<path d="M99.252 152.814L99.8412 152.03H98.7937H97.6152L97.6807 152.487L99.252 152.814Z" fill="#263238"/>
<path d="M97.6801 152.487L97.6146 152.03H95.5195L97.6801 152.487Z" fill="#263238"/>
<path d="M103.115 171.181C102.657 171.442 102.329 171.573 102.133 171.573C102.722 171.573 103.049 171.311 103.115 171.181Z" fill="#263238"/>
<path d="M90.4791 157.847C90.3482 158.109 89.9553 158.37 89.5625 158.632C89.8899 158.435 90.2827 158.239 90.4791 157.847Z" fill="#263238"/>
<path d="M98.9241 172.292C96.829 170.135 91.9187 164.383 91.9187 164.383L90.6093 157.585C90.6093 157.629 90.5657 157.716 90.4784 157.847C90.282 158.239 89.8891 158.435 89.5618 158.631C89.038 158.958 88.3833 159.35 87.9905 159.612C87.8159 159.83 87.685 160.113 87.5977 160.461C87.5977 161.442 88.056 163.337 88.5797 165.167C88.7543 165.734 88.9289 166.278 89.1035 166.801C89.7582 168.828 90.3474 170.396 90.3474 170.396C90.7402 170.527 95.3232 171.9 97.8111 172.619C98.2039 172.488 98.5749 172.379 98.9241 172.292Z" fill="#263238"/>
<path d="M89.1035 166.801C89.8892 169.546 90.3475 170.396 90.3475 170.396C90.3475 170.396 89.7582 168.827 89.1035 166.801Z" fill="#263238"/>
<path d="M90.6748 157.259C90.6748 157.084 90.653 156.866 90.6094 156.605C90.6748 156.932 90.6094 157.259 90.6094 157.585C90.6094 157.542 90.6094 157.498 90.6094 157.455C90.653 157.368 90.6748 157.302 90.6748 157.259Z" fill="#263238"/>
<path d="M87.9909 159.612C87.8163 159.699 87.6854 159.786 87.5981 159.873C87.0743 160.331 87.86 162.815 88.5801 165.168C88.0564 163.337 87.5981 161.442 87.5981 160.462C87.6854 160.113 87.8163 159.83 87.9909 159.612Z" fill="#263238"/>
<path d="M99.3833 158.566C99.2524 158.305 98.9905 158.109 98.5977 157.913L100.824 171.769C100.693 168.959 100.3 159.808 99.3833 158.566Z" fill="#263238"/>
<path d="M90.6748 157.259C90.7185 156.997 90.6967 156.692 90.6094 156.344C90.6094 156.431 90.6094 156.518 90.6094 156.605C90.653 156.867 90.6748 157.085 90.6748 157.259Z" fill="#263238"/>
<path d="M98.8587 173.141C99.9062 172.88 100.364 172.749 100.364 172.749C100.823 173.337 100.954 172.618 100.954 172.618L98.5968 157.912C96.2398 156.736 90.6094 155.69 90.6094 155.69C90.6094 155.69 90.6094 156.017 90.6094 156.344C90.6967 156.692 90.7185 156.997 90.6748 157.259C90.6748 157.346 90.653 157.411 90.6094 157.455C90.6094 157.542 90.6094 157.585 90.6094 157.585L91.9188 164.383C91.9188 164.383 96.7636 171.05 98.8587 173.141Z" fill="#263238"/>
<path d="M90.6748 157.259C90.6748 157.302 90.653 157.368 90.6094 157.455C90.653 157.411 90.6748 157.346 90.6748 157.259Z" fill="#263238"/>
<path d="M103.441 162.88V163.403L105.471 162.945L105.406 162.422L103.441 162.88Z" fill="#263238"/>
<path d="M81.0515 157.847C83.4739 157.847 85.438 155.886 85.438 153.468C85.438 151.05 83.4739 149.089 81.0515 149.089C78.6291 149.089 76.7305 151.05 76.7305 153.468C76.7305 155.886 78.6291 157.847 81.0515 157.847ZM81.0515 150.592C82.6883 150.592 83.9322 151.899 83.9322 153.468C83.9322 155.037 82.6883 156.344 81.0515 156.344C79.4802 156.344 78.1708 155.037 78.1708 153.468C78.1708 151.899 79.4802 150.592 81.0515 150.592Z" fill="white" stroke="#263238" stroke-miterlimit="10"/>
<path d="M81.0506 156.344C82.6874 156.344 83.9313 155.036 83.9313 153.468C83.9313 151.899 82.6874 150.592 81.0506 150.592C79.4793 150.592 78.1699 151.899 78.1699 153.468C78.1699 155.036 79.4793 156.344 81.0506 156.344Z" fill="white" stroke="#263238" stroke-miterlimit="10"/>
<path d="M83.2108 147.454L83.2763 145.559L80.3955 145.428L80.3301 147.128C80.592 147.128 80.832 147.128 81.0502 147.128C81.7922 147.128 82.5124 147.237 83.2108 147.454Z" fill="#263238"/>
<path d="M83.1463 148.108L83.2118 147.455C82.5134 147.237 81.7933 147.128 81.0513 147.128C80.833 147.128 80.593 147.128 80.3311 147.128L80.2656 147.912L83.1463 148.108Z" fill="#263238"/>
<path d="M79.2178 159.546L79.1523 161.834L82.033 161.965L82.0985 159.742C81.7493 159.786 81.4002 159.808 81.051 159.808C80.4399 159.808 79.8289 159.721 79.2178 159.546Z" fill="#263238"/>
<path d="M79.2188 159.351V159.547C79.8298 159.721 80.4409 159.808 81.0519 159.808C81.4011 159.808 81.7503 159.786 82.0995 159.743V159.481L79.2188 159.351Z" fill="#263238"/>
<path d="M75.6824 150.135L73.7838 149.416L72.8672 151.703L74.7658 152.488C74.8968 151.638 75.2241 150.853 75.6824 150.135Z" fill="#263238"/>
<path d="M75.5513 152.749L76.4679 150.461L75.6822 150.134C75.2239 150.853 74.8966 151.638 74.7656 152.487L75.5513 152.749Z" fill="#263238"/>
<path d="M71.4922 164.122L72.998 162.422C72.998 162.422 70.9029 143.468 72.0814 140.984C73.3254 138.5 81.1164 135.101 82.0329 134.056" stroke="#263238" stroke-linecap="round" stroke-linejoin="round"/>
<path d="M46.6137 201.443L45.959 211.182C45.959 211.182 53.5536 214.842 59.7733 214.515C65.9275 214.123 71.8199 211.705 71.8199 211.705C71.8199 211.705 71.6889 208.24 70.5104 206.999C69.3974 205.757 67.9571 204.123 64.749 204.384C61.6064 204.711 55.3213 205.168 51.7859 203.731C48.3159 202.358 46.6137 201.443 46.6137 201.443Z" fill="white"/>
<path d="M90.3471 170.396C90.3471 170.396 86.9426 161.18 87.5973 159.873C88.252 158.566 90.0197 159.546 90.6089 157.455C91.2637 155.298 88.8412 152.357 89.2995 150.33C89.7578 148.239 92.4421 148.108 92.7695 147.193C93.0968 146.343 92.1802 141.376 92.1802 138.696C92.1148 135.951 93.4242 136.539 93.4242 136.539" stroke="#263238" stroke-linecap="round" stroke-linejoin="round"/>
<path d="M82.4261 164.318C82.4261 164.318 87.4673 168.632 88.6458 169.612C89.8243 170.658 98.2699 173.272 99.7103 172.946C101.085 172.684 105.537 170.004 106.126 168.632C106.716 167.259 104.752 158.631 104.752 158.631C104.752 158.631 105.734 157.782 106.257 156.278C106.716 154.775 105.668 154.841 104.097 153.468C102.591 152.03 101.216 149.938 100.758 146.67C100.365 143.468 99.252 139.677 95.1274 137.128C91.0682 134.513 80.5929 133.729 75.4207 133.794C70.2486 133.794 67.3024 135.886 64.9454 139.677C62.5885 143.402 59.9042 153.991 61.6064 157.586C63.2432 161.181 68.5463 160.984 70.1831 162.422C71.8199 163.86 71.8199 166.083 71.8199 166.083C71.8199 166.083 72.8019 174.187 72.0817 177.194C72.0817 177.194 68.4809 182.88 61.6064 185.299C54.732 187.717 50.0836 189.024 48.3814 191.704C46.6792 194.319 45.959 211.182 45.959 211.182C45.959 211.182 54.9939 215.561 61.9338 214.319C68.8737 213.077 72.2781 210.724 79.4144 210.724C86.6162 210.724 95.7821 212.162 101.936 209.09C108.025 205.953 113.525 202.423 117.256 202.423C117.256 202.423 116.143 185.626 108.418 182.161C100.692 178.697 98.3354 181.835 91.0027 177.782" stroke="#263238" stroke-linecap="round" stroke-linejoin="round"/>
<path d="M99.1202 152.226L98.9238 150.526" stroke="#263238" stroke-linecap="round" stroke-linejoin="round"/>
<path d="M97.2875 172.684C97.2875 172.684 91.8535 173.861 91.1988 175.037C90.6095 176.279 90.3477 178.763 90.3477 178.763" stroke="#263238" stroke-linecap="round" stroke-linejoin="round"/>
<path d="M46.6133 201.443C46.6133 201.443 54.9935 206.149 63.3737 204.646C70.3136 203.404 71.8849 209.025 72.3432 211.508" stroke="#263238" stroke-linecap="round" stroke-linejoin="round"/>
<path d="M48.3812 204.58C48.3812 204.776 48.2502 204.842 48.1193 204.842C47.9884 204.842 47.8574 204.776 47.8574 204.58C47.8574 204.45 47.9884 204.319 48.1193 204.319C48.2502 204.319 48.3812 204.45 48.3812 204.58Z" fill="#263238"/>
<path d="M66.4506 206.476C66.4506 206.607 66.3196 206.737 66.1887 206.737C65.9923 206.737 65.8613 206.607 65.8613 206.476C65.8613 206.345 65.9923 206.214 66.1887 206.214C66.3196 206.214 66.4506 206.345 66.4506 206.476Z" fill="#263238"/>
<path d="M70.9691 154.579C70.9691 154.709 70.8381 154.84 70.7072 154.84C70.5762 154.84 70.4453 154.709 70.4453 154.579C70.4453 154.383 70.5762 154.252 70.7072 154.252C70.8381 154.252 70.9691 154.383 70.9691 154.579Z" fill="#263238"/>
<path d="M70.5111 148.37C70.5111 148.501 70.3802 148.631 70.1838 148.631C70.0528 148.631 69.9219 148.501 69.9219 148.37C69.9219 148.239 70.0528 148.108 70.1838 148.108C70.3802 148.108 70.5111 148.239 70.5111 148.37Z" fill="#263238"/>
<path d="M71.2308 157.912C71.2308 158.043 71.0999 158.174 70.9689 158.174C70.838 158.174 70.707 158.043 70.707 157.912C70.707 157.782 70.838 157.651 70.9689 157.651C71.0999 157.651 71.2308 157.782 71.2308 157.912Z" fill="#263238"/>
<path d="M70.7064 151.442C70.7064 151.572 70.5755 151.703 70.4445 151.703C70.2481 151.703 70.1172 151.572 70.1172 151.442C70.1172 151.311 70.2481 151.18 70.4445 151.18C70.5755 151.18 70.7064 151.311 70.7064 151.442Z" fill="#263238"/>
<path d="M70.4447 145.428C70.4447 145.559 70.3138 145.69 70.1173 145.69C69.9864 145.69 69.8555 145.559 69.8555 145.428C69.8555 145.298 69.9864 145.167 70.1173 145.167C70.3138 145.167 70.4447 145.298 70.4447 145.428Z" fill="#263238"/>
<path d="M69.724 209.94C69.724 210.071 69.5931 210.202 69.4621 210.202C69.2657 210.202 69.1348 210.071 69.1348 209.94C69.1348 209.744 69.2657 209.613 69.4621 209.613C69.5931 209.613 69.724 209.744 69.724 209.94Z" fill="#263238"/>
<path d="M68.4808 207.979C68.4808 208.11 68.4153 208.241 68.2189 208.241C68.088 208.241 67.957 208.11 67.957 207.979C67.957 207.848 68.088 207.718 68.2189 207.718C68.4153 207.718 68.4808 207.848 68.4808 207.979Z" fill="#263238"/>
</g>
<g clip-path="url(#clip5_1701_414)">
<path d="M252.716 109.937C252.716 126.604 239.229 140.069 222.6 140.069C205.905 140.069 192.418 126.604 192.418 109.937C192.418 93.3355 205.905 79.8711 222.6 79.8711C239.229 79.8711 252.716 93.3355 252.716 109.937Z" fill="#263238"/>
<path d="M263.714 130.984L253.173 159.873L206.558 148.893L200.535 146.147L200.601 146.017L218.474 105.624L226.723 110.264L263.714 130.984Z" fill="white"/>
<path d="M226.724 110.264L209.047 147.455C204.857 147.585 202.238 146.997 200.602 146.017L218.475 105.624L226.724 110.264Z" fill="#B9FF66"/>
<path d="M263.78 130.984L253.173 159.873L206.558 148.893L200.535 146.147L218.474 105.624L263.78 130.984Z" stroke="#263238" stroke-linecap="round" stroke-linejoin="round"/>
<path d="M212.189 124.905C212.189 124.905 221.355 141.768 235.693 144.579C249.966 147.39 259.852 133.729 259.852 133.729L221.486 115.624L212.189 124.905Z" fill="#B9FF66"/>
<path d="M83.8027 131.637C83.8682 131.507 93.4269 120.395 93.4269 120.395L88.3202 118.238L87.2727 120.395L83.8027 131.637Z" fill="white"/>
<path d="M116.996 139.415L110.58 149.808L120.532 142.683L122.103 141.049L117.324 137.847L116.996 139.415Z" fill="white"/>
<path d="M203.024 141.18L203.941 138.37L202.5 144.514L209.047 147.455C209.047 147.455 220.766 144.71 232.158 149.023C243.55 153.403 223.713 163.011 223.713 163.011L209.047 167.913L192.811 167.39L195.429 155.102C195.429 155.102 197.524 143.925 203.024 141.18Z" fill="#263238"/>
<path d="M251.276 219.81C248.396 226.672 245.057 233.143 237.92 236.281C231.373 239.222 217.69 241.313 206.756 239.222C204.792 238.83 202.894 238.307 201.126 237.588C193.662 234.712 180.568 225.365 172.057 217.587C167.605 213.47 164.397 209.809 163.939 207.652C163.088 203.273 169.766 187.979 177.033 174.71C180.372 168.697 183.776 163.141 186.592 159.22C195.823 146.605 202.566 141.572 202.566 141.572C202.566 141.572 193.204 154.775 199.031 158.697C204.792 162.684 216.904 149.22 229.278 148.893C234.843 148.762 241.456 151.115 247.152 153.795C254.157 157.063 259.591 160.788 259.591 160.788C262.406 180.462 258.936 201.574 251.276 219.81Z" fill="white"/>
<path d="M223.975 165.494C223.233 166.801 222.513 168.109 221.814 169.416C211.47 189.874 205.054 212.293 203.221 235.169" stroke="#263238" stroke-linecap="round" stroke-linejoin="round"/>
<path d="M237.003 152.945C233.271 154.317 230.325 156.801 227.771 159.873" stroke="#263238" stroke-linecap="round" stroke-linejoin="round"/>
<path d="M251.275 219.81C248.394 226.673 245.055 233.143 237.919 236.281C231.372 239.222 217.689 241.313 206.755 239.222C205.118 221.77 220.307 173.599 228.95 163.141C237.854 152.422 247.085 153.795 247.085 153.795H247.15C254.156 157.063 259.59 160.788 259.59 160.788C262.405 180.462 258.935 201.574 251.275 219.81Z" fill="#B9FF66"/>
<path d="M146.849 77.1914C140.499 72.8122 133.166 72.3547 130.482 76.211L115.947 99.1527L133.035 111.637C133.035 111.637 153.004 92.8781 153.462 92.2244C156.146 88.3681 153.2 81.6359 146.849 77.1914Z" fill="#263238"/>
<path d="M133.101 111.114C131.071 113.99 125.571 113.663 120.858 110.395C116.144 107.061 113.918 102.094 115.947 99.1527C117.977 96.2768 123.411 96.6036 128.19 99.937C132.904 103.205 135.065 108.238 133.101 111.114Z" fill="white" stroke="#263238" stroke-linecap="round" stroke-linejoin="round"/>
<path d="M119.745 120.395L121.513 117.781L110.906 110.591L109.008 112.944" fill="white"/>
<path d="M119.745 120.395L121.513 117.781L110.906 110.591L109.008 112.944" stroke="#263238" stroke-linecap="round" stroke-linejoin="round"/>
<path d="M117.193 139.088L110.188 150.069L120.99 142.356" stroke="#263238" stroke-linecap="round" stroke-linejoin="round"/>
<path d="M92.3786 121.571L83.4746 131.964L87.7957 119.349" stroke="#263238" stroke-linecap="round" stroke-linejoin="round"/>
<path d="M125.704 102.094C122.3 99.7411 118.175 99.6757 116.735 101.767L114.836 103.336L116.669 104.839C117.193 106.539 118.502 108.303 120.466 109.611C121.907 110.656 123.413 111.245 124.787 111.506L126.686 113.336C126.686 113.336 129.109 110.395 129.305 110.199C130.745 108.107 129.109 104.512 125.704 102.094Z" fill="#263238"/>
<path d="M127.405 112.16C125.965 114.251 122.036 113.99 118.632 111.637C115.227 109.284 113.656 105.689 115.097 103.597C116.537 101.506 120.465 101.767 123.87 104.12C127.274 106.473 128.845 110.068 127.405 112.16Z" fill="white" stroke="#263238" stroke-linecap="round" stroke-linejoin="round"/>
<path d="M123.215 108.434L118.239 115.624L114.311 112.879L119.221 105.95C119.876 105.754 120.727 105.885 121.447 106.277C122.429 106.8 123.084 107.584 123.215 108.434Z" fill="#263238"/>
<path d="M119.222 124.84L121.644 121.637L107.044 111.571L104.884 114.97L89.1708 116.8L87.7305 119.153L92.3789 121.572C97.2237 121.441 101.938 123.206 106.062 125.559C110.056 127.912 113.591 130.787 115.686 134.905C115.992 135.515 116.254 136.147 116.472 136.801C116.668 137.258 116.799 138.565 117.127 138.827L120.99 142.356L122.692 140.199L119.222 124.84Z" fill="white" stroke="#263238" stroke-linecap="round" stroke-linejoin="round"/>
<path d="M108.027 115.493L103.902 121.245L113.265 127.912L117.324 122.095L108.027 115.493Z" fill="#B9FF66" stroke="#263238" stroke-linecap="round" stroke-linejoin="round"/>
<path d="M228.819 102.551C227.248 106.212 225.153 110.133 222.468 114.12C214.416 126.212 204.595 133.859 200.601 131.245C200.077 130.853 174.479 113.859 174.479 113.859L199.75 75.8841L201.452 73.4004L229.212 87.0609C229.43 87.148 229.648 87.2569 229.867 87.3877C232.551 89.1524 231.962 95.1656 228.819 102.551Z" fill="white"/>
<path d="M228.819 102.551L226.004 101.114L211.731 92.6166L210.684 85.2961L202.041 80.3287L199.75 75.8841L201.452 73.4004L229.212 87.0609C229.43 87.148 229.648 87.2569 229.866 87.3877C232.551 89.1524 231.962 95.1656 228.819 102.551Z" fill="#B9FF66"/>
<path d="M189.406 123.794C196.673 118.631 214.154 103.924 215.594 80.3291" stroke="#263238" stroke-linecap="round" stroke-linejoin="round"/>
<path d="M229.867 87.3877C229.648 87.2569 229.43 87.148 229.212 87.0609L201.452 73.4004L174.479 113.859C174.479 113.859 200.077 130.853 200.601 131.245C204.595 133.859 214.416 126.212 222.468 114.12C230.521 102.029 233.86 90.0021 229.867 87.3877Z" stroke="#263238" stroke-linecap="round" stroke-linejoin="round"/>
<path d="M194.643 98.0418C187.18 109.219 178.145 116.278 174.479 113.859C170.747 111.375 173.824 100.329 181.287 89.1527C188.686 77.9759 197.786 70.7208 201.518 73.1392C205.184 75.6229 202.107 86.865 194.643 98.0418Z" fill="#263238"/>
<path d="M197.589 86.2114C196.476 89.0873 194.773 92.29 192.613 95.558C186.917 104.12 180.042 109.48 177.227 107.65C176.834 107.388 158.961 95.1005 158.961 95.1005L177.358 67.0605L177.489 67.1259L197.392 76.5379C197.523 76.5815 197.654 76.6468 197.785 76.734C199.553 77.9105 199.356 81.5707 197.589 86.2114Z" fill="white"/>
<path d="M197.59 86.2114L189.406 81.8322L186.46 76.7341L178.472 72.6817L177.49 67.126L197.393 76.538C197.524 76.5816 197.655 76.6469 197.786 76.7341C199.554 77.9106 199.357 81.5708 197.59 86.2114Z" fill="#B9FF66"/>
<path d="M168.783 101.637C172.908 99.0222 186.722 89.5448 186.853 71.7666" stroke="#263238" stroke-linecap="round" stroke-linejoin="round"/>
<path d="M182.727 106.473L176.77 102.486C176.77 102.486 179.519 99.937 182.007 97.584L187.965 101.44L182.727 106.473Z" fill="#B9FF66"/>
<path d="M197.589 86.2114C196.476 89.0873 194.773 92.29 192.613 95.558C186.917 104.12 180.042 109.48 177.227 107.65C176.834 107.388 158.961 95.1005 158.961 95.1005L177.358 67.0605L177.489 67.1259L197.392 76.5379C197.523 76.5815 197.654 76.6468 197.785 76.734C199.553 77.9105 199.356 81.5707 197.589 86.2114Z" stroke="#263238" stroke-linecap="round" stroke-linejoin="round"/>
<path d="M172.973 84.2505C167.735 92.1592 161.384 97.1266 158.765 95.3619C156.212 93.6625 158.307 85.8845 163.61 77.9758C168.848 70.1325 175.199 65.1651 177.817 66.8644C180.371 68.6292 178.276 76.4072 172.973 84.2505Z" fill="#263238"/>
<path d="M170.943 82.8779C166.687 89.1526 161.58 93.1396 159.551 91.767C157.456 90.3945 159.158 84.1852 163.348 77.8451C167.604 71.5705 172.645 67.5834 174.74 68.956C176.835 70.3286 175.133 76.5379 170.943 82.8779Z" fill="white" stroke="#263238" stroke-linecap="round" stroke-linejoin="round"/>
<path d="M265.09 111.31C265.09 125.559 253.567 137.062 239.294 137.062C225.087 137.062 213.564 125.559 213.564 111.31C213.564 97.1265 225.087 85.5576 239.294 85.5576C253.567 85.5576 265.09 97.1265 265.09 111.31Z" fill="#263238"/>
<path d="M270 114.121C270 128.369 258.477 139.873 244.27 139.873C229.997 139.873 218.475 128.369 218.475 114.121C218.475 99.9371 229.997 88.4336 244.27 88.4336C258.477 88.4336 270 99.9371 270 114.121Z" fill="white" stroke="#263238" stroke-linecap="round" stroke-linejoin="round"/>
<path d="M260.572 112.16C260.572 120.134 254.09 126.604 246.037 126.604C238.05 126.604 231.568 120.134 231.568 112.16C231.568 104.186 238.05 97.6494 246.037 97.6494C254.09 97.6494 260.572 104.186 260.572 112.16Z" fill="#B9FF66"/>
<path d="M258.216 114.121C258.216 121.833 251.931 128.108 244.27 128.108C236.545 128.108 230.26 121.833 230.26 114.121C230.26 106.473 236.545 100.199 244.27 100.199C251.931 100.199 258.216 106.473 258.216 114.121Z" fill="white" stroke="#263238" stroke-linecap="round" stroke-linejoin="round"/>
<path d="M250.621 114.12C250.621 117.65 247.741 120.46 244.271 120.46C243.616 120.46 242.983 120.373 242.372 120.199C239.819 119.415 237.92 116.996 237.92 114.12C237.92 111.31 239.819 108.891 242.372 108.107C242.983 107.933 243.616 107.824 244.271 107.78C247.741 107.78 250.621 110.656 250.621 114.12Z" fill="#263238"/>
<path d="M173.825 190.789L176.967 198.175C176.967 198.175 173.236 209.09 172.057 217.587C167.605 213.469 164.397 209.809 163.939 207.652C163.088 203.273 169.766 187.978 177.033 174.71L180.11 176.736C180.11 176.736 175.658 185.429 173.825 190.789Z" fill="#B9FF66"/>
<path d="M246.889 114.121C246.889 116.997 244.991 119.415 242.372 120.199C239.819 119.415 237.92 116.997 237.92 114.121C237.92 111.31 239.819 108.892 242.372 108.107C244.991 108.892 246.889 111.31 246.889 114.121Z" fill="white" stroke="#263238" stroke-linecap="round" stroke-linejoin="round"/>
<path d="M259.591 160.788C259.591 160.788 241.718 148.631 229.278 148.893C216.904 149.22 204.792 162.684 199.031 158.697C193.204 154.775 202.566 141.572 202.566 141.572C202.566 141.572 195.823 146.605 186.592 159.22C177.426 171.834 162.629 201.312 163.939 207.652C165.248 213.927 189.8 233.143 201.126 237.588C212.452 242.098 230.195 239.745 237.921 236.281C245.057 233.143 248.396 226.672 251.277 219.81C258.937 201.574 262.406 180.462 259.591 160.788Z" stroke="#263238" stroke-linecap="round" stroke-linejoin="round"/>
<path d="M168.325 80.3289C166.557 83.1395 163.676 83.9892 163.676 83.9892L147.898 74.7079C145.868 73.5314 144.755 71.113 145.476 68.8907C146.523 65.7534 150.779 63.7926 153.463 65.2959L169.176 75.5576C169.22 75.6011 169.263 75.6447 169.307 75.6883C169.7 76.7994 169.765 77.9759 168.325 80.3289Z" fill="#263238"/>
<path d="M156.277 71.1781C156.408 74.3808 157.652 78.9561 155.098 80.5902C153.855 81.3745 149.73 80.5902 147.766 80.2633C142.986 79.479 138.862 76.6685 138.665 71.7664C138.534 66.9297 142.332 62.8773 147.177 62.6812C150.777 62.5505 158.503 62.2237 159.943 65.2956C160.467 66.3414 156.211 69.9363 156.277 71.1781Z" fill="#263238"/>
<path d="M162.759 71.4394C162.956 76.3414 159.159 80.3938 154.248 80.5899C149.403 80.7206 145.344 76.9297 145.148 72.093C145.017 67.2562 148.814 63.1385 153.659 63.0078C158.504 62.8117 162.563 66.6026 162.759 71.4394Z" fill="white" stroke="#263238" stroke-linecap="round" stroke-linejoin="round"/>
<path d="M154.901 77.9104C154.901 78.3025 154.574 78.6294 154.181 78.6294C153.788 78.6294 153.461 78.3025 153.461 77.9104C153.461 77.5182 153.788 77.1914 154.181 77.1914C154.574 77.1914 154.901 77.5182 154.901 77.9104Z" fill="#263238"/>
<path d="M154.444 66.0144C154.509 66.4066 154.182 66.7334 153.789 66.7334C153.396 66.7334 153.069 66.4719 153.069 66.0797C153.003 65.6876 153.331 65.3608 153.724 65.2954C154.116 65.2954 154.444 65.6222 154.444 66.0144Z" fill="#263238"/>
<path d="M160.991 71.1126C160.991 71.5048 160.664 71.8316 160.271 71.8969C159.878 71.8969 159.551 71.5701 159.551 71.178C159.551 70.7858 159.813 70.459 160.205 70.459C160.598 70.459 160.926 70.7204 160.991 71.1126Z" fill="#263238"/>
<path d="M148.879 71.5705C148.945 71.9627 148.617 72.2895 148.225 72.2895C147.832 72.2895 147.504 72.0281 147.504 71.6359C147.439 71.2437 147.766 70.9169 148.159 70.8516C148.552 70.8516 148.879 71.1784 148.879 71.5705Z" fill="#263238"/>
<path d="M156.67 71.701C156.67 73.139 155.557 74.3808 154.051 74.4462C152.545 74.5116 151.301 73.3351 151.301 71.8971C151.236 70.3938 152.414 69.1519 153.855 69.0866C155.361 69.0212 156.605 70.1977 156.67 71.701Z" fill="#263238"/>
</g>
</g>
<defs>
<clipPath id="clip0_1701_414">
<rect width="270" height="257" fill="white"/>
</clipPath>
<clipPath id="clip1_1701_414">
<rect width="206.888" height="200.201" fill="white" transform="translate(32.4727)"/>
</clipPath>
<clipPath id="clip2_1701_414">
<rect width="251.603" height="51.766" fill="white" transform="translate(0 205.234)"/>
</clipPath>
<clipPath id="clip3_1701_414">
<rect width="98.2058" height="51.766" fill="white" transform="translate(35.2227 183.73)"/>
</clipPath>
<clipPath id="clip4_1701_414">
<rect width="71.2974" height="80.9002" fill="white" transform="translate(45.959 133.641)"/>
</clipPath>
<clipPath id="clip5_1701_414">
<rect width="186.525" height="177.471" fill="white" transform="translate(83.4746 62.6025)"/>
</clipPath>
</defs>
</svg>
