<svg width="222" height="234" viewBox="0 0 222 234" fill="none" xmlns="http://www.w3.org/2000/svg">
<g clip-path="url(#clip0_1706_169)">
<path d="M183.751 94.7352L179.877 81.654L144.591 78.4956L142.277 96.1418C142.277 96.1418 178.432 103.789 183.751 94.7352Z" fill="white"/>
<path d="M168.384 99.4666C156.801 99.4666 143.134 96.6279 142.226 96.4233C142.073 96.3977 141.971 96.2571 141.996 96.1036L144.31 78.4574C144.336 78.304 144.476 78.1889 144.617 78.2017L179.903 81.3729C180.018 81.3729 180.12 81.4624 180.145 81.5775L184.032 94.6587C184.058 94.7354 184.045 94.8121 184.006 94.876C181.948 98.3669 175.569 99.4666 168.384 99.4666ZM142.597 95.9246C145.857 96.5767 178.317 102.906 183.444 94.697L179.66 81.9227L144.847 78.8026L142.597 95.9246Z" fill="black"/>
<path d="M115.953 46.3492L120.977 50.1214C120.376 52.5509 119.967 54.9932 119.788 57.4356L113.831 59.4176C110.877 60.4022 109.011 63.3049 109.33 66.3866C109.637 69.481 112.054 71.9489 115.135 72.3198L121.374 73.087C122.064 75.4526 122.933 77.7671 124.007 79.992L119.827 84.7105C117.768 87.0377 117.602 90.4775 119.417 92.9965C121.233 95.5156 124.544 96.4491 127.408 95.2343L133.187 92.7664C134.938 94.4671 136.856 96.0271 138.927 97.4464L137.661 103.61C137.048 106.653 138.62 109.722 141.445 111.001C144.284 112.267 147.62 111.41 149.487 108.929L153.271 103.904C155.688 104.505 158.129 104.914 160.571 105.106L162.566 111.052C163.55 114.006 166.439 115.873 169.533 115.566C172.614 115.246 175.082 112.842 175.453 109.748L176.22 103.508C178.585 102.817 180.899 101.948 183.136 100.886L187.841 105.055C190.168 107.114 193.607 107.293 196.125 105.477C198.657 103.661 199.577 100.336 198.363 97.472L195.908 91.705C197.608 89.9404 199.168 88.0223 200.574 85.9636L206.737 87.2168C209.779 87.8305 212.848 86.2577 214.126 83.4318C215.405 80.593 214.548 77.2556 212.055 75.3887L207.031 71.6165C207.644 69.1869 208.041 66.7446 208.232 64.3023L214.19 62.3203C217.131 61.3357 218.997 58.433 218.69 55.3385C218.383 52.2568 215.967 49.7889 212.886 49.4181L206.634 48.6508C205.957 46.2852 205.075 43.9708 204.013 41.7458L208.181 37.0273C210.24 34.7001 210.419 31.2604 208.603 28.7413C206.788 26.2222 203.464 25.2888 200.613 26.5036L194.834 28.9715C193.07 27.2708 191.152 25.7108 189.094 24.2914L190.347 18.128C190.973 15.0847 189.401 12.0158 186.562 10.737C183.737 9.47112 180.4 10.3279 178.534 12.8086L174.749 17.8339C172.32 17.2329 169.878 16.8237 167.437 16.6319L165.455 10.6859C164.471 7.73208 161.568 5.86516 158.487 6.17205C155.393 6.49172 152.926 8.89571 152.555 11.9774L151.801 18.2303C149.423 18.908 147.109 19.7903 144.885 20.8517L140.167 16.6831C137.84 14.6243 134.401 14.4453 131.883 16.2611C129.364 18.0769 128.431 21.4015 129.658 24.253L132.113 30.0328C130.412 31.7974 128.853 33.7155 127.433 35.7742L121.271 34.5211C118.229 33.9073 115.16 35.4673 113.895 38.3061C112.616 41.1448 113.473 44.4822 115.953 46.3492ZM131.857 46.3875C139.847 28.6262 160.725 20.711 178.483 28.7029C196.24 36.6949 204.154 57.5762 196.164 75.3503C188.173 93.1116 167.296 101.027 149.538 93.0349C131.78 85.0302 123.854 64.1488 131.857 46.3875Z" fill="white"/>
<path d="M168.843 115.885C165.877 115.885 163.244 114.018 162.285 111.141L160.354 105.374C158.04 105.183 155.701 104.799 153.387 104.223L149.718 109.108C147.749 111.717 144.31 112.599 141.331 111.256C138.352 109.914 136.728 106.755 137.38 103.546L138.608 97.5742C136.639 96.2188 134.798 94.7099 133.123 93.1115L127.523 95.4899C124.519 96.7686 121.093 95.8096 119.175 93.1626C117.27 90.5157 117.449 86.9609 119.61 84.5185L123.662 79.9535C122.653 77.8181 121.809 75.6059 121.157 73.3426L115.097 72.601C111.862 72.2173 109.369 69.6727 109.037 66.4248C108.704 63.1769 110.648 60.1847 113.742 59.1489L119.507 57.2181C119.699 54.9036 120.083 52.5636 120.658 50.2363L115.787 46.5792C113.179 44.61 112.284 41.1702 113.627 38.1908C114.969 35.2114 118.127 33.5875 121.336 34.2396L127.306 35.4544C128.661 33.498 130.17 31.6566 131.768 29.9687L129.39 24.368C128.112 21.363 129.07 17.936 131.717 16.0308C134.363 14.1255 137.917 14.3045 140.359 16.4655L144.936 20.519C147.058 19.5089 149.27 18.6649 151.533 18.0128L152.275 11.9517C152.671 8.70376 155.215 6.22306 158.45 5.89059C161.697 5.55813 164.688 7.48898 165.724 10.5835L167.654 16.3632C169.968 16.555 172.321 16.9387 174.635 17.5141L178.304 12.6294C180.26 10.0208 183.712 9.13852 186.678 10.4812C189.657 11.8238 191.28 14.9822 190.628 18.179L189.414 24.1634C191.37 25.5188 193.224 27.0149 194.899 28.6261L200.498 26.2477C203.503 24.969 206.929 25.9152 208.834 28.5749C210.739 31.2219 210.56 34.7767 208.399 37.219L204.359 41.784C205.356 43.9195 206.2 46.1316 206.865 48.395L212.912 49.1238C216.159 49.5202 218.652 52.0649 218.972 55.3128C219.304 58.5607 217.374 61.5529 214.28 62.5886L208.501 64.5195C208.31 66.834 207.926 69.174 207.351 71.4885L212.235 75.1584C214.843 77.1276 215.725 80.5673 214.382 83.5467C213.053 86.5261 209.882 88.1501 206.686 87.4979L200.703 86.2832C199.348 88.2396 197.852 90.0809 196.241 91.7688L198.632 97.3696C199.91 100.362 198.951 103.802 196.305 105.707C193.658 107.612 190.091 107.433 187.65 105.272L183.086 101.219C180.963 102.229 178.739 103.073 176.476 103.725L175.747 109.786C175.351 113.034 172.807 115.515 169.559 115.847C169.321 115.873 169.082 115.885 168.843 115.885ZM153.272 103.61C153.289 103.61 153.31 103.614 153.336 103.622C155.752 104.223 158.194 104.633 160.597 104.812C160.712 104.824 160.802 104.901 160.84 105.003L162.835 110.962C163.781 113.801 166.517 115.578 169.495 115.272C172.474 114.977 174.814 112.689 175.172 109.722L175.939 103.469C175.952 103.354 176.028 103.264 176.143 103.226C178.496 102.548 180.797 101.679 183.009 100.618C183.111 100.566 183.239 100.592 183.328 100.669L188.033 104.837C190.27 106.819 193.531 106.986 195.96 105.234C198.389 103.495 199.271 100.349 198.095 97.587L195.64 91.8072C195.589 91.7049 195.614 91.577 195.691 91.5003C197.366 89.7613 198.938 87.8432 200.332 85.7973C200.409 85.695 200.524 85.6566 200.626 85.6694L206.801 86.9353C209.729 87.5363 212.631 86.0402 213.858 83.3166C215.085 80.5801 214.28 77.4217 211.889 75.6187L206.865 71.8465C206.763 71.7698 206.724 71.6547 206.75 71.5396C207.351 69.1356 207.76 66.6933 207.939 64.2765C207.952 64.1615 208.028 64.072 208.143 64.0336L214.088 62.0388C216.926 61.0926 218.704 58.3561 218.409 55.3767C218.103 52.3973 215.814 50.0573 212.848 49.6992L206.596 48.9448C206.481 48.932 206.392 48.8425 206.354 48.7274C205.689 46.3874 204.807 44.0729 203.758 41.8607C203.707 41.7584 203.72 41.6306 203.797 41.5538L207.964 36.8354C209.959 34.5977 210.112 31.3369 208.374 28.9074C206.622 26.4778 203.477 25.5955 200.728 26.7719L194.95 29.2271C194.835 29.2782 194.72 29.2526 194.63 29.1759C192.891 27.5008 190.974 25.928 188.928 24.5342C188.839 24.4703 188.787 24.3552 188.813 24.2401L190.066 18.0639C190.667 15.1357 189.171 12.233 186.448 11.0054C183.725 9.77787 180.554 10.5835 178.764 12.9747L174.98 18.0128C174.903 18.1023 174.788 18.1406 174.673 18.1151C172.27 17.5141 169.828 17.1049 167.424 16.9259C167.309 16.9131 167.207 16.8364 167.169 16.7213L165.174 10.7753C164.228 7.93653 161.492 6.15912 158.513 6.46601C155.535 6.76011 153.208 9.04901 152.837 12.0156L152.083 18.2685C152.07 18.3836 151.98 18.4731 151.878 18.5115C149.526 19.1892 147.212 20.0587 145.013 21.12C144.898 21.1584 144.783 21.1456 144.693 21.0689L139.976 16.9003C137.738 14.9183 134.478 14.7521 132.049 16.5039C129.62 18.2429 128.751 21.3886 129.914 24.1506L132.382 29.9176C132.42 30.0327 132.394 30.1477 132.318 30.2373C130.643 31.9763 129.083 33.8944 127.677 35.9403C127.613 36.0426 127.498 36.081 127.383 36.0554L121.221 34.8023C118.28 34.2013 115.378 35.6974 114.151 38.421C112.923 41.1574 113.742 44.3159 116.132 46.1188L121.157 49.891C121.246 49.9678 121.285 50.0828 121.259 50.1979C120.658 52.6019 120.262 55.0443 120.07 57.4482C120.057 57.5633 119.981 57.6656 119.878 57.704L113.921 59.6988C111.082 60.645 109.305 63.3814 109.612 66.3608C109.906 69.3402 112.195 71.6675 115.161 72.0383L121.412 72.7928C121.527 72.8055 121.63 72.8951 121.655 72.9974C122.333 75.3502 123.202 77.6647 124.263 79.8768C124.315 79.9791 124.289 80.107 124.212 80.1837L120.044 84.9022C118.063 87.1399 117.897 90.4006 119.648 92.8302C121.4 95.2597 124.545 96.142 127.293 94.9656L133.072 92.5105C133.174 92.4593 133.302 92.4849 133.379 92.5616C135.118 94.2368 137.035 95.7968 139.081 97.2034C139.183 97.2673 139.234 97.3824 139.209 97.4975L137.943 103.661C137.355 106.602 138.838 109.505 141.561 110.732C144.297 111.96 147.455 111.154 149.257 108.763L153.042 103.725C153.093 103.648 153.182 103.61 153.272 103.61ZM163.96 96.4233C159.089 96.4233 154.141 95.4132 149.411 93.2905C131.538 85.2474 123.547 64.1487 131.589 46.2723C135.488 37.6154 142.52 30.9917 151.405 27.6159C160.278 24.2529 169.943 24.547 178.598 28.4471C196.471 36.4902 204.474 57.5889 196.42 75.4653C190.501 88.6232 177.524 96.4233 163.96 96.4233ZM164.024 25.8641C159.83 25.8641 155.637 26.6313 151.61 28.153C142.865 31.4776 135.949 37.9862 132.113 46.5152C124.199 64.0975 132.062 84.851 149.654 92.7662C167.245 100.681 187.982 92.8174 195.896 75.2223C203.822 57.64 195.947 36.8865 178.368 28.9713C173.778 26.8998 168.907 25.8641 164.024 25.8641Z" fill="black"/>
<path d="M118.382 70.1839C118.382 70.1839 114.432 70.3373 109.548 70.3118C108.526 70.3118 105.777 67.0127 104 67.5753C102.734 67.9717 105.138 70.1327 104.805 70.1327C101.686 70.12 98.9754 70.1072 98.0037 70.1072C97.2367 70.1072 96.981 70.8872 97.3006 71.5905C97.7481 72.5879 98.7453 74.0967 100.382 74.621C103.297 75.5673 108.947 75.1325 110.699 74.8C114.509 74.0584 117.539 74.0072 117.539 74.0072L118.382 70.1839Z" fill="white"/>
<path d="M105.432 75.4905C103.579 75.4905 101.661 75.337 100.293 74.8895C98.388 74.2757 97.378 72.4599 97.0329 71.7055C96.8155 71.2196 96.8283 70.6697 97.0712 70.2989C97.2758 69.992 97.6082 69.813 98.0045 69.813C98.9378 69.8258 101.405 69.8386 104.32 69.8514C104.312 69.8343 104.299 69.8173 104.282 69.8002C103.821 69.212 103.195 68.3936 103.374 67.7926C103.425 67.6264 103.566 67.409 103.924 67.3067C105.138 66.9103 106.672 68.074 107.9 69.0074C108.539 69.4805 109.255 70.0304 109.549 70.0304C114.369 70.0432 118.332 69.9025 118.37 69.9025C118.46 69.9025 118.537 69.9409 118.601 70.0048C118.652 70.0688 118.677 70.1583 118.664 70.2478L117.821 74.0583C117.795 74.199 117.68 74.2885 117.539 74.2885C117.514 74.2885 114.497 74.3524 110.751 75.0813C109.792 75.2731 107.657 75.4905 105.432 75.4905ZM97.9917 70.3884C97.7957 70.397 97.6508 70.4694 97.557 70.6058C97.4164 70.8232 97.4164 71.1557 97.557 71.4625C97.8766 72.1531 98.7716 73.8026 100.472 74.3524C103.348 75.2731 108.987 74.8383 110.636 74.5187C113.845 73.8921 116.529 73.7514 117.309 73.7259L118.012 70.4907C116.926 70.5291 113.525 70.6186 109.549 70.6058C109.05 70.6058 108.398 70.0943 107.555 69.4678C106.43 68.611 105.023 67.5497 104.09 67.8438C103.949 67.8949 103.937 67.9461 103.924 67.9717C103.834 68.2786 104.461 69.0969 104.742 69.4422C105.074 69.8769 105.202 70.0432 105.1 70.2478C105.036 70.3629 104.934 70.4268 104.806 70.4268C101.674 70.414 98.9761 70.4012 98.0045 70.3884C98.0045 70.3884 98.0002 70.3884 97.9917 70.3884Z" fill="black"/>
<path d="M145.103 36.3238C150.178 35.4159 161.071 34.7254 168.69 35.352C171.03 35.5566 173.242 36.4645 175.031 37.9733C180.286 42.4105 192.214 52.9598 193.045 65.9643C193.096 66.706 192.764 67.4221 192.188 67.8824L192.086 67.3198C189.21 69.6086 185.553 70.0434 182.779 67.6266L180.311 65.8109C180.311 65.8109 184.556 81.0148 184.262 83.4571C183.981 85.8994 176.54 90.0552 167.246 86.6411C159.792 83.9174 149.731 83.6361 143.786 85.1706C143.696 85.1961 143.441 87.8814 143.338 87.907C142.916 88.0221 142.443 87.9454 142.009 87.7791C140.935 87.3572 140.232 86.3342 140.206 85.1833L139.81 67.8952L127.217 65.4656C127.217 65.4656 133.302 38.4465 145.103 36.3238Z" fill="black"/>
<path d="M199.667 41.0164C199.526 41.7325 196.215 59.7112 194.707 63.3427C193.172 67.0382 191.766 71.6544 185.067 69.0969C175.069 65.2992 192.751 41.4 193.799 39.8017C193.837 39.7377 199.667 41.0036 199.667 41.0164Z" fill="black"/>
<path d="M110.251 75.0175L110.213 70.785C110.2 69.9155 110.916 69.2122 111.773 69.2377C115.212 69.3273 123.33 69.0459 126.462 64.7239C129.096 61.0796 129.889 56.7192 129.889 56.7192C129.889 56.7192 143.172 54.7116 145.473 65.4911C148.72 80.7589 118.319 77.4471 111.568 76.5264C110.814 76.4241 110.251 75.7847 110.251 75.0175Z" fill="black"/>
<path d="M194.963 40.3259L194.567 34.8914C194.567 34.8914 194.311 30.7228 195.13 29.9428C195.731 29.3673 196.574 30.7228 196.919 32.6153C196.971 32.9222 197.418 32.9349 197.469 32.6153C197.674 31.3749 197.725 30.4798 197.648 29.2139C197.584 27.8457 197.316 25.4417 198.607 25.3905C199.886 25.3266 202.852 28.6768 202.148 32.7176C201.445 36.7583 198.505 41.1059 198.505 41.1059L194.963 40.3259Z" fill="white"/>
<path d="M198.505 41.3875C198.48 41.3875 198.458 41.3875 198.441 41.3875L194.9 40.6075C194.785 40.5819 194.683 40.4796 194.683 40.3517L194.274 34.9044C194.235 34.1883 194.056 30.5568 194.926 29.7384C195.13 29.5338 195.386 29.4699 195.654 29.5594C196.396 29.8023 196.958 31.2473 197.201 32.5644C197.393 31.3752 197.431 30.5056 197.367 29.2269L197.342 28.8817C197.265 27.6669 197.176 26.158 197.802 25.4547C198.02 25.2373 198.275 25.1095 198.595 25.0967C199.157 25.0711 199.924 25.5442 200.628 26.3498C201.804 27.6925 202.903 30.0837 202.43 32.769C201.727 36.8225 198.863 41.0806 198.748 41.2596C198.684 41.3363 198.595 41.3875 198.505 41.3875ZM195.232 40.096L198.377 40.7737C198.902 39.9553 201.254 36.1703 201.868 32.6667C202.302 30.186 201.292 27.9738 200.193 26.7334C199.541 25.979 198.914 25.6593 198.62 25.6721C198.454 25.6849 198.339 25.736 198.237 25.8511C197.764 26.3626 197.853 27.8587 197.917 28.8433L197.943 29.2014C198.007 30.5184 197.968 31.4263 197.751 32.6667C197.713 32.9352 197.483 33.1398 197.201 33.1398C197.201 33.1398 197.197 33.1398 197.189 33.1398C196.907 33.1398 196.677 32.948 196.626 32.6667C196.345 31.0811 195.769 30.1987 195.475 30.1092C195.437 30.0965 195.386 30.0837 195.322 30.1476C194.798 30.6463 194.759 33.306 194.849 34.866L195.232 40.096Z" fill="black"/>
<path d="M149.488 25.0711C148.657 24.7003 148.235 25.3141 147.008 25.1479C145.704 24.9688 144.259 23.997 143.722 22.5904C143.07 20.877 144.016 19.253 144.604 18.23C145.193 17.2071 145.947 16.069 147.238 15.5703C148.938 14.931 149.642 15.9156 151.585 15.3146C153.157 14.8287 153.042 14.0614 154.449 13.665C155.612 13.3326 158.987 13.5244 159.741 15.3146C160.215 16.4526 159.192 17.1431 159.703 18.831C160.01 19.8412 160.496 19.9691 160.854 20.7491C161.736 22.6799 160.624 26.0941 158.527 27.2322C155.689 28.7794 150.907 25.7105 149.488 25.0711Z" fill="black"/>
<path d="M152.108 28.3189L151.443 33.7534C151.315 34.7892 150.573 35.6459 149.564 35.9145L146.764 36.6433L147.16 36.9374C152.018 40.6457 158.756 40.6457 163.627 36.9502L165.071 35.8505L161.594 35.0833C160.597 34.8531 159.83 34.0603 159.651 33.0501L158.206 25.0454L152.108 28.3189Z" fill="white"/>
<path d="M155.394 39.9935C152.428 39.9935 149.462 39.0601 146.982 37.1676L146.585 36.8735C146.509 36.7967 146.458 36.6944 146.483 36.5794C146.509 36.4771 146.586 36.3876 146.688 36.362L149.488 35.6331C150.395 35.4029 151.047 34.6485 151.162 33.7278L151.814 28.2805C151.827 28.191 151.891 28.1143 151.968 28.0631L158.066 24.7896C158.156 24.7385 158.245 24.7385 158.335 24.7769C158.411 24.8152 158.475 24.8919 158.488 24.9942L159.933 32.999C160.099 33.8941 160.776 34.5974 161.659 34.802L165.136 35.5692C165.238 35.5948 165.328 35.6843 165.353 35.7993C165.379 35.9016 165.328 36.0167 165.238 36.0807L163.794 37.1804C161.326 39.0601 158.36 39.9935 155.394 39.9935ZM147.416 36.7712C152.147 40.326 158.731 40.3132 163.448 36.72L164.407 36.0039L161.531 35.3646C160.418 35.1088 159.575 34.2265 159.37 33.1013L157.989 25.4801L152.377 28.4979L151.725 33.7918C151.584 34.9554 150.766 35.8889 149.628 36.1957L147.416 36.7712Z" fill="black"/>
<path d="M157.517 26.1454C157.517 26.1454 159.665 25.3398 158.847 23.5624C158.041 21.785 156.737 23.1021 156.737 23.1021C156.737 23.1021 155.51 18.7289 152.953 20.4551C150.396 22.1686 147.967 22.7952 147.967 22.7952C147.967 22.7952 148.862 27.1939 150.485 30.1222C151.47 31.8868 152.697 33.1144 154.167 32.5262C158.156 30.9022 157.517 26.1454 157.517 26.1454Z" fill="white"/>
<path d="M153.413 32.9737C152.301 32.9737 151.227 32.0658 150.23 30.2628C148.606 27.3346 147.724 23.0381 147.686 22.8591C147.648 22.7057 147.75 22.565 147.89 22.5266C147.916 22.5138 150.307 21.8873 152.787 20.2122C153.465 19.7518 154.129 19.6495 154.743 19.8797C155.919 20.3145 156.61 21.8745 156.878 22.6161C157.146 22.4499 157.543 22.2837 157.965 22.3604C158.438 22.4499 158.834 22.808 159.115 23.4473C159.358 23.9972 159.384 24.5214 159.192 25.0073C158.885 25.7234 158.169 26.1454 157.824 26.3244C157.888 27.309 157.926 31.3114 154.27 32.7947C153.98 32.914 153.695 32.9737 153.413 32.9737ZM148.3 22.9998C148.53 23.9844 149.386 27.5392 150.741 29.9815C151.828 31.9507 152.94 32.7052 154.053 32.2576C157.786 30.736 157.249 26.3628 157.223 26.1837C157.21 26.0559 157.287 25.928 157.415 25.8769C157.415 25.8769 158.361 25.506 158.655 24.7772C158.796 24.4447 158.77 24.0867 158.591 23.6775C158.387 23.2299 158.144 22.9742 157.862 22.923C157.402 22.8463 156.942 23.2939 156.942 23.2939C156.865 23.3706 156.763 23.3962 156.661 23.3706C156.558 23.345 156.482 23.2683 156.456 23.1788C156.456 23.1532 155.804 20.8771 154.551 20.4168C154.104 20.2505 153.631 20.34 153.119 20.6853C151.01 22.1047 149.015 22.7824 148.3 22.9998Z" fill="black"/>
<path d="M139.822 68.189C139.805 68.189 139.793 68.1848 139.784 68.1763C139.631 68.1635 139.516 68.0228 139.528 67.8694C140.551 58.2535 141.983 50.1336 141.996 50.0569C142.021 49.8907 142.175 49.7884 142.328 49.814C142.482 49.8395 142.597 49.993 142.558 50.1464C142.545 50.2359 141.114 58.3302 140.104 67.9205C140.091 68.074 139.963 68.189 139.822 68.189Z" fill="white"/>
<path d="M36.2551 187.378L38.7993 188.721C38.697 189.859 38.6842 190.997 38.7737 192.109L36.2296 193.439C34.9639 194.091 34.3247 195.536 34.6826 196.905C35.0406 198.286 36.3063 199.219 37.7254 199.168L40.6147 199.078C41.0877 200.101 41.6503 201.086 42.2895 202.007L40.7298 204.436C39.9627 205.638 40.1289 207.211 41.1261 208.221C42.1361 209.231 43.6958 209.41 44.8975 208.656L47.3394 207.134C48.2599 207.774 49.2315 208.349 50.2671 208.835L50.1392 211.712C50.0753 213.131 50.9958 214.41 52.3638 214.794C53.7445 215.165 55.1892 214.538 55.854 213.285L57.2092 210.74C58.347 210.843 59.4848 210.855 60.5971 210.766L61.9139 213.31C62.5659 214.576 64.0106 215.216 65.3913 214.858C66.7593 214.5 67.7053 213.234 67.6542 211.814L67.5519 208.937C68.5747 208.451 69.5591 207.902 70.4924 207.262L72.9215 208.809C74.1232 209.577 75.683 209.41 76.693 208.413C77.7029 207.416 77.8947 205.843 77.1404 204.641L75.619 202.198C76.2583 201.291 76.8336 200.306 77.3194 199.27L80.1959 199.411C81.615 199.475 82.8935 198.541 83.2643 197.173C83.635 195.805 83.0214 194.347 81.7557 193.682L79.2243 192.327C79.3266 191.189 79.3266 190.063 79.2499 188.938L81.794 187.621C83.0597 186.969 83.6989 185.524 83.341 184.156C82.9702 182.775 81.7173 181.829 80.2854 181.88L77.4089 181.982C76.9359 180.959 76.3733 179.974 75.7341 179.041L77.2938 176.611C78.0609 175.422 77.8947 173.849 76.8847 172.839C75.8875 171.829 74.3278 171.65 73.1133 172.404L70.6842 173.926C69.7637 173.274 68.792 172.711 67.7565 172.213L67.8843 169.336C67.9483 167.916 67.0278 166.638 65.647 166.267C64.2791 165.896 62.8344 166.522 62.1696 167.776L60.8144 170.32C59.6766 170.205 58.5388 170.205 57.4265 170.295L56.1097 167.737C55.4449 166.471 54.013 165.832 52.6323 166.203C51.2643 166.561 50.3182 167.827 50.3694 169.246L50.4717 172.123C49.4361 172.596 48.4645 173.159 47.5312 173.798L45.1021 172.251C43.9003 171.484 42.3406 171.65 41.3306 172.647C40.3206 173.645 40.1289 175.218 40.8832 176.42L42.4045 178.849C41.7653 179.77 41.19 180.754 40.7042 181.777L37.8276 181.65C36.4085 181.586 35.1301 182.519 34.7593 183.887C34.3758 185.256 35.0022 186.7 36.2551 187.378ZM43.4529 186.266C45.8053 177.673 54.6778 172.609 63.2691 174.962C71.8604 177.315 76.9231 186.189 74.5707 194.795C72.2183 203.388 63.3458 208.451 54.7545 206.099C46.1504 203.733 41.1005 194.859 43.4529 186.266Z" fill="white"/>
<path d="M64.5981 215.254C63.3836 215.254 62.2457 214.576 61.6576 213.451L60.4303 211.073C59.4203 211.137 58.3976 211.124 57.3748 211.047L56.1091 213.413C55.3676 214.807 53.8079 215.484 52.2865 215.062C50.7779 214.653 49.7807 213.272 49.8446 211.699L49.9725 209.014C49.0392 208.566 48.157 208.055 47.326 207.48L45.0504 208.899C43.7208 209.73 42.0332 209.538 40.9209 208.413C39.8215 207.301 39.6425 205.6 40.4863 204.283L41.9437 202.019C41.3684 201.175 40.8698 200.28 40.4223 199.372L37.7376 199.462C36.165 199.513 34.7971 198.49 34.4008 196.981C34.0044 195.46 34.7076 193.9 36.0883 193.184L38.4791 191.943C38.4024 190.946 38.4151 189.923 38.4919 188.887L36.1267 187.621C34.746 186.892 34.0684 185.319 34.4775 183.811C34.8866 182.302 36.2673 181.292 37.8398 181.368L40.5246 181.483C40.9721 180.563 41.4963 179.668 42.0588 178.849L40.6397 176.573C39.8087 175.243 40.0132 173.543 41.1255 172.443C42.2378 171.343 43.9381 171.164 45.2549 172.008L47.5178 173.453C48.3616 172.89 49.2565 172.379 50.177 171.944L50.0747 169.259C50.0236 167.686 51.0464 166.318 52.555 165.921C54.0763 165.525 55.6361 166.216 56.3648 167.609L57.5921 169.988C58.6021 169.924 59.6249 169.924 60.6476 170.013L61.9133 167.635C62.6421 166.254 64.2146 165.576 65.7232 165.985C67.2445 166.407 68.2417 167.788 68.1778 169.348L68.05 172.034C68.9705 172.494 69.8654 173.005 70.6836 173.581L72.9593 172.149C74.2889 171.33 75.9892 171.522 77.0887 172.635C78.201 173.747 78.38 175.448 77.5362 176.778L76.0787 179.041C76.654 179.885 77.1526 180.767 77.5873 181.688L80.2849 181.598C81.8446 181.534 83.2126 182.557 83.6089 184.079C84.0052 185.588 83.3148 187.161 81.9213 187.877L79.5434 189.117C79.6201 190.115 79.6073 191.138 79.5178 192.161L81.8957 193.426C83.2765 194.168 83.9541 195.741 83.545 197.25C83.1231 198.759 81.7551 199.756 80.1826 199.692L77.4978 199.564C77.0503 200.498 76.5262 201.38 75.9637 202.211L77.3828 204.487C78.2138 205.817 78.0092 207.518 76.8969 208.618C75.7847 209.717 74.0843 209.896 72.7675 209.052L70.4918 207.607C69.6608 208.17 68.7659 208.682 67.8454 209.116L67.9349 211.802C67.9988 213.374 66.9761 214.743 65.4547 215.139C65.1734 215.216 64.8879 215.254 64.5981 215.254ZM60.5965 210.472C60.6988 210.472 60.8011 210.536 60.8522 210.638L62.169 213.183C62.7699 214.333 64.0611 214.909 65.314 214.576C66.5669 214.257 67.4107 213.119 67.3596 211.827L67.2701 208.95C67.2573 208.822 67.334 208.72 67.4363 208.669C68.4335 208.208 69.4179 207.646 70.3256 207.019C70.4279 206.955 70.5558 206.955 70.6452 207.019L73.0743 208.566C74.161 209.27 75.5673 209.116 76.4878 208.208C77.4083 207.301 77.5745 205.894 76.8969 204.794L75.3756 202.352C75.3116 202.25 75.3116 202.135 75.3756 202.032C76.0148 201.137 76.5773 200.165 77.0631 199.155C77.1143 199.04 77.2165 198.976 77.3316 198.989L80.2082 199.117C81.4994 199.181 82.65 198.35 82.9824 197.096C83.3276 195.843 82.7651 194.552 81.6273 193.938L79.0831 192.583C78.9808 192.531 78.9169 192.416 78.9297 192.301C79.032 191.176 79.0448 190.063 78.9553 188.964C78.9425 188.849 79.0064 188.746 79.1087 188.682L81.6656 187.365C82.8162 186.764 83.3915 185.473 83.0591 184.22C82.7267 182.967 81.5889 182.123 80.2977 182.174L77.4211 182.276C77.306 182.276 77.2038 182.212 77.1526 182.11C76.6796 181.1 76.1299 180.128 75.5034 179.207C75.4395 179.105 75.4267 178.99 75.4906 178.888L77.0503 176.458C77.7407 175.371 77.6001 173.965 76.6796 173.044C75.7719 172.123 74.3656 171.957 73.2661 172.647L70.837 174.169C70.7347 174.22 70.6069 174.22 70.5174 174.156C69.6225 173.53 68.6508 172.954 67.6281 172.481C67.5258 172.43 67.4619 172.315 67.4619 172.2L67.6025 169.323C67.6536 168.031 66.8226 166.893 65.5697 166.548C64.3296 166.203 63.0256 166.765 62.4247 167.903L61.0695 170.448C61.0184 170.55 60.9033 170.614 60.7883 170.601C59.6632 170.499 58.5382 170.486 57.4515 170.576C57.3364 170.589 57.2214 170.525 57.1702 170.422L55.8534 167.878C55.2525 166.727 53.9613 166.152 52.7084 166.471C51.4555 166.804 50.6117 167.942 50.6501 169.233L50.7523 172.11C50.7523 172.225 50.6884 172.341 50.5861 172.379C49.5761 172.852 48.6045 173.402 47.684 174.041C47.5945 174.105 47.4667 174.105 47.3772 174.041L44.9481 172.494C43.8486 171.791 42.4551 171.944 41.5218 172.852C40.6013 173.76 40.4479 175.167 41.1255 176.266L42.6469 178.696C42.7108 178.798 42.7108 178.926 42.6469 179.015C42.0076 179.911 41.4451 180.882 40.9593 181.905C40.9082 182.008 40.8059 182.072 40.6908 182.072L37.8143 181.944C36.5102 181.88 35.3724 182.711 35.0272 183.964C34.6948 185.217 35.2446 186.509 36.3952 187.122L38.9393 188.465C39.0416 188.529 39.0927 188.631 39.0927 188.746C38.9905 189.872 38.9777 190.997 39.0672 192.084C39.0672 192.212 39.016 192.314 38.9137 192.365L36.3568 193.695C35.2062 194.283 34.6309 195.575 34.9633 196.828C35.2957 198.081 36.4207 198.938 37.7248 198.887L40.6013 198.784C40.7164 198.784 40.8187 198.848 40.8698 198.951C41.3428 199.961 41.8926 200.933 42.519 201.853C42.5829 201.943 42.5829 202.071 42.5318 202.173L40.9721 204.59C40.2817 205.689 40.4223 207.096 41.33 208.017C42.2505 208.937 43.6569 209.103 44.7436 208.413L47.1854 206.891C47.2877 206.827 47.4155 206.827 47.505 206.904C48.4 207.531 49.3716 208.093 50.3944 208.579C50.4966 208.63 50.5606 208.733 50.5478 208.848L50.4199 211.725C50.3688 213.029 51.1998 214.167 52.4399 214.512C53.6928 214.858 54.9968 214.295 55.5977 213.144L56.9529 210.612C57.004 210.51 57.1191 210.446 57.2341 210.459C58.3592 210.561 59.4842 210.561 60.5709 210.485C60.5795 210.476 60.588 210.472 60.5965 210.472ZM59.0112 206.955C57.5793 206.955 56.1219 206.763 54.6772 206.367C50.4455 205.216 46.9169 202.48 44.7436 198.669C42.5702 194.846 42.0076 190.422 43.171 186.189C44.3344 181.956 47.0704 178.427 50.8802 176.253C54.69 174.08 59.1135 173.53 63.3452 174.681C72.0771 177.072 77.2421 186.125 74.8514 194.871C72.857 202.16 66.2218 206.955 59.0112 206.955ZM58.9856 174.668C56.2625 174.668 53.5905 175.371 51.1614 176.752C47.4795 178.849 44.8458 182.263 43.7208 186.342C42.6085 190.422 43.1455 194.705 45.2421 198.375C47.3388 202.058 50.7395 204.692 54.8306 205.817C56.2242 206.201 57.6305 206.38 59.0112 206.38C65.9661 206.38 72.3712 201.751 74.2889 194.718C76.6029 186.279 71.6169 177.545 63.1918 175.243C61.7983 174.86 60.392 174.668 58.9856 174.668Z" fill="black"/>
<path d="M72.8824 190.588C72.8824 182.839 66.618 176.547 58.8705 176.547C51.123 176.547 44.8457 182.839 44.8457 190.588C44.8457 198.337 51.123 204.615 58.8705 204.615C66.618 204.615 72.8824 198.337 72.8824 190.588Z" fill="white"/>
<path d="M68.7396 200.792C66.2083 203.17 62.8076 204.641 59.0617 204.641C55.3158 204.641 51.9151 203.17 49.3965 200.792C52.3114 199.884 55.597 199.373 59.0617 199.373C62.5391 199.373 65.812 199.884 68.7396 200.792Z" fill="black"/>
<path d="M54.5499 182.391C55.1763 181.982 55.9178 181.765 56.6721 181.765H61.1212C62.1184 181.765 63.0772 182.135 63.806 182.813L64.0489 183.043C65.1995 184.117 65.6086 185.767 65.0716 187.263L63.6142 191.317L54.2303 191.265L52.9007 186.828C52.4021 185.14 53.0796 183.337 54.5499 182.391Z" fill="black"/>
<path d="M56.8636 184.156C56.8891 184.143 56.9275 184.13 56.9275 184.13L63.665 188.504V191.138C63.665 192.647 62.9491 193.989 61.8624 194.859V198.887C61.8624 200.472 60.5711 201.764 58.9858 201.764C57.3877 201.764 56.1093 200.472 56.1093 198.887V194.974C54.9331 194.104 54.166 192.711 54.166 191.138V188.35C54.166 186.483 55.2655 184.872 56.8636 184.156Z" fill="white"/>
<path d="M58.9102 196.176C56.1359 196.176 53.873 193.925 53.873 191.138V188.35C53.873 185.652 56.0592 183.465 58.7568 183.465H63.6661C63.8195 183.465 63.9473 183.593 63.9473 183.759V191.138C63.9473 193.107 62.7839 194.91 60.9941 195.728C60.8535 195.792 60.6873 195.728 60.6106 195.588C60.5466 195.447 60.6106 195.268 60.764 195.204C62.3493 194.488 63.372 192.889 63.372 191.138V184.041H58.7568C56.3788 184.041 54.4484 185.972 54.4484 188.35V191.138C54.4484 193.606 56.4555 195.6 58.9102 195.6C59.0764 195.6 59.2042 195.728 59.2042 195.894C59.2042 196.048 59.0764 196.176 58.9102 196.176Z" fill="black"/>
<path d="M59.0622 204.909C55.2652 204.909 51.6727 203.439 48.9624 200.766C45.9963 197.851 44.4494 193.784 44.7051 189.629C44.7179 189.475 44.8457 189.347 45.0119 189.36C45.1653 189.373 45.2932 189.514 45.2804 189.667C45.0375 193.657 46.5205 197.557 49.3715 200.357C51.9668 202.927 55.4186 204.334 59.0622 204.334C59.0963 204.334 59.1304 204.334 59.1645 204.334C62.8465 204.308 66.3111 202.851 68.9064 200.229C71.4889 197.595 72.908 194.117 72.8824 190.434C72.8569 186.739 71.3994 183.273 68.7658 180.69C63.6008 175.588 55.3163 175.371 49.8956 180.192C49.7806 180.294 49.6016 180.281 49.4865 180.166C49.3843 180.051 49.397 179.859 49.5121 179.757C55.1629 174.744 63.7926 174.962 69.1749 180.281C71.9108 182.979 73.4322 186.585 73.4577 190.421C73.4833 194.27 72.0131 197.889 69.3155 200.626C66.618 203.362 63.0127 204.884 59.1645 204.909C59.1304 204.909 59.0963 204.909 59.0622 204.909Z" fill="black"/>
<path d="M58.985 202.045C57.2335 202.045 55.8145 200.625 55.8145 198.886V195.063C55.8145 194.91 55.9423 194.782 56.1085 194.782C56.2619 194.782 56.3898 194.91 56.3898 195.063V198.886C56.3898 200.306 57.5532 201.469 58.985 201.469C60.4041 201.469 61.5675 200.306 61.5675 198.886V194.858C61.5675 194.705 61.6954 194.577 61.8616 194.577C62.015 194.577 62.1429 194.705 62.1429 194.858V198.886C62.1429 200.625 60.7238 202.045 58.985 202.045Z" fill="black"/>
<path d="M144.209 234C141.153 234 138.481 232.018 137.612 229.038L135.912 223.22C133.598 222.939 131.283 222.478 129.046 221.839L125.211 226.545C123.165 229.064 119.713 229.805 116.811 228.36C113.909 226.928 112.413 223.719 113.18 220.56L114.612 214.691C112.771 213.31 110.994 211.737 109.358 210.037L103.694 212.198C100.664 213.348 97.2891 212.274 95.4993 209.576C93.7094 206.865 94.0163 203.349 96.2536 200.996L100.447 196.623C99.5136 194.436 98.7594 192.199 98.1968 189.961L92.2264 189.015C89.0175 188.49 86.6395 185.869 86.4477 182.634C86.2432 179.399 88.2759 176.509 91.3826 175.601L97.1996 173.887C97.4809 171.573 97.9539 169.271 98.5931 167.021L93.8884 163.197C91.3698 161.151 90.6155 157.686 92.0602 154.783C93.5049 151.881 96.7138 150.385 99.8588 151.152L105.74 152.584C107.121 150.743 108.68 148.978 110.393 147.329L108.233 141.664C107.069 138.633 108.156 135.27 110.854 133.467C113.551 131.677 117.08 131.984 119.419 134.235L123.804 138.416C125.978 137.482 128.215 136.728 130.452 136.165L131.411 130.194C131.923 126.997 134.544 124.619 137.778 124.414C141.013 124.209 143.915 126.243 144.822 129.35L146.523 135.181C148.837 135.449 151.151 135.922 153.401 136.562L157.224 131.856C159.269 129.337 162.721 128.595 165.623 130.028C168.538 131.473 170.021 134.682 169.254 137.841L167.822 143.71C169.676 145.091 171.44 146.664 173.076 148.364L178.74 146.203C181.77 145.052 185.145 146.127 186.935 148.825C188.725 151.536 188.418 155.052 186.181 157.405L181.987 161.778C182.921 163.965 183.688 166.19 184.237 168.427L190.208 169.386C193.417 169.911 195.795 172.519 195.999 175.754C196.191 179.002 194.171 181.892 191.052 182.8L185.235 184.501C184.953 186.828 184.493 189.13 183.854 191.38L188.546 195.203C191.064 197.249 191.819 200.715 190.374 203.617C188.929 206.52 185.721 208.016 182.575 207.249L176.707 205.817C175.314 207.658 173.754 209.423 172.054 211.072L174.214 216.737C175.365 219.768 174.278 223.131 171.581 224.921C168.883 226.724 165.355 226.404 163.015 224.166L158.63 219.985C156.456 220.918 154.219 221.673 151.982 222.235L151.023 228.207C150.512 231.404 147.891 233.782 144.656 233.987C144.511 233.995 144.362 234 144.209 234ZM128.931 221.225C128.965 221.225 128.995 221.225 129.021 221.225C131.347 221.903 133.751 222.389 136.167 222.67C136.282 222.683 136.385 222.773 136.41 222.875L138.162 228.885C139.005 231.736 141.652 233.603 144.618 233.411C147.584 233.22 149.987 231.046 150.46 228.105L151.445 221.954C151.458 221.839 151.547 221.75 151.662 221.724C153.989 221.149 156.316 220.356 158.579 219.384C158.681 219.333 158.809 219.358 158.898 219.435L163.411 223.757C165.559 225.803 168.794 226.097 171.261 224.448C173.741 222.798 174.726 219.716 173.665 216.942L171.44 211.098C171.402 210.983 171.427 210.868 171.517 210.791C173.294 209.078 174.93 207.236 176.349 205.318C176.426 205.216 176.541 205.177 176.656 205.203L182.716 206.686C185.593 207.39 188.533 206.021 189.863 203.362C191.18 200.702 190.489 197.531 188.188 195.651L183.343 191.713C183.253 191.636 183.215 191.521 183.24 191.406C183.918 189.066 184.404 186.662 184.685 184.245C184.698 184.13 184.774 184.04 184.889 184.002L190.898 182.25C193.749 181.419 195.603 178.759 195.424 175.793C195.232 172.826 193.059 170.435 190.118 169.962L183.969 168.964C183.854 168.952 183.752 168.862 183.726 168.76C183.164 166.433 182.371 164.092 181.387 161.829C181.348 161.727 181.361 161.599 181.45 161.522L185.759 156.996C187.817 154.847 188.098 151.625 186.462 149.144C184.813 146.676 181.719 145.679 178.945 146.74L173.115 148.965C173 149.016 172.885 148.978 172.795 148.901C171.095 147.111 169.254 145.487 167.323 144.055C167.234 143.991 167.196 143.876 167.221 143.761L168.691 137.7C169.407 134.81 168.039 131.869 165.367 130.552C162.708 129.222 159.538 129.913 157.671 132.214L153.721 137.073C153.644 137.163 153.529 137.201 153.414 137.163C151.087 136.485 148.683 135.999 146.267 135.718C146.152 135.705 146.063 135.628 146.024 135.513L144.273 129.516C143.442 126.665 140.782 124.798 137.816 124.989C134.85 125.168 132.447 127.355 131.974 130.283L130.989 136.447C130.977 136.562 130.887 136.651 130.772 136.677C128.445 137.252 126.118 138.045 123.856 139.017C123.753 139.068 123.625 139.043 123.549 138.966L119.023 134.644C116.875 132.598 113.641 132.304 111.173 133.953C108.693 135.603 107.709 138.684 108.77 141.459L110.994 147.303C111.033 147.405 111.007 147.533 110.918 147.61C109.14 149.323 107.517 151.165 106.085 153.083C106.008 153.172 105.893 153.223 105.778 153.198L99.731 151.715C96.8417 151.011 93.9012 152.379 92.5716 155.039C91.2548 157.699 91.9451 160.87 94.2464 162.75L99.1045 166.688C99.194 166.765 99.2324 166.88 99.194 166.995C98.5164 169.335 98.0306 171.739 97.7494 174.143C97.7366 174.258 97.6599 174.361 97.5448 174.386L91.5488 176.151C88.6978 176.982 86.8313 179.642 87.023 182.608C87.202 185.562 89.3882 187.966 92.3159 188.439L98.4781 189.424C98.5931 189.449 98.6826 189.526 98.7082 189.641C99.2835 191.968 100.063 194.296 101.048 196.559C101.099 196.674 101.073 196.789 100.997 196.879L96.6754 201.392C94.6171 203.541 94.3359 206.776 95.9851 209.257C97.6215 211.724 100.715 212.722 103.49 211.661L109.332 209.436C109.435 209.384 109.562 209.41 109.639 209.499C111.339 211.29 113.18 212.914 115.111 214.346C115.2 214.41 115.239 214.525 115.213 214.64L113.743 220.701C113.04 223.591 114.408 226.532 117.067 227.849C119.726 229.166 122.897 228.488 124.763 226.174L128.714 221.328C128.765 221.264 128.854 221.225 128.931 221.225ZM141.268 214.512C129.826 214.512 118.588 208.975 111.8 198.746C107.913 192.889 105.893 186.15 105.893 179.271C105.893 176.931 106.123 174.565 106.596 172.212C108.463 162.967 113.82 155.001 121.682 149.771C129.532 144.554 138.954 142.712 148.198 144.579C157.454 146.446 165.418 151.791 170.635 159.655C174.623 165.652 176.528 172.43 176.528 179.143C176.528 190.587 170.98 201.827 160.752 208.63C154.769 212.607 147.98 214.512 141.268 214.512ZM106.468 179.271C106.468 186.035 108.45 192.659 112.273 198.426C122.871 214.384 144.477 218.745 160.445 208.144C170.494 201.456 175.953 190.408 175.953 179.143C175.953 172.545 174.074 165.87 170.162 159.975C165.022 152.239 157.185 146.971 148.095 145.142C138.993 143.301 129.724 145.116 122.002 150.257C114.267 155.384 109 163.223 107.159 172.327C106.699 174.642 106.468 176.969 106.468 179.271Z" fill="black"/>
<path d="M141.064 137.074C141.064 137.074 131.668 132.79 128.51 132.112C125.352 131.434 119.97 126.166 127.564 119.338C130.019 117.126 129.43 113.443 134.787 111.013C140.131 108.584 145.667 109.888 147.418 113.187C149.17 116.486 146.856 120.604 144.504 121.831C142.164 123.046 141.064 137.074 141.064 137.074Z" fill="black"/>
<path d="M136.871 144.158L134.314 151.983C134.314 151.983 151.854 150.935 151.177 148.326C150.985 147.597 150.538 147.06 150.001 146.677C147.303 144.759 148.403 136.792 148.403 136.792L153.069 132.841C153.926 132.125 154.092 130.872 153.452 129.938L151.177 126.626C150.793 126.077 150.678 125.373 150.87 124.721L151.279 123.353L146.932 120.45L143.148 116.013C137.101 117.56 135.26 119.964 136.679 124.529C137.6 127.445 136.091 128.02 136.091 128.02C136.091 128.02 133.035 126.345 132.818 129.606C132.614 132.854 138.098 133.263 138.098 133.263C139.172 134.375 139.53 135.987 139.057 137.457L136.871 144.158Z" fill="white"/>
<path d="M134.313 152.278C134.224 152.278 134.147 152.239 134.083 152.163C134.032 152.086 134.007 151.996 134.045 151.894L136.602 144.068L138.775 137.368C139.223 136.038 138.903 134.58 137.97 133.532C137.139 133.455 132.319 132.854 132.536 129.58C132.6 128.557 132.946 127.867 133.559 127.522C134.48 127.023 135.669 127.509 136.078 127.701C136.359 127.509 137.088 126.793 136.41 124.606C135.745 122.496 135.784 120.834 136.525 119.517C137.459 117.842 139.542 116.64 143.071 115.732C143.186 115.706 143.288 115.745 143.365 115.822L147.124 120.233L151.432 123.11C151.547 123.174 151.586 123.315 151.547 123.43L151.151 124.798C150.985 125.373 151.074 125.974 151.419 126.473L153.695 129.785C154.411 130.834 154.219 132.24 153.248 133.059L148.671 136.946C148.556 137.892 147.801 144.759 150.166 146.434C150.831 146.92 151.266 147.534 151.458 148.262C151.522 148.518 151.47 148.787 151.292 149.03C149.655 151.293 135.899 152.188 134.326 152.278C134.326 152.278 134.322 152.278 134.313 152.278ZM134.505 127.88C134.275 127.88 134.045 127.918 133.84 128.033C133.406 128.263 133.163 128.8 133.112 129.619C132.92 132.56 138.072 132.969 138.123 132.969C138.2 132.969 138.264 133.007 138.315 133.059C139.453 134.261 139.836 135.974 139.325 137.547L134.723 151.677C139.172 151.382 149.617 150.36 150.831 148.697C150.921 148.557 150.921 148.467 150.908 148.403C150.755 147.802 150.384 147.303 149.834 146.907C147.021 144.912 148.07 137.086 148.108 136.754C148.121 136.69 148.159 136.626 148.21 136.575L152.877 132.624C153.618 131.997 153.772 130.91 153.209 130.105L150.946 126.793C150.512 126.166 150.384 125.374 150.601 124.645L150.946 123.468L146.779 120.693C146.753 120.676 146.732 120.659 146.715 120.642L143.045 116.333C139.773 117.19 137.868 118.289 137.024 119.786C136.359 120.988 136.346 122.458 136.96 124.44C137.944 127.586 136.257 128.263 136.193 128.289C136.103 128.327 136.027 128.315 135.95 128.276C135.937 128.276 135.208 127.88 134.505 127.88Z" fill="black"/>
<path d="M135.26 124.056L141.179 128.238C143.685 130.015 147.111 129.708 149.272 127.522L151.113 125.655L157.722 131.869C158.515 132.79 158.349 134.209 157.351 134.925L152.212 139.362C150.678 140.475 148.671 140.641 146.983 139.772L138.43 135.398C138.43 135.398 140.118 132.33 136.091 128.02C132.063 123.724 135.26 124.056 135.26 124.056Z" fill="black"/>
<path d="M209.652 118.021L198.543 123.596C198.543 123.596 199.808 143.365 188.123 147.891C182.498 150.065 177.576 149.72 173.983 148.761C168.563 147.329 162.861 147.201 157.402 148.531L135.45 153.824C123.318 156.753 114.1 166.624 112.003 178.926C109.766 192.083 107.337 209.448 107.03 224.281C106.979 227.018 109.625 228.987 112.233 228.13L168.933 209.397L171.081 174.028C178.177 174.629 188.519 173.798 201.572 168.108C229.149 156.101 209.652 118.021 209.652 118.021Z" fill="white"/>
<path d="M110.969 228.629C110.086 228.629 109.217 228.335 108.476 227.785C107.351 226.954 106.711 225.675 106.75 224.269C107.057 209.065 109.626 191.201 111.723 178.874C113.832 166.445 123.127 156.51 135.387 153.543L157.326 148.249C162.746 146.932 168.538 147.022 174.061 148.492C178.676 149.707 183.368 149.426 188.009 147.623C199.374 143.224 198.262 123.8 198.249 123.608C198.237 123.493 198.301 123.391 198.403 123.34L209.525 117.765C209.666 117.688 209.845 117.752 209.909 117.893C210.024 118.097 220.571 139.017 214.984 154.668C212.76 160.883 208.285 165.499 201.688 168.376C188.354 174.182 177.871 174.846 171.35 174.348L169.215 209.423C169.203 209.538 169.126 209.64 169.024 209.679L112.324 228.399C111.876 228.552 111.416 228.629 110.969 228.629ZM165.163 147.904C162.555 147.904 159.972 148.198 157.466 148.812L135.515 154.106C123.485 157.008 114.357 166.778 112.285 178.977C110.202 191.278 107.632 209.116 107.325 224.281C107.299 225.496 107.836 226.609 108.808 227.325C109.78 228.041 110.994 228.233 112.132 227.862L168.653 209.193L170.801 174.015C170.801 173.939 170.839 173.862 170.89 173.811C170.954 173.76 171.031 173.734 171.108 173.747C177.538 174.284 188.034 173.696 201.458 167.852C207.902 165.039 212.274 160.538 214.435 154.477C219.613 139.989 210.714 120.834 209.525 118.404L198.837 123.762C198.876 124.734 199.004 129.222 197.994 134.107C196.472 141.408 193.097 146.267 188.226 148.16C183.458 150.001 178.651 150.295 173.92 149.042C171.044 148.275 168.09 147.904 165.163 147.904Z" fill="black"/>
<path d="M197.443 100.732C197.558 99.9781 198.543 97.5101 199.105 96.7046L204.513 86.8713C204.513 86.8713 206.687 90.0297 206.137 92.4976C208.553 91.7815 210.586 91.5641 210.586 91.5641C210.586 91.5641 213.117 87.2421 213.833 86.4109C214.536 85.5798 215.419 84.3266 216.608 83.9558C217.809 83.5722 219.305 84.0965 219.305 84.0965L215.316 95.055L203.976 102.612L210.918 121.294L198.543 123.596L197.443 100.732Z" fill="white"/>
<path d="M198.543 123.877C198.466 123.877 198.415 123.864 198.364 123.813C198.287 123.762 198.249 123.685 198.249 123.609L197.162 100.745C197.162 100.728 197.162 100.707 197.162 100.681C197.277 99.9142 198.274 97.4079 198.862 96.5512L204.258 86.7307C204.309 86.6411 204.398 86.5772 204.5 86.5772C204.59 86.5772 204.692 86.6156 204.756 86.7051C204.833 86.8329 206.738 89.6333 206.495 92.1012C208.349 91.5898 209.934 91.3596 210.407 91.2957C210.842 90.5668 212.951 86.9992 213.603 86.2192C213.705 86.1083 213.808 85.989 213.91 85.8611C214.575 85.0428 215.406 84.0326 216.531 83.6745C217.809 83.2781 219.331 83.8024 219.395 83.828C219.471 83.8536 219.535 83.9047 219.561 83.9686C219.599 84.0454 219.599 84.1221 219.574 84.1988L215.585 95.1574C215.572 95.2213 215.534 95.2597 215.483 95.298L204.322 102.727L211.2 121.192C211.225 121.281 211.212 121.371 211.174 121.435C211.136 121.512 211.059 121.563 210.97 121.576L198.594 123.877C198.577 123.877 198.56 123.877 198.543 123.877ZM197.737 100.745L198.811 123.251L210.535 121.077L203.708 102.715C203.657 102.587 203.708 102.446 203.823 102.369L215.073 94.876L218.934 84.2883C218.461 84.1604 217.502 83.9814 216.697 84.2244C215.751 84.5313 214.971 85.4647 214.357 86.2192C214.247 86.3556 214.144 86.4834 214.051 86.6028C213.36 87.4084 210.867 91.6665 210.842 91.7176C210.791 91.7944 210.714 91.8455 210.624 91.8583C210.599 91.8583 208.579 92.0757 206.214 92.779C206.111 92.8045 206.009 92.779 205.932 92.715C205.868 92.6383 205.83 92.536 205.856 92.4337C206.252 90.6179 205.076 88.3418 204.526 87.4339L199.348 96.8453C199.348 96.8538 199.344 96.8623 199.335 96.8708C198.811 97.6381 197.865 100.004 197.737 100.745Z" fill="black"/>
<path d="M91.3066 214.781C91.3066 214.781 93.6079 169.463 123.115 160.32L131.029 184.283C131.029 184.283 102.877 217.747 100.179 228.169C97.4816 238.603 91.3066 214.781 91.3066 214.781Z" fill="white"/>
<path d="M91.3058 215.075C91.2972 215.075 91.293 215.075 91.293 215.075C91.1268 215.062 91.0117 214.934 91.0117 214.768C91.0245 214.653 91.6382 203.26 95.8699 190.882C98.3629 183.619 101.585 177.43 105.471 172.507C110.329 166.343 116.249 162.149 123.024 160.039C123.178 160.001 123.344 160.077 123.395 160.231C123.434 160.384 123.357 160.551 123.203 160.602C108.079 165.282 100.293 179.744 96.4196 191.061C92.2135 203.349 91.5998 214.691 91.587 214.793C91.587 214.947 91.4592 215.075 91.3058 215.075Z" fill="black"/>
<path d="M100.178 228.463C100.144 228.463 100.114 228.459 100.089 228.45C99.9351 228.399 99.8456 228.233 99.9095 228.08C103.822 216.686 126.284 189.59 126.514 189.309C126.617 189.194 126.796 189.168 126.911 189.271C127.039 189.373 127.051 189.565 126.949 189.68C126.732 189.948 104.333 216.968 100.446 228.271C100.408 228.386 100.293 228.463 100.178 228.463Z" fill="black"/>
<path d="M156.443 149.925L155.919 146.536C155.74 145.398 154.538 144.145 153.566 144.733C145.346 149.669 131.986 145.321 129.723 146.332C123.343 149.157 112.694 165.295 115.11 164.042C125.248 158.722 142.354 162.469 150.102 159.668C156.046 157.507 156.443 149.925 156.443 149.925Z" fill="black"/>
<path d="M146.674 185.754C146.534 185.754 146.419 185.652 146.393 185.511L141.701 156.536C141.676 156.382 141.778 156.241 141.931 156.216C142.097 156.19 142.238 156.293 142.264 156.446L146.956 185.422C146.981 185.575 146.879 185.728 146.726 185.754C146.708 185.754 146.691 185.754 146.674 185.754Z" fill="black"/>
<path d="M153.693 179.412C153.565 179.412 153.45 179.335 153.412 179.194L147.148 156.05C147.109 155.896 147.199 155.743 147.352 155.691C147.505 155.653 147.659 155.743 147.697 155.896L153.975 179.054C154.013 179.207 153.923 179.36 153.77 179.399C153.744 179.407 153.719 179.412 153.693 179.412Z" fill="black"/>
<path d="M146.536 184.923C146.037 185.026 145.692 185.371 145.768 185.703L146.369 188.619C146.433 188.951 146.894 189.13 147.379 189.028C147.878 188.926 148.223 188.58 148.159 188.248L147.546 185.332C147.482 185 147.021 184.821 146.536 184.923Z" fill="black"/>
<path d="M153.567 178.427C153.081 178.555 152.761 178.926 152.851 179.259L153.656 182.123C153.746 182.455 154.219 182.609 154.692 182.468C155.178 182.327 155.497 181.957 155.408 181.637L154.602 178.76C154.513 178.44 154.053 178.287 153.567 178.427Z" fill="black"/>
<path d="M141.268 214.512C137.036 214.512 132.83 213.758 128.867 212.275C122.372 209.858 116.529 205.523 112.285 199.449C112.123 199.219 111.961 198.985 111.799 198.746C111.799 198.737 111.795 198.733 111.786 198.733C107.9 192.877 105.893 186.151 105.893 179.271C105.893 176.931 106.123 174.566 106.596 172.213C108.462 162.968 113.819 155.001 121.682 149.771C121.682 149.771 121.686 149.771 121.694 149.771C121.694 149.763 121.699 149.759 121.707 149.759C121.707 149.759 121.711 149.754 121.72 149.746C126.297 146.715 131.36 144.836 136.767 144.145C136.934 144.132 137.074 144.247 137.1 144.401C137.113 144.554 136.998 144.695 136.844 144.72C136.802 144.729 136.759 144.733 136.716 144.733C131.424 145.424 126.476 147.278 122.001 150.257C114.74 155.078 109.651 162.29 107.529 170.691C107.529 170.7 107.529 170.704 107.529 170.704C105.138 180.192 106.877 190.294 112.272 198.426C122.871 214.385 144.477 218.745 160.445 208.145C160.445 208.145 160.445 208.14 160.445 208.132C160.453 208.132 160.457 208.132 160.457 208.132C160.466 208.132 160.47 208.132 160.47 208.132C171.005 201.112 176.911 188.721 175.837 176.177C175.786 175.589 175.718 175 175.633 174.412L175.607 174.233C175.599 174.182 175.594 174.135 175.594 174.092C175.586 174.075 175.582 174.063 175.582 174.054C175.582 173.913 175.684 173.786 175.837 173.76C175.991 173.747 176.131 173.849 176.157 174.003C176.174 174.114 176.191 174.225 176.208 174.335V174.348C176.225 174.459 176.238 174.57 176.246 174.681C176.438 176.177 176.541 177.686 176.541 179.182C176.541 183.21 175.85 187.212 174.495 191.023C174.205 191.841 173.886 192.651 173.536 193.452C173.4 193.759 173.259 194.066 173.114 194.373C173.114 194.373 173.114 194.377 173.114 194.386C173.114 194.386 173.11 194.386 173.101 194.386C173.101 194.386 173.101 194.39 173.101 194.398C172.322 196.035 171.427 197.608 170.404 199.104C170.404 199.104 170.4 199.108 170.391 199.117C167.86 202.838 164.664 206.009 160.892 208.541C160.892 208.541 160.888 208.541 160.879 208.541C160.837 208.566 160.794 208.596 160.751 208.63C154.768 212.607 147.98 214.512 141.268 214.512Z" fill="black"/>
<path d="M47.2627 132.381L44.4629 146.817C44.4629 146.817 70.3262 154.272 81.9091 141.779L78.5212 132.381H47.2627Z" fill="black"/>
<path d="M4.33228 96.9989L10.4433 100.26C10.2004 102.996 10.1749 105.72 10.3794 108.405L4.24279 111.589C1.21283 113.162 -0.334108 116.64 0.535248 119.939C1.4046 123.251 4.44735 125.527 7.86085 125.399L14.7901 125.169C15.9407 127.637 17.2959 130.002 18.8301 132.24L15.097 138.084C13.2432 140.961 13.6523 144.733 16.0558 147.175C18.4593 149.605 22.2308 150.04 25.1329 148.237L31.0011 144.567C33.2 146.114 35.5524 147.495 38.0454 148.672L37.7258 155.602C37.5724 159.016 39.8097 162.085 43.1081 162.993C46.4065 163.888 49.884 162.392 51.4948 159.374L54.7549 153.249C57.4908 153.492 60.214 153.518 62.8987 153.313L66.0821 159.451C67.6546 162.482 71.132 164.029 74.4305 163.159C77.7417 162.29 80.0174 159.247 79.8895 155.832L79.6594 148.902C82.1141 147.751 84.492 146.408 86.7293 144.861L92.5719 148.595C95.4484 150.449 99.2199 150.04 101.662 147.636C104.091 145.232 104.526 141.46 102.723 138.557L99.0537 132.688C100.601 130.488 101.981 128.135 103.158 125.642L110.087 125.962C113.5 126.115 116.569 123.89 117.476 120.578C118.371 117.279 116.876 113.801 113.846 112.19L107.734 108.929C107.977 106.193 108.003 103.469 107.798 100.784L113.935 97.5999C116.965 96.027 118.512 92.5489 117.643 89.2499C116.773 85.938 113.73 83.6747 110.317 83.7898L103.388 84.0199C102.237 81.5648 100.895 79.1992 99.3478 76.9487L103.081 71.105C104.935 68.2279 104.526 64.4557 102.122 62.0261C99.7185 59.5838 95.947 59.149 93.0449 60.952L87.1768 64.6219C84.9778 63.0747 82.6254 61.6936 80.1324 60.5172L80.4521 53.5866C80.6055 50.1725 78.3682 47.1036 75.0697 46.2085C71.7713 45.3006 68.2939 46.7967 66.683 49.8272L63.4229 55.9394C60.687 55.6965 57.9639 55.6709 55.2791 55.8755L52.0957 49.7377C50.5232 46.7072 47.0458 45.1599 43.7473 46.0294C40.4361 46.899 38.1732 49.9423 38.2883 53.3564L38.5184 60.2871C36.0638 61.4379 33.6986 62.7933 31.4485 64.3278L25.6059 60.594C22.7294 58.7398 18.9579 59.149 16.5161 61.553C14.087 63.957 13.6523 67.7292 15.4549 70.6318L19.1241 76.5011C17.5772 78.7005 16.1964 81.0533 15.0202 83.5468L8.09097 83.2271C4.67747 83.0737 1.60916 85.3114 0.701447 88.6105C-0.193478 91.9096 1.30232 95.3877 4.33228 96.9989ZM21.6299 94.3392C27.2935 73.6496 48.6566 61.4635 69.3422 67.1282C90.0277 72.7929 102.212 94.1601 96.5479 114.85C90.8843 135.539 69.5212 147.725 48.8356 142.061C28.1501 136.396 15.9663 115.029 21.6299 94.3392Z" fill="#B9FF66"/>
<path d="M72.5507 163.697C69.7637 163.697 67.1684 162.162 65.826 159.579L62.7321 153.608C60.1752 153.799 57.5416 153.787 54.9207 153.556L51.7501 159.502C50.0625 162.661 46.4828 164.208 43.031 163.262C39.5791 162.316 37.2779 159.157 37.4441 155.59L37.7381 148.851C35.3602 147.713 33.0973 146.383 30.9878 144.912L25.2859 148.48C22.2431 150.372 18.3694 149.925 15.8508 147.367C13.3322 144.823 12.9231 140.948 14.8536 137.931L18.4845 132.24C17.0142 130.092 15.723 127.816 14.6107 125.463L7.87321 125.693C4.29351 125.821 1.16127 123.481 0.253558 120.016C-0.654152 116.55 0.931145 112.983 4.11452 111.333L10.0849 108.239C9.89318 105.681 9.90597 103.047 10.1361 100.426L4.19123 97.2547C1.03342 95.5668 -0.513522 91.9864 0.432542 88.5339C1.37861 85.0814 4.53641 82.7797 8.10333 82.946L14.8408 83.2528C15.9787 80.8616 17.3083 78.5983 18.7785 76.4885L15.2116 70.7854C13.3195 67.7421 13.7797 63.8676 16.3239 61.3485C18.868 58.8295 22.7545 58.4203 25.7589 60.3511L31.4481 63.9827C33.5959 62.5121 35.8716 61.2206 38.224 60.1082L37.9938 53.3694C37.8788 49.789 40.2056 46.6561 43.6702 45.7482C47.1349 44.8404 50.7018 46.426 52.351 49.6099L55.4449 55.5815C58.0018 55.3897 60.6354 55.4153 63.2563 55.6327L66.4269 49.6867C68.1145 46.5282 71.6942 44.981 75.146 45.9273C78.5979 46.8735 80.8991 50.0319 80.7457 53.6123L80.4388 60.3383C82.8168 61.4764 85.0797 62.8062 87.1891 64.2768L92.8911 60.7092C95.9338 58.8167 99.8076 59.277 102.326 61.8216C104.845 64.3663 105.254 68.2536 103.323 71.2585L99.6925 76.9488C101.163 79.097 102.454 81.3731 103.566 83.726L110.304 83.4958C113.883 83.3807 117.016 85.708 117.923 89.1733C118.831 92.6386 117.246 96.2062 114.062 97.8557L108.092 100.95C108.284 103.508 108.271 106.142 108.041 108.776L113.986 111.934C117.144 113.622 118.691 117.203 117.744 120.655C116.798 124.108 113.641 126.409 110.074 126.256L103.336 125.949C102.198 128.327 100.869 130.591 99.3985 132.701L102.965 138.404C104.858 141.447 104.41 145.321 101.853 147.841C99.309 150.36 95.4352 150.769 92.4181 148.838L86.7289 145.206C84.5811 146.677 82.3054 147.968 79.953 149.081L80.1832 155.82C80.2982 159.4 77.9714 162.533 74.5068 163.441C73.8548 163.607 73.2027 163.697 72.5507 163.697ZM62.8983 153.019C63.0134 153.019 63.1029 153.083 63.154 153.173L66.3374 159.311C67.8588 162.252 71.1572 163.722 74.3661 162.878C77.5623 162.047 79.7229 159.144 79.6078 155.832L79.3649 148.915C79.3649 148.787 79.4289 148.684 79.5311 148.633C81.973 147.495 84.3382 146.153 86.5627 144.631C86.665 144.567 86.78 144.554 86.8823 144.618L92.7249 148.352C95.5119 150.142 99.1044 149.759 101.457 147.431C103.809 145.104 104.231 141.524 102.48 138.711L98.8104 132.841C98.7465 132.752 98.7593 132.624 98.8232 132.534C100.345 130.348 101.725 127.995 102.901 125.527C102.953 125.425 103.055 125.348 103.17 125.361L110.099 125.68C113.398 125.821 116.325 123.698 117.195 120.502C118.064 117.318 116.632 114.006 113.717 112.446L107.593 109.185C107.491 109.134 107.44 109.019 107.453 108.904C107.696 106.18 107.709 103.456 107.504 100.797C107.491 100.682 107.555 100.579 107.657 100.528L113.794 97.3442C116.734 95.8226 118.205 92.5235 117.361 89.3139C116.53 86.1172 113.628 83.9561 110.317 84.0712L103.387 84.3142C103.272 84.3142 103.17 84.2502 103.119 84.1479C101.981 81.7056 100.639 79.34 99.1172 77.115C99.0533 77.0127 99.0405 76.8976 99.1044 76.7953L102.838 70.9516C104.627 68.164 104.244 64.5709 101.917 62.218C99.5902 59.8652 96.0106 59.456 93.1979 61.2079L87.3298 64.865C87.2403 64.9289 87.1124 64.9161 87.0102 64.8522C84.8368 63.3305 82.4844 61.9495 80.017 60.7731C79.9147 60.7219 79.8508 60.6197 79.8508 60.5046L80.1704 53.5739C80.311 50.2749 78.1888 47.3594 74.9926 46.4771C71.8092 45.6076 68.498 47.0397 66.9383 49.9552L63.6782 56.0802C63.627 56.1825 63.512 56.2337 63.3969 56.2209C60.6738 55.9779 57.9507 55.9651 55.2915 56.1697C55.1764 56.1825 55.0741 56.1186 55.023 56.0163L51.8396 49.8785C50.3182 46.9374 47.0198 45.4669 43.8108 46.3109C40.6147 47.1548 38.4541 50.0447 38.5691 53.3566L38.812 60.2872C38.812 60.4023 38.7481 60.5046 38.6458 60.5557C36.204 61.6938 33.8388 63.0364 31.6143 64.5581C31.512 64.622 31.397 64.6348 31.2947 64.5709L25.4521 60.837C22.665 59.0468 19.0726 59.4304 16.7202 61.7577C14.3678 64.085 13.9459 67.6653 15.7102 70.4785L19.3666 76.3478C19.4305 76.4373 19.4177 76.5652 19.3538 76.6675C17.8324 78.8413 16.4517 81.1941 15.2755 83.662C15.2244 83.7771 15.1221 83.841 15.007 83.8283L8.07776 83.5214C4.77932 83.3679 1.86442 85.4906 0.982284 88.6874C0.112928 91.8714 1.54481 95.196 4.4597 96.7432L10.5836 100.004C10.6858 100.055 10.737 100.17 10.7242 100.285C10.4813 103.009 10.4685 105.733 10.673 108.392C10.6858 108.507 10.6219 108.61 10.5196 108.661L4.383 111.845C1.44253 113.366 -0.0277054 116.666 0.816081 119.875C1.64708 123.072 4.56198 125.233 7.86042 125.118L14.7897 124.875C14.9048 124.875 15.007 124.939 15.0582 125.041C16.196 127.483 17.5384 129.849 19.0598 132.074C19.1237 132.176 19.1365 132.291 19.0726 132.394L15.3394 138.237C13.5496 141.025 13.9331 144.618 16.2599 146.971C18.5867 149.324 22.1664 149.746 24.9791 147.994L30.8472 144.324C30.9367 144.26 31.0646 144.273 31.1668 144.337C33.3402 145.859 35.6926 147.24 38.16 148.416C38.2751 148.467 38.339 148.569 38.3262 148.684L38.0194 155.615C37.866 158.914 39.9882 161.842 43.1844 162.712C46.3678 163.581 49.6918 162.149 51.2387 159.234L54.4988 153.109C54.5499 153.007 54.665 152.955 54.7801 152.968C57.5032 153.211 60.2263 153.224 62.8855 153.019C62.8855 153.019 62.8898 153.019 62.8983 153.019ZM59.1524 143.749C55.6878 143.749 52.1976 143.276 48.7585 142.342C38.6714 139.58 30.2719 133.059 25.0941 123.98C19.9291 114.901 18.5995 104.339 21.3482 94.2625C24.1097 84.1735 30.6299 75.7724 39.707 70.5936C48.7969 65.4276 59.3442 64.0977 69.4185 66.847C79.5056 69.609 87.9051 76.1304 93.0829 85.2093C98.2479 94.3009 99.5903 104.85 96.8288 114.927C94.0673 125.016 87.5471 133.417 78.47 138.595C72.4868 142.01 65.8516 143.749 59.1524 143.749ZM59.0246 66.0158C52.4149 66.0158 45.8947 67.7421 40.001 71.1051C31.0518 76.1943 24.6339 84.4804 21.9107 94.416C19.1876 104.352 20.5044 114.747 25.6055 123.686C30.6938 132.637 38.9782 139.069 48.9119 141.779C58.8456 144.503 69.2395 143.186 78.176 138.097C87.1252 132.995 93.5559 124.709 96.2662 114.773C98.9894 104.85 97.6726 94.4416 92.5843 85.5034C87.4832 76.5524 79.1987 70.1333 69.2651 67.4096C65.8899 66.4761 62.4509 66.0158 59.0246 66.0158Z" fill="black"/>
<path d="M9.45845 68.5347C9.45845 68.5347 8.85757 60.9391 8.57631 58.8932C8.26948 56.5659 11.6446 58.9955 12.2583 66.1691L9.45845 68.5347Z" fill="white"/>
<path d="M9.45753 68.829C9.41492 68.829 9.37657 68.8205 9.34247 68.8034C9.2402 68.7651 9.17627 68.6628 9.16349 68.5605C9.16349 68.4838 8.56261 60.9521 8.29413 58.9318C8.21742 58.4075 8.30692 58.0495 8.56261 57.8704C8.66489 57.7809 8.90779 57.6659 9.26576 57.8321C10.378 58.3308 12.1167 61.2335 12.5386 66.1437C12.5514 66.2332 12.5131 66.3227 12.4364 66.3867L9.63652 68.7523C9.58538 68.8034 9.52146 68.829 9.45753 68.829ZM8.92058 58.3308C8.91206 58.3308 8.9078 58.3308 8.9078 58.3308C8.88223 58.3436 8.80552 58.4842 8.85666 58.8551C9.08678 60.5557 9.54703 66.1565 9.70044 67.9467L11.9505 66.0414C11.5414 61.5403 10.0201 58.9829 9.13792 58.4203C9.02286 58.3436 8.94615 58.3308 8.92058 58.3308Z" fill="black"/>
<path d="M5.35328 103.725C5.35328 103.725 9.87905 78.8541 9.94297 78.0229C9.98133 77.4347 9.90462 76.8337 9.70006 76.2711C9.12475 74.6088 7.91022 71.0668 7.89743 70.0821C7.88465 69.072 8.76679 68.292 9.15033 67.9978C9.38045 67.8188 9.59779 67.6398 9.81513 67.448L11.8607 65.6834C12.3593 65.2742 12.6022 64.5837 13.3053 64.686C14.6349 64.8778 15.0185 67.1667 15.0185 67.1667C15.0185 67.1667 16.3097 66.1437 17.0129 66.6296C17.716 67.1155 18.8922 70.6576 17.2302 74.3019C15.5682 77.9462 15.0696 76.2711 14.9418 80.0433C14.8906 81.5522 15.1463 95.861 15.1463 95.861C15.1463 97.0502 16.3992 97.8046 17.4476 97.2548L26.4735 92.4724L29.4651 107.74L13.3948 111.423C8.72843 112.484 4.49671 108.431 5.35328 103.725Z" fill="white"/>
<path d="M11.8998 111.87C10.1355 111.87 8.4096 111.193 7.10557 109.94C5.41799 108.328 4.65092 105.988 5.07281 103.674C6.63254 95.0809 9.61136 78.6495 9.6625 78.0101C9.70085 77.4475 9.62414 76.8976 9.43237 76.3606C8.75479 74.4425 7.62974 71.0923 7.61695 70.0821C7.60417 68.9313 8.56302 68.0745 8.97213 67.7676C9.20225 67.5886 9.43237 67.4096 9.63692 67.2306L11.6697 65.466C11.8103 65.3509 11.9254 65.2102 12.0404 65.0696C12.3601 64.7115 12.7052 64.3023 13.3445 64.4046C14.4951 64.5709 15.0193 65.9647 15.211 66.6807C15.6968 66.3866 16.5662 65.9647 17.1799 66.3994C18.0748 67.0132 19.1487 70.7982 17.4867 74.4169C16.8347 75.8747 16.3489 76.4884 16.0037 76.9488C15.4923 77.6009 15.3133 77.8439 15.2366 80.0561C15.1855 81.5394 15.4284 95.7075 15.4284 95.8609C15.4284 96.3213 15.6585 96.7305 16.0548 96.9606C16.4384 97.1908 16.9114 97.2036 17.3205 96.999L26.3337 92.2294C26.4104 92.1782 26.5127 92.1782 26.5894 92.2166C26.6789 92.255 26.73 92.3317 26.7556 92.4212L29.76 107.689C29.7855 107.842 29.6833 107.996 29.5298 108.021L13.4595 111.691C12.9354 111.819 12.4112 111.87 11.8998 111.87ZM5.63533 103.776C5.25179 105.899 5.95495 108.047 7.50189 109.53C9.04883 111.014 11.235 111.615 13.3317 111.142L29.1335 107.523L26.257 92.9199L17.589 97.5105C17.0009 97.8173 16.3233 97.7918 15.7608 97.4593C15.1982 97.1141 14.8531 96.5131 14.8531 95.8609C14.8403 95.2855 14.6102 81.5394 14.6613 80.0305C14.738 77.7544 14.9298 77.3963 15.5434 76.6035C15.8758 76.1688 16.3361 75.5678 16.9753 74.1868C18.6501 70.5169 17.3589 67.2178 16.8475 66.8725C16.4511 66.5912 15.569 67.1027 15.1982 67.3968C15.1215 67.448 15.0193 67.4735 14.917 67.4352C14.8275 67.3968 14.7636 67.3201 14.738 67.2178C14.6357 66.6424 14.1755 65.1079 13.2678 64.9673C12.9482 64.9289 12.7819 65.1079 12.4879 65.4532C12.3473 65.6066 12.2066 65.7729 12.0404 65.9135L10.0077 67.6653C9.80313 67.8444 9.573 68.0362 9.33009 68.228C8.98491 68.4837 8.17948 69.187 8.19226 70.0821C8.19226 70.747 8.86985 73.0231 9.96933 76.1688C10.1867 76.7826 10.2762 77.4091 10.225 78.0485C10.1739 78.8796 5.8271 102.766 5.63533 103.776Z" fill="black"/>
<path d="M12.0523 73.9311C11.7838 73.9311 11.5537 73.8672 11.3619 73.7649C10.8377 73.5091 10.582 72.9337 10.6971 72.2815C10.9272 70.8494 11.8861 70.0694 11.9244 70.0438C12.0523 69.9415 12.2313 69.9671 12.3335 70.0822C12.423 70.21 12.4102 70.3891 12.2824 70.4913C12.2696 70.5041 11.4642 71.1691 11.2596 72.3711C11.1957 72.7802 11.3235 73.0999 11.6176 73.2534C12.0395 73.4708 12.8577 73.3812 13.8038 72.4222C15.3763 70.8494 14.7243 67.1028 14.7115 67.0644C14.6859 66.911 14.7882 66.7575 14.9416 66.7319C15.1078 66.7064 15.2484 66.8087 15.2868 66.9621C15.3124 67.1283 15.9899 71.0412 14.2129 72.8186C13.4074 73.637 12.6531 73.9311 12.0523 73.9311Z" fill="black"/>
<path d="M109.228 146.804C107.093 145.59 106.249 144.618 105.457 142.61C105.457 142.61 101.046 128.634 97.607 119.862C96.2263 116.358 93.1324 109.786 90.0002 103.303L78.8519 109.517C78.7326 109.585 78.6218 109.662 78.5195 109.747C83.9786 118.89 94.0273 135.667 95.1012 137.214C95.1012 137.214 100.573 145.296 100.305 149.49C100.138 152.149 101.161 157.047 105.086 159.783C105.904 160.359 106.965 159.477 106.556 158.569C106.556 158.552 106.552 158.535 106.543 158.517C105.93 157.239 104.843 155.602 104.843 155.602C104.843 155.602 106.991 155.628 109.228 157.392C111.466 159.157 116.209 162.315 117.193 161.254C118.881 159.425 117.883 151.715 109.228 146.804Z" fill="white"/>
<path d="M116.593 161.74C114.317 161.74 109.293 157.802 109.05 157.61C107.592 156.472 106.173 156.088 105.419 155.96C105.79 156.548 106.391 157.533 106.8 158.403L106.825 158.454C107.068 158.991 106.928 159.579 106.467 159.95C106.007 160.333 105.406 160.359 104.921 160.027C100.702 157.06 99.8706 151.83 100.011 149.477C100.267 145.424 94.9101 137.457 94.859 137.368C93.7979 135.833 84.0048 119.491 78.2645 109.888C78.1878 109.76 78.2262 109.607 78.3412 109.517C78.4691 109.415 78.5841 109.338 78.712 109.275L89.8602 103.047C89.9241 103.009 90.0136 102.996 90.0903 103.022C90.1542 103.047 90.2182 103.098 90.2565 103.175C94.1303 111.167 96.6872 116.742 97.8762 119.76C101.277 128.442 105.688 142.38 105.726 142.521C106.506 144.477 107.324 145.385 109.382 146.562C116.478 150.59 117.82 156.024 118.063 157.597C118.332 159.285 118.076 160.717 117.411 161.446C117.219 161.651 116.938 161.74 116.593 161.74ZM104.844 155.321C104.946 155.321 107.119 155.359 109.408 157.162C112.463 159.579 116.324 161.766 116.989 161.062C117.526 160.461 117.731 159.17 117.501 157.687C117.27 156.178 115.966 150.973 109.088 147.06C106.928 145.82 106.007 144.81 105.189 142.713C105.138 142.559 100.74 128.634 97.3392 119.965C96.1758 117.011 93.6572 111.525 89.873 103.699L78.9932 109.773C78.9591 109.79 78.9293 109.807 78.9037 109.824C84.6568 119.453 94.2837 135.526 95.332 137.048C95.5621 137.381 100.855 145.27 100.587 149.516C100.446 151.753 101.239 156.74 105.253 159.553C105.573 159.771 105.905 159.681 106.097 159.515C106.301 159.349 106.455 159.042 106.301 158.684L106.288 158.646C105.688 157.392 104.614 155.781 104.601 155.768C104.55 155.679 104.537 155.564 104.588 155.462C104.639 155.372 104.742 155.321 104.844 155.321Z" fill="black"/>
<path d="M22.0128 91.667L24.3907 88.9945C28.4179 84.5318 33.4806 81.1304 39.1442 79.0973L43.0051 77.7035C43.312 77.6012 65.3016 75.3379 72.7806 77.8058C77.447 79.353 83.5453 82.959 91.8425 99.7741C92.4562 101.014 91.9576 102.587 90.7558 103.265L78.5848 110.055C77.5237 110.643 77.5493 111.973 77.7155 113.175L81.3207 132.752C81.5381 133.877 81.0523 135.015 80.0934 135.642C77.0762 137.586 68.2676 140.603 48.9884 137.509C44.4754 136.78 40.8445 133.379 39.8218 128.916L36.2804 113.584C36.0631 112.293 34.286 111.653 32.9181 111.359C32.151 111.193 31.3583 111.18 30.5657 111.231C28.9037 111.346 27.3312 110.323 26.807 108.674L21.4247 94.9405C20.9772 93.8153 21.2073 92.5493 22.0128 91.667Z" fill="white"/>
<path d="M63.9585 139.12C59.893 139.12 54.9326 138.749 48.9366 137.79C44.2957 137.036 40.601 133.583 39.5398 128.98L36.0113 113.648C35.8067 112.446 33.9402 111.87 32.8535 111.64C32.1887 111.5 31.4727 111.461 30.5906 111.512C28.7624 111.64 27.0876 110.515 26.5251 108.763L21.1555 95.0426C20.6697 93.8151 20.9254 92.4469 21.7948 91.475L24.1727 88.8025C28.2126 84.3143 33.3521 80.8617 39.0412 78.8158L42.9022 77.4348C43.0556 77.3836 65.2498 75.018 72.8694 77.5371C77.7787 79.161 83.9153 83.0611 92.0975 99.646C92.7751 101.027 92.2381 102.753 90.8958 103.508L78.7248 110.298C77.8171 110.809 77.8426 112.024 77.996 113.136L81.6141 132.701C81.8442 133.954 81.3073 135.194 80.2461 135.885C78.8015 136.805 74.1734 139.12 63.9585 139.12ZM31.3449 110.911C31.9458 110.911 32.4699 110.963 32.9813 111.078C34.4771 111.397 36.3309 112.101 36.5738 113.546L40.1024 128.852C41.1123 133.225 44.6153 136.511 49.0388 137.215C69.8778 140.578 77.9577 136.665 79.9393 135.399C80.7959 134.836 81.2306 133.826 81.0388 132.803L77.4207 113.226C77.2545 111.909 77.2418 110.477 78.4435 109.799L90.6145 103.009C91.6884 102.408 92.1231 101.014 91.5861 99.9017C83.4807 83.5087 77.4847 79.6725 72.6904 78.0741C65.4799 75.6957 43.8994 77.8056 43.0812 77.9846L39.233 79.3656C33.6461 81.3732 28.5834 84.7746 24.6074 89.1861L22.2294 91.8586C21.5007 92.677 21.2834 93.8151 21.6925 94.8253L27.0748 108.571C27.5606 110.08 28.9797 111.052 30.5522 110.937C30.825 110.92 31.0892 110.911 31.3449 110.911Z" fill="black"/>
<path d="M62.6027 109.313C62.5516 109.313 62.4877 109.3 62.4365 109.262C57.3354 105.349 55.8141 101.065 55.7502 100.886C55.699 100.733 55.7757 100.566 55.9291 100.515C56.0698 100.464 56.236 100.541 56.2871 100.694C56.2999 100.733 57.8213 105.004 62.7817 108.801C62.9096 108.904 62.9351 109.083 62.8328 109.211C62.7817 109.274 62.6922 109.313 62.6027 109.313Z" fill="black"/>
<path d="M44.4615 108.699C44.372 108.699 44.2825 108.661 44.2314 108.584C40.3576 103.456 40.0508 98.9171 40.038 98.7253C40.0252 98.559 40.1531 98.4312 40.3065 98.4184C40.4727 98.4056 40.6005 98.5335 40.6133 98.6869C40.6133 98.7253 40.9329 103.252 44.6916 108.239C44.7811 108.367 44.7555 108.546 44.6277 108.648C44.5765 108.686 44.5254 108.699 44.4615 108.699Z" fill="black"/>
<path d="M62.7056 87.9971C50.4324 93.5339 43.0428 82.6265 43.0428 82.6265C42.8383 82.3963 42.6124 82.196 42.3652 82.0255L42.4803 81.9999C42.6167 81.9488 42.753 81.8933 42.8894 81.8337C48.374 79.7238 51.8514 74.3021 51.7236 68.42L51.6469 65.0442L60.8135 64.9419C60.8135 64.9419 61.0564 77.2942 65.2881 77.3965L67.6277 77.6651C69.3792 81.6674 66.8223 86.1429 62.7056 87.9971Z" fill="white"/>
<path d="M55.9298 89.8385C47.9138 89.8385 43.1068 83.202 42.8255 82.8056C42.638 82.601 42.4334 82.4219 42.2118 82.2685C42.1223 82.2046 42.0712 82.1023 42.084 81.9872C42.0968 81.8849 42.1735 81.7954 42.2757 81.757L42.378 81.7187C42.5144 81.676 42.6508 81.6249 42.7871 81.5652C48.0928 79.5193 51.5702 74.2382 51.4296 68.4328L51.3528 65.057C51.3528 64.9803 51.3784 64.9036 51.4423 64.8397C51.4935 64.7885 51.5574 64.7629 51.6341 64.7502L60.8135 64.6606C60.9669 64.6606 61.0947 64.7885 61.0947 64.942C61.1715 68.305 62.0536 77.0386 65.2881 77.1025L67.6661 77.3838C67.7555 77.3966 67.845 77.4605 67.8962 77.5501C69.8139 81.9616 66.8223 86.4627 62.8207 88.2657C60.3149 89.3909 58.0136 89.8385 55.9298 89.8385ZM42.9533 82.1278C43.0641 82.2216 43.1664 82.3239 43.2602 82.4347C43.2687 82.4433 43.2772 82.4518 43.2857 82.4603C43.2985 82.4859 45.1523 85.1712 48.4379 87.1532C52.8359 89.7873 57.5918 89.9919 62.5905 87.7414C66.2853 86.0663 69.0724 81.9616 67.4231 77.9337L65.2498 77.6779C61.1459 77.5884 60.5961 67.1541 60.5322 65.2361L51.9409 65.3256L52.0049 68.4073C52.1455 74.4684 48.5274 79.9668 43.0045 82.1023C42.9874 82.1108 42.9704 82.1193 42.9533 82.1278Z" fill="black"/>
<path d="M51.6862 65.5299L51.2132 59.3282C50.9958 56.2976 53.3482 53.7018 56.3654 53.6379L64.3302 53.4717C64.3302 53.4717 64.9566 57.359 67.0278 59.1875L66.1073 60.9393L65.1868 64.1489C64.9822 64.8394 64.4069 65.3765 63.691 65.5171H58.8967L51.6862 65.5299Z" fill="white"/>
<path d="M51.6843 65.8114C51.5309 65.8114 51.403 65.6963 51.3902 65.5429L50.93 59.3539C50.8149 57.8067 51.3263 56.3234 52.3619 55.1853C53.3974 54.0345 54.8165 53.3823 56.3635 53.3567L64.3283 53.1777C64.4689 53.1777 64.5968 53.28 64.6223 53.4207C64.6223 53.459 65.2488 57.2312 67.2176 58.9703C67.3199 59.0598 67.3455 59.2005 67.2816 59.3283L66.3738 61.0418L65.4533 64.2258C65.2232 65.0442 64.5712 65.6452 63.7402 65.7986C63.7232 65.7986 63.7061 65.7986 63.6891 65.7986L58.8948 65.8114C58.7286 65.8114 58.6008 65.6707 58.6008 65.5173C58.6008 65.3639 58.7286 65.236 58.8948 65.2232H63.6635C64.2644 65.1081 64.7374 64.6606 64.9036 64.0723L65.8241 60.85C65.8326 60.833 65.8411 60.8159 65.8497 60.7989L66.6679 59.2516C64.942 57.5893 64.2644 54.6355 64.0982 53.7659L56.3763 53.9322C54.9955 53.9577 53.717 54.5459 52.7838 55.5689C51.8505 56.5919 51.403 57.9217 51.5053 59.3028L51.9656 65.5045C51.9783 65.658 51.8633 65.7986 51.7099 65.8114C51.7013 65.8114 51.6928 65.8114 51.6843 65.8114Z" fill="black"/>
<path d="M57.4391 80.4782C57.1706 80.4782 56.8894 80.4399 56.5826 80.3632C56.4291 80.3248 56.3396 80.1714 56.378 80.0179C56.4164 79.8517 56.5698 79.7622 56.7232 79.8005C58.0528 80.1458 58.8071 79.4425 58.8071 79.4425C58.9349 79.3274 59.1139 79.3402 59.2162 79.4553C59.3312 79.5704 59.3185 79.7494 59.2034 79.8645C59.1778 79.89 58.5386 80.4782 57.4391 80.4782Z" fill="black"/>
<path d="M65.9143 52.9986L61.9127 55.1212C59.5603 56.3744 57.9495 58.6633 57.5787 61.2974C57.0673 64.9929 56.6326 71.3737 53.1169 76.757C50.3937 80.9384 45.804 83.5086 40.8436 83.8283C37.5707 84.0329 33.697 85.2733 31.6259 87.3703C31.6259 87.3703 25.0418 78.7518 31.6642 71.1819C38.2739 63.6247 46.9802 64.1106 48.6934 56.0803C50.3298 48.3952 59.7009 42.705 66.3106 51.1061C66.7836 51.7199 66.6047 52.6278 65.9143 52.9986Z" fill="black"/>
<path d="M118.382 70.1844C118.382 70.1844 114.432 70.3378 109.548 70.3122C108.526 70.3122 105.777 67.0132 104 67.5758C102.734 67.9722 105.138 70.1332 104.805 70.1332C101.686 70.1204 98.9754 70.1077 98.0037 70.1077C97.2367 70.1077 96.981 70.8877 97.3006 71.591C97.7481 72.5884 98.7453 74.0972 100.382 74.6215C103.297 75.5677 108.947 75.133 110.699 74.8005C114.509 74.0589 117.539 74.0077 117.539 74.0077L118.382 70.1844Z" fill="white"/>
<path d="M105.432 75.491C103.579 75.491 101.661 75.3375 100.293 74.89C98.388 74.2762 97.378 72.4604 97.0329 71.706C96.8155 71.2201 96.8283 70.6702 97.0712 70.2994C97.2758 69.9925 97.6082 69.8135 98.0045 69.8135C98.9378 69.8263 101.405 69.8391 104.32 69.8519C104.312 69.8348 104.299 69.8178 104.282 69.8007C103.821 69.2125 103.195 68.3941 103.374 67.7931C103.425 67.6269 103.566 67.4095 103.924 67.3072C105.138 66.9108 106.672 68.0745 107.9 69.0079C108.539 69.481 109.255 70.0309 109.549 70.0309C114.369 70.0437 118.332 69.903 118.37 69.903C118.46 69.903 118.537 69.9414 118.601 70.0053C118.652 70.0692 118.677 70.1588 118.664 70.2483L117.821 74.0588C117.795 74.1995 117.68 74.289 117.539 74.289C117.514 74.289 114.497 74.3529 110.751 75.0818C109.792 75.2736 107.657 75.491 105.432 75.491ZM97.9917 70.3889C97.7957 70.3974 97.6508 70.4699 97.557 70.6063C97.4164 70.8237 97.4164 71.1561 97.557 71.463C97.8766 72.1535 98.7716 73.8031 100.472 74.3529C103.348 75.2736 108.987 74.8388 110.636 74.5192C113.845 73.8926 116.529 73.7519 117.309 73.7264L118.012 70.4912C116.926 70.5296 113.525 70.6191 109.549 70.6063C109.05 70.6063 108.398 70.0948 107.555 69.4682C106.43 68.6115 105.023 67.5502 104.09 67.8443C103.949 67.8954 103.937 67.9466 103.924 67.9721C103.834 68.279 104.461 69.0974 104.742 69.4427C105.074 69.8774 105.202 70.0437 105.1 70.2483C105.036 70.3633 104.934 70.4273 104.806 70.4273C101.674 70.4145 98.9761 70.4017 98.0045 70.3889C98.0045 70.3889 98.0002 70.3889 97.9917 70.3889Z" fill="black"/>
<path d="M111.775 69.2379C115.188 69.3274 123.23 69.0461 126.4 64.8008C128.101 66.9107 129.66 69.1484 131.386 71.2327C131.872 71.8337 132.486 71.9232 133.023 71.7314C133.764 73.3298 134.378 74.9793 134.902 76.6672C126.388 78.2912 115.316 77.0381 111.57 76.5266C110.816 76.4243 110.253 75.7849 110.253 75.0177L110.215 70.7851C110.202 69.9156 110.918 69.2123 111.775 69.2379Z" fill="black"/>
<path d="M66.4895 21.5549L69.0337 22.9103C68.9314 24.0484 68.9186 25.1864 69.0081 26.2989L66.4639 27.6287C65.1983 28.2809 64.559 29.7131 64.917 31.0941C65.275 32.4623 66.5406 33.4085 67.9597 33.3574L70.8363 33.2679C71.3221 34.2908 71.8718 35.2754 72.5111 36.1961L70.9641 38.6257C70.1971 39.8277 70.3632 41.3877 71.3605 42.3979C72.3577 43.4208 73.9302 43.5998 75.1319 42.8454L77.5738 41.3237C78.4815 41.9631 79.4659 42.5385 80.5015 43.0244L80.3608 45.9015C80.2969 47.3209 81.2302 48.5996 82.5982 48.9704C83.9661 49.3541 85.4236 48.7275 86.0884 47.4743L87.4435 44.9297C88.5814 45.032 89.7064 45.0448 90.8315 44.9553L92.1483 47.4999C92.8003 48.7658 94.245 49.4052 95.6129 49.0472C96.9937 48.6891 97.9397 47.4232 97.8886 46.0038L97.7863 43.1267C98.8091 42.6408 99.7935 42.091 100.727 41.4516L103.156 42.9989C104.345 43.7661 105.917 43.5999 106.927 42.6025C107.937 41.6051 108.116 40.0322 107.362 38.8303L105.841 36.3879C106.493 35.48 107.055 34.4954 107.554 33.4597L110.43 33.5875C111.849 33.6515 113.115 32.7308 113.499 31.3626C113.869 29.9816 113.243 28.5366 111.99 27.8717L109.446 26.5163C109.561 25.3782 109.561 24.253 109.471 23.1277L112.028 21.8106C113.294 21.1585 113.933 19.7135 113.563 18.3325C113.205 16.9643 111.939 16.0181 110.52 16.0692L107.643 16.1715C107.17 15.1485 106.608 14.1639 105.968 13.2305L107.515 10.8009C108.283 9.61171 108.116 8.0389 107.119 7.02871C106.122 6.01853 104.549 5.83951 103.348 6.58117L100.919 8.10283C99.9981 7.46347 99.0136 6.90084 97.9909 6.40215L98.1187 3.52505C98.1826 2.10568 97.2494 0.826966 95.8814 0.45614C94.5134 0.0853133 93.0688 0.71188 92.3912 1.96502L91.0488 4.49687C89.911 4.39457 88.7731 4.39457 87.6609 4.48408L86.3313 1.92666C85.6793 0.660733 84.2346 0.021377 82.8666 0.379416C81.4859 0.750242 80.5526 2.01617 80.6038 3.43553L80.6932 6.31263C79.6705 6.78576 78.6861 7.34839 77.7656 7.98775L75.3365 6.42772C74.1347 5.67328 72.5622 5.83951 71.5522 6.83691C70.5422 7.8343 70.3633 9.39433 71.1175 10.6091L72.6389 13.0387C71.9997 13.9593 71.4244 14.9311 70.9386 15.9669L68.062 15.839C66.6429 15.7751 65.3645 16.7086 64.9809 18.0768C64.6102 19.445 65.2366 20.8899 66.4895 21.5549ZM73.6745 20.4552C76.0269 11.8622 84.9122 6.79855 93.5035 9.15138C102.095 11.5042 107.157 20.3785 104.805 28.9842C102.453 37.5771 93.5802 42.6408 84.9761 40.2752C76.3848 37.9224 71.3221 29.0481 73.6745 20.4552Z" fill="white"/>
<path d="M94.8336 49.4308C93.619 49.4308 92.4812 48.7658 91.8931 47.6406L90.653 45.2494C89.6558 45.3261 88.633 45.3133 87.6102 45.2366L86.3446 47.6022C85.6031 48.996 84.0305 49.6609 82.522 49.2517C81.0134 48.8426 80.0034 47.4615 80.0801 45.8887L80.2079 43.2034C79.2747 42.7559 78.3925 42.2316 77.5615 41.669L75.2858 43.0884C73.9562 43.9195 72.2559 43.7149 71.1564 42.6024C70.0569 41.49 69.8779 39.7893 70.7217 38.4722L72.1664 36.2089C71.6039 35.3649 71.0925 34.4698 70.6578 33.562L67.973 33.6515C66.4005 33.7026 65.0326 32.6796 64.6362 31.1708C64.2399 29.6491 64.9303 28.0891 66.3238 27.373L68.7018 26.1326C68.6378 25.1353 68.6506 24.0995 68.7273 23.0765L66.3622 21.8106C64.9686 21.0817 64.2911 19.5089 64.7129 18C65.1221 16.4912 66.5028 15.481 68.0753 15.5449L70.7601 15.6728C71.2076 14.7521 71.7189 13.857 72.2942 13.0386L70.8751 10.7625C70.0441 9.43268 70.2359 7.73199 71.361 6.6323C72.4732 5.53261 74.1736 5.3408 75.4904 6.18475L77.7533 7.64248C78.5971 7.07985 79.492 6.56837 80.3997 6.1336L80.3102 3.43552C80.2591 1.87549 81.2818 0.507274 82.7904 0.110873C84.3118 -0.285527 85.8715 0.404978 86.5875 1.79877L87.8276 4.17718C88.8248 4.11324 89.8476 4.11324 90.8831 4.20275L92.1488 1.82435C92.8775 0.443337 94.45 -0.234379 95.9586 0.174809C97.4672 0.596783 98.4772 1.97779 98.4005 3.53782L98.2854 6.22311C99.2059 6.68345 100.101 7.19493 100.919 7.75757L103.195 6.3382C104.524 5.50704 106.225 5.71163 107.324 6.82411C108.424 7.93659 108.603 9.63727 107.759 10.9543L106.314 13.2305C106.877 14.0744 107.388 14.9567 107.823 15.8774L110.508 15.7879C112.08 15.7239 113.448 16.7469 113.844 18.2686C114.241 19.7774 113.55 21.3375 112.157 22.0663L109.779 23.2939C109.843 24.3041 109.843 25.3271 109.753 26.35L112.131 27.6159C113.512 28.3576 114.19 29.9176 113.78 31.4393C113.359 32.9482 111.978 33.9456 110.418 33.8816L107.733 33.7538C107.273 34.6872 106.762 35.5695 106.186 36.4007L107.618 38.6768C108.436 40.0067 108.245 41.7073 107.132 42.807C106.02 43.9067 104.32 44.0858 102.99 43.2418L100.727 41.7969C99.8835 42.3595 99.0014 42.871 98.0809 43.3057L98.1704 45.991C98.2215 47.5511 97.2115 48.9321 95.6901 49.3285C95.4004 49.3967 95.1148 49.4308 94.8336 49.4308ZM90.832 44.6612C90.9343 44.6612 91.0365 44.7251 91.0877 44.8274L92.4045 47.372C93.0054 48.5229 94.2966 49.0983 95.5495 48.7658C96.8024 48.4334 97.6462 47.3081 97.5951 46.0166L97.4928 43.1267C97.4928 43.0116 97.5567 42.9093 97.659 42.8582C98.669 42.3979 99.6406 41.8352 100.561 41.2086C100.663 41.1447 100.778 41.1447 100.881 41.2086L103.31 42.7559C104.396 43.4592 105.803 43.3057 106.723 42.3978C107.644 41.4772 107.81 40.0834 107.12 38.9837L105.598 36.5414C105.547 36.4391 105.547 36.324 105.611 36.2217C106.237 35.3266 106.813 34.3548 107.286 33.3446C107.337 33.2295 107.452 33.1656 107.567 33.1783L110.444 33.3062C111.735 33.3701 112.873 32.5262 113.218 31.2859C113.563 30.0327 113.001 28.7284 111.863 28.1274L109.319 26.772C109.216 26.7209 109.152 26.6058 109.165 26.4907C109.267 25.3654 109.28 24.2401 109.191 23.1532C109.178 23.0382 109.242 22.9231 109.344 22.8719L111.888 21.5549C113.039 20.9539 113.614 19.6624 113.295 18.4092C112.962 17.1561 111.837 16.3121 110.533 16.3633L107.657 16.4528C107.542 16.4656 107.426 16.4017 107.388 16.2866C106.915 15.2892 106.365 14.3046 105.726 13.3967C105.662 13.2944 105.662 13.1793 105.726 13.077L107.273 10.6475C107.976 9.56055 107.823 8.15397 106.915 7.2333C106.007 6.31262 104.601 6.14639 103.502 6.83689L101.072 8.35856C100.97 8.40971 100.842 8.40971 100.753 8.34577C99.8451 7.7192 98.8863 7.14379 97.8635 6.65788C97.7613 6.61951 97.6973 6.50443 97.6973 6.38935L97.8252 3.51225C97.8891 2.22075 97.0581 1.08269 95.8052 0.737441C94.5651 0.392189 93.2611 0.954823 92.6474 2.09288L91.305 4.63751C91.2411 4.73981 91.126 4.80374 91.0237 4.79096C89.8987 4.68866 88.7736 4.67587 87.6742 4.76538C87.5591 4.77817 87.4568 4.71423 87.4057 4.61194L86.0761 2.05452C85.488 0.903676 84.1967 0.341044 82.9439 0.660721C81.691 0.993186 80.8472 2.13124 80.8855 3.42273L80.9878 6.29983C80.9878 6.41492 80.9239 6.51722 80.8216 6.56836C79.8116 7.04149 78.84 7.59133 77.9195 8.2179C77.83 8.29462 77.7022 8.29462 77.5999 8.23069L75.1836 6.67066C74.0841 5.98016 72.6778 6.12082 71.7573 7.04149C70.8368 7.94937 70.6706 9.35595 71.361 10.4556L72.8823 12.8852C72.9463 12.9875 72.9335 13.1154 72.8696 13.2049C72.2431 14.1 71.6806 15.0718 71.1948 16.0948C71.1436 16.1971 71.0286 16.261 70.9263 16.261L68.0497 16.1203C66.7457 16.0692 65.6079 16.9004 65.2627 18.1535C64.9175 19.3938 65.48 20.6981 66.6306 21.3119L69.162 22.6546C69.2643 22.7185 69.3282 22.8208 69.3154 22.9359C69.2131 24.0611 69.2131 25.1864 69.2899 26.2733C69.3026 26.3884 69.2387 26.5035 69.1364 26.5546L66.5923 27.8845C65.4417 28.4727 64.8664 29.7642 65.1988 31.0173C65.5184 32.2705 66.6562 33.1144 67.9475 33.076L70.824 32.9738C70.9519 32.9738 71.0541 33.0377 71.1053 33.14C71.5655 34.1502 72.128 35.122 72.7545 36.0427C72.8184 36.1322 72.8184 36.26 72.7545 36.3623L71.2076 38.7791C70.5044 39.8788 70.6578 41.2854 71.5655 42.206C72.4732 43.1267 73.8795 43.2929 74.979 42.6024L77.4209 41.0808C77.5104 41.0168 77.6382 41.0168 77.7405 41.0936C78.6354 41.7201 79.6071 42.2828 80.617 42.7687C80.7321 42.8198 80.796 42.9221 80.7832 43.0372L80.6554 45.9143C80.5915 47.2186 81.4225 48.3566 82.6754 48.7019C83.9283 49.0344 85.2195 48.4845 85.8332 47.3337L87.1884 44.789C87.2395 44.6867 87.3546 44.6356 87.4696 44.6484C88.5947 44.7507 89.7069 44.7507 90.8064 44.6612C90.8149 44.6612 90.8235 44.6612 90.832 44.6612ZM89.2722 41.1447C87.8148 41.1447 86.3446 40.9529 84.8999 40.5565C76.168 38.1653 71.0158 29.112 73.4065 20.3784C75.7972 11.6448 84.8488 6.47885 93.5807 8.87004C97.8124 10.0337 101.341 12.7701 103.514 16.5807C105.688 20.3912 106.237 24.8284 105.087 29.0481C103.923 33.2806 101.188 36.8099 97.3777 38.9837C94.8591 40.4159 92.0849 41.1447 89.2722 41.1447ZM73.9563 20.5319C71.655 28.9586 76.6282 37.6922 85.0533 40.0067C89.1444 41.1191 93.4145 40.5821 97.0965 38.485C100.766 36.3879 103.412 32.9865 104.524 28.9074C105.649 24.8156 105.1 20.5447 103.016 16.862C100.919 13.1921 97.5056 10.5452 93.4273 9.43268C85.0022 7.11821 76.2703 12.1052 73.9563 20.5319Z" fill="black"/>
<path d="M100.716 34.9047C97.7879 37.6923 93.8503 39.4057 89.5035 39.4313C85.1439 39.4569 81.1935 37.7818 78.2402 35.0198C81.6282 33.9584 85.438 33.3446 89.4651 33.3191C93.4923 33.3063 97.3149 33.8689 100.716 34.9047Z" fill="black"/>
<path d="M79.9146 23.8055C81.3337 18.6779 84.2742 11.9519 89.7844 12.7831C95.0644 13.5759 97.5447 19.3684 98.6953 23.8567C99.3857 26.5931 97.3018 29.2529 94.4891 29.2656L84.1464 29.3168C81.257 29.3296 79.1476 26.5931 79.9146 23.8055Z" fill="black"/>
<path d="M84.4659 17.8469C84.4787 17.8341 84.4787 17.8214 84.4787 17.8214L93.8626 17.7446C93.8626 17.7446 93.8754 17.7574 93.8754 17.7702C94.0032 18.2305 94.0672 18.7292 94.0672 19.2407L94.08 21.99C94.0928 23.8313 93.2362 25.4553 91.9194 26.4015L91.9577 33.5751C91.9577 35.0072 90.8071 36.1709 89.388 36.1709C87.9561 36.1836 86.7927 35.0328 86.7799 33.6006L86.7544 26.5294C85.3481 25.6215 84.402 23.9464 84.3892 22.0411L84.3764 18.9338C84.3679 18.5587 84.3977 18.1964 84.4659 17.8469Z" fill="white"/>
<path d="M89.3758 36.4649C88.6088 36.4649 87.8928 36.1708 87.3559 35.6337C86.8061 35.0967 86.4993 34.3678 86.4993 33.6006L86.4609 26.6188C86.4609 26.4526 86.5888 26.3247 86.7422 26.3247C86.7507 26.3247 86.755 26.3247 86.755 26.3247C86.9084 26.3247 87.0362 26.4526 87.0362 26.606L87.0746 33.6006C87.0746 34.2144 87.3175 34.7898 87.7522 35.2245C88.1869 35.6465 88.7622 35.8895 89.3758 35.8895C89.3758 35.8895 89.3801 35.8895 89.3886 35.8895C90.0023 35.8767 90.5776 35.6465 90.9995 35.199C91.4342 34.7642 91.6771 34.1888 91.6643 33.575L91.6259 26.6188C91.6259 26.4526 91.7538 26.3247 91.92 26.3247C92.0734 26.3247 92.2012 26.4526 92.2012 26.606L92.2396 33.575C92.2524 34.3422 91.9583 35.0583 91.4086 35.6081C90.8716 36.158 90.1557 36.4521 89.3886 36.4649C89.3801 36.4649 89.3758 36.4649 89.3758 36.4649Z" fill="black"/>
<path d="M89.221 24.189C88.6202 24.189 88.0576 23.9461 87.6485 23.5113C87.5335 23.3962 87.5463 23.2172 87.6613 23.1021C87.7764 22.9998 87.9554 22.9998 88.0704 23.1149C88.3645 23.4346 88.7864 23.6136 89.221 23.6136C89.221 23.6136 89.2253 23.6136 89.2338 23.6136C89.6685 23.6136 90.0776 23.4346 90.3844 23.1021C90.4995 22.9871 90.6785 22.9871 90.7936 23.0894C90.9086 23.2044 90.9086 23.3835 90.8063 23.4985C90.3972 23.9333 89.8219 24.189 89.2338 24.189C89.2253 24.189 89.221 24.189 89.221 24.189Z" fill="black"/>
<path d="M89.2345 27.5648C86.4219 27.5648 84.1206 25.0969 84.0951 22.0407L84.0823 18.9335C84.0695 17.5013 84.5809 16.1587 85.5141 15.1357C86.4474 14.1127 87.7003 13.5373 89.0299 13.5373C90.449 13.5245 91.7786 14.1255 92.7886 15.1996C93.7858 16.2738 94.3483 17.7059 94.3611 19.2404L94.3739 21.9896C94.3867 24.1506 93.2105 26.1454 91.3951 27.0533C91.2545 27.13 91.0755 27.0661 91.0116 26.9254C90.9348 26.7848 90.9988 26.6057 91.1394 26.5418C92.763 25.7234 93.7986 23.9332 93.7986 21.9896L93.7858 19.2404C93.773 17.8594 93.2744 16.5679 92.3667 15.596C91.4718 14.637 90.2828 14.1127 89.0299 14.1127C87.8665 14.1127 86.767 14.6242 85.936 15.5193C85.105 16.44 84.6576 17.642 84.6576 18.9335L84.6704 22.0407C84.6831 24.7772 86.7287 26.9894 89.2345 26.9894C89.243 26.9894 89.2515 26.9894 89.26 26.9894C89.4262 26.9894 89.5541 27.1172 89.5541 27.2707C89.5541 27.4369 89.4262 27.5648 89.26 27.5648C89.2515 27.5648 89.243 27.5648 89.2345 27.5648Z" fill="black"/>
<path d="M89.2725 39.4697C87.7384 39.4697 86.1787 39.2267 84.6445 38.7152C81.3205 37.6027 78.5079 35.3394 76.7052 32.3472C76.6157 32.2066 76.6669 32.0276 76.8075 31.9509C76.9354 31.8741 77.1143 31.9125 77.191 32.0531C78.9298 34.9302 81.6401 37.1041 84.8235 38.1654C92.2002 40.6205 100.216 36.6181 102.671 29.24C105.138 21.8618 101.137 13.8571 93.7472 11.3892C90.1802 10.2 86.3449 10.4685 82.9825 12.1564C79.6073 13.8443 77.1015 16.7342 75.8998 20.3146C75.0816 22.7697 74.9537 25.4038 75.529 27.9101C75.5674 28.0636 75.4651 28.217 75.3117 28.2554C75.1583 28.2937 75.0049 28.1914 74.9665 28.038C74.3656 25.4294 74.5063 22.693 75.3628 20.1356C76.603 16.4145 79.211 13.3967 82.7268 11.6449C86.2298 9.89308 90.2058 9.61176 93.9389 10.8521C101.61 13.4095 105.778 21.7467 103.221 29.419C101.162 35.5696 95.4219 39.4697 89.2725 39.4697Z" fill="black"/>
<path d="M34.3252 11.1971C34.2485 11.1971 34.1846 11.1588 34.1206 11.1076C34.0184 11.0053 34.0056 10.8135 34.1206 10.6984L35.1818 9.59872C35.284 9.48364 35.4758 9.48364 35.5909 9.58594C35.7059 9.70102 35.7059 9.88004 35.5909 9.99513L34.5297 11.1076C34.4786 11.1588 34.4019 11.1971 34.3252 11.1971Z" fill="black"/>
<path d="M30.617 15.0589C30.5403 15.0589 30.4764 15.0334 30.4125 14.9822C30.2974 14.8671 30.2974 14.6881 30.4125 14.573L31.4736 13.4733C31.5759 13.3583 31.7676 13.3455 31.8699 13.4606C31.985 13.5756 31.9978 13.7547 31.8827 13.8697L30.8216 14.9694C30.7704 15.0334 30.6937 15.0589 30.617 15.0589Z" fill="black"/>
<path d="M31.653 11.2483C31.5891 11.2483 31.5124 11.2227 31.4612 11.1716L30.3745 10.1102C30.2723 9.99516 30.2595 9.81614 30.3745 9.70106C30.4896 9.58598 30.6686 9.58598 30.7837 9.70106L31.8576 10.7624C31.9726 10.8647 31.9726 11.0565 31.8576 11.1588C31.8064 11.2227 31.7297 11.2483 31.653 11.2483Z" fill="black"/>
<path d="M35.4253 14.9563C35.3486 14.9563 35.2719 14.9307 35.2208 14.8668L34.1468 13.8183C34.0318 13.7032 34.0318 13.5242 34.1468 13.4091C34.2491 13.294 34.4409 13.294 34.5432 13.4091L35.6299 14.4576C35.7321 14.5727 35.7449 14.7517 35.6299 14.8668C35.5659 14.9307 35.502 14.9563 35.4253 14.9563Z" fill="black"/>
<path d="M201 13.1281C200.923 13.1281 200.846 13.1025 200.795 13.0513C200.68 12.9363 200.68 12.7572 200.782 12.6421L201.843 11.5297C201.958 11.4146 202.137 11.4146 202.252 11.5297C202.368 11.632 202.368 11.811 202.265 11.9261L201.204 13.0386C201.14 13.1025 201.063 13.1281 201 13.1281Z" fill="black"/>
<path d="M197.293 17.0028C197.216 17.0028 197.139 16.9772 197.088 16.9133C196.973 16.811 196.973 16.632 197.075 16.5169L198.136 15.4044C198.251 15.2893 198.43 15.2893 198.545 15.3916C198.66 15.5067 198.66 15.6857 198.558 15.8008L197.497 16.9133C197.433 16.9644 197.356 17.0028 197.293 17.0028Z" fill="black"/>
<path d="M198.328 13.1919C198.251 13.1919 198.174 13.1535 198.123 13.1024L197.049 12.0411C196.934 11.9388 196.934 11.747 197.049 11.6319C197.151 11.5296 197.343 11.5168 197.458 11.6319L198.532 12.6932C198.634 12.8083 198.647 12.9873 198.532 13.1024C198.468 13.1535 198.404 13.1919 198.328 13.1919Z" fill="black"/>
<path d="M202.085 16.8875C202.022 16.8875 201.945 16.8619 201.881 16.8107L200.807 15.7494C200.692 15.6343 200.692 15.4553 200.807 15.3402C200.922 15.2251 201.101 15.2251 201.216 15.3402L202.29 16.4015C202.405 16.5038 202.405 16.6957 202.29 16.8107C202.239 16.8619 202.162 16.8875 202.085 16.8875Z" fill="black"/>
<path d="M205.615 182.506C205.461 182.506 205.333 182.378 205.321 182.225L205.295 180.69C205.295 180.537 205.41 180.396 205.576 180.396C205.742 180.396 205.87 180.524 205.87 180.677L205.896 182.212C205.909 182.365 205.781 182.506 205.615 182.506Z" fill="black"/>
<path d="M205.73 187.864C205.576 187.864 205.449 187.736 205.436 187.582L205.41 186.048C205.41 185.895 205.538 185.767 205.691 185.754C205.845 185.754 205.985 185.882 205.985 186.035L206.024 187.57C206.024 187.723 205.896 187.864 205.73 187.864Z" fill="black"/>
<path d="M202.265 184.45C202.099 184.45 201.971 184.322 201.971 184.155C201.971 184.002 202.099 183.874 202.252 183.874L203.761 183.861C203.769 183.861 203.773 183.861 203.773 183.861C203.927 183.861 204.055 183.989 204.055 184.143C204.055 184.296 203.927 184.437 203.773 184.437L202.265 184.45Z" fill="black"/>
<path d="M207.544 184.398C207.378 184.398 207.25 184.27 207.25 184.117C207.25 183.964 207.378 183.823 207.544 183.823L209.053 183.81C209.193 183.81 209.334 183.938 209.334 184.104C209.334 184.258 209.206 184.385 209.053 184.385L207.544 184.398Z" fill="black"/>
<path d="M12.2465 39.6998C11.8502 39.6998 11.4411 39.623 11.0575 39.4824C10.2138 39.1499 9.54895 38.5106 9.19098 37.6666C8.44947 35.9531 9.21655 33.9456 10.9041 33.1783C11.7096 32.8203 12.6045 32.7947 13.4355 33.1144C14.2793 33.4469 14.9441 34.0862 15.302 34.9302C16.0436 36.6436 15.2765 38.6512 13.5889 39.4057C13.167 39.6103 12.7068 39.6998 12.2465 39.6998ZM12.2465 33.4724C11.863 33.4724 11.4922 33.5492 11.1342 33.7154C9.74072 34.342 9.10149 36.0043 9.71515 37.4364C10.022 38.1397 10.5717 38.664 11.2621 38.9453C11.9397 39.2011 12.694 39.1883 13.3588 38.8814C14.7523 38.2548 15.3915 36.5797 14.7779 35.1603C14.471 34.457 13.9213 33.92 13.2309 33.6515C12.9113 33.5364 12.5789 33.4724 12.2465 33.4724Z" fill="black"/>
<path d="M218.732 172.494C218.335 172.494 217.939 172.417 217.555 172.276C216.724 171.957 216.085 171.317 215.727 170.499C214.998 168.811 215.753 166.842 217.402 166.1C218.195 165.742 219.077 165.717 219.895 166.023C220.726 166.356 221.378 166.983 221.723 167.801C222.452 169.489 221.698 171.471 220.048 172.212C219.627 172.404 219.179 172.494 218.732 172.494ZM217.645 166.624C216.277 167.238 215.651 168.875 216.251 170.269C216.545 170.947 217.082 171.471 217.76 171.739C218.438 171.995 219.166 171.982 219.818 171.688C221.186 171.074 221.8 169.438 221.199 168.031C220.905 167.353 220.368 166.829 219.69 166.561C219.013 166.305 218.297 166.33 217.645 166.624Z" fill="black"/>
<path d="M24.1227 220.509C23.6752 220.509 23.2406 220.433 22.8059 220.266C21.8854 219.908 21.1567 219.205 20.7603 218.284C19.9549 216.392 20.7987 214.192 22.6397 213.361C23.5346 212.965 24.519 212.939 25.4267 213.285C26.3472 213.643 27.076 214.359 27.4723 215.279C28.2905 217.159 27.4467 219.358 25.5929 220.19C25.1199 220.407 24.6213 220.509 24.1227 220.509ZM24.1227 213.617C23.7008 213.617 23.2789 213.707 22.8698 213.886C21.3101 214.589 20.6069 216.456 21.2973 218.054C21.6297 218.834 22.2434 219.422 23.0232 219.729C23.7775 220.023 24.6085 220.011 25.3628 219.665C26.9225 218.962 27.6385 217.095 26.9481 215.509C26.6029 214.729 25.9893 214.128 25.2222 213.822C24.8642 213.694 24.4935 213.617 24.1227 213.617Z" fill="black"/>
<path d="M19.5979 20.6597C19.3166 20.6597 19.0481 20.6085 18.7797 20.5062C18.2171 20.2889 17.7697 19.8541 17.5268 19.2787C17.0282 18.1278 17.5395 16.7724 18.6774 16.2609C19.2271 16.018 19.8408 15.9924 20.3905 16.2098C20.9658 16.4399 21.4133 16.8747 21.6562 17.4373C22.1548 18.601 21.6434 19.9564 20.5056 20.4679C20.2115 20.5958 19.9047 20.6597 19.5979 20.6597ZM19.5851 16.6445C19.355 16.6445 19.1376 16.6829 18.9203 16.7852C18.0637 17.1688 17.6802 18.1918 18.0509 19.0613C18.2299 19.4833 18.5751 19.803 18.997 19.9692C19.4061 20.1354 19.8664 20.1226 20.2627 19.9436C21.1193 19.56 21.5028 18.537 21.132 17.6675C20.9403 17.2455 20.6079 16.9131 20.186 16.7468C19.9942 16.6701 19.7896 16.6445 19.5851 16.6445Z" fill="black"/>
<path d="M162.121 31.8612C162.044 31.8612 161.98 31.8356 161.916 31.7717C161.801 31.6694 161.801 31.4904 161.916 31.3753L162.965 30.2628C163.08 30.1477 163.259 30.1477 163.374 30.25C163.489 30.3651 163.502 30.5441 163.387 30.6592L162.325 31.7717C162.274 31.8228 162.198 31.8612 162.121 31.8612Z" fill="black"/>
<path d="M158.414 35.7229C158.337 35.7229 158.273 35.6973 158.209 35.6462C158.094 35.5439 158.094 35.3521 158.209 35.237L159.258 34.1373C159.373 34.0222 159.552 34.0222 159.667 34.1245C159.782 34.2396 159.795 34.4186 159.68 34.5337L158.618 35.6334C158.567 35.6973 158.491 35.7229 158.414 35.7229Z" fill="black"/>
<path d="M159.449 31.9124C159.372 31.9124 159.308 31.8868 159.244 31.8356L158.17 30.7743C158.055 30.6592 158.055 30.4802 158.17 30.3651C158.285 30.25 158.464 30.25 158.579 30.3651L159.653 31.4265C159.768 31.5287 159.768 31.7206 159.653 31.8356C159.602 31.8868 159.525 31.9124 159.449 31.9124Z" fill="black"/>
<path d="M163.22 35.6204C163.143 35.6204 163.067 35.5948 163.015 35.5436L161.941 34.4823C161.826 34.3672 161.826 34.1882 161.929 34.0731C162.044 33.958 162.223 33.958 162.338 34.0731L163.412 35.1345C163.527 35.2368 163.527 35.4158 163.424 35.5309C163.361 35.5948 163.284 35.6204 163.22 35.6204Z" fill="black"/>
<path d="M14.4074 207.096C13.0011 207.096 11.8633 205.958 11.8633 204.551C11.8633 203.144 13.0011 201.994 14.4074 201.994C15.8137 201.994 16.9644 203.144 16.9644 204.551C16.9644 205.958 15.8137 207.096 14.4074 207.096ZM14.4074 202.569C13.3207 202.569 12.4386 203.451 12.4386 204.551C12.4386 205.638 13.3207 206.52 14.4074 206.52C15.5069 206.52 16.389 205.638 16.389 204.551C16.389 203.451 15.5069 202.569 14.4074 202.569Z" fill="black"/>
</g>
<defs>
<clipPath id="clip0_1706_169">
<rect width="222" height="234" fill="white"/>
</clipPath>
</defs>
</svg>
